<svg xmlns="http://www.w3.org/2000/svg" width="84" height="58" viewBox="0 0 84 58">
  <rect x="8" y="6" width="68" height="38" rx="7" fill="#1d8a7a" stroke="#0f4b47" stroke-width="2"/>
  <rect x="26" y="12" width="32" height="18" rx="4" fill="#24313b" stroke="#7be0d0" stroke-width="1.5"/>
  <circle cx="42" cy="21" r="6" fill="#9fe7dd" opacity="0.28"/>
  <circle cx="42" cy="21" r="3.2" fill="#d8fff9"/>
  <text x="42" y="39" text-anchor="middle" font-size="9" font-family="Arial, sans-serif" fill="#e6fff9">BME280</text>
  <rect x="18" y="44" width="48" height="4" rx="2" fill="#0d3b38"/>
  <g fill="#d5b460" stroke="#6b5327" stroke-width="0.8">
    <rect x="14" y="44" width="4" height="10" rx="1"/>
    <rect x="22" y="44" width="4" height="10" rx="1"/>
    <rect x="30" y="44" width="4" height="10" rx="1"/>
    <rect x="38" y="44" width="4" height="10" rx="1"/>
    <rect x="46" y="44" width="4" height="10" rx="1"/>
    <rect x="54" y="44" width="4" height="10" rx="1"/>
    <rect x="62" y="44" width="4" height="10" rx="1"/>
  </g>
</svg>
