<?xml version='1.0' encoding='UTF-8' standalone='no'?>
<!-- Created with Inkscape (http://www.inkscape.org/) -->
<svg xmlns="http://www.w3.org/2000/svg" height="50.799999mm" gorn="0" width="25.4mm" xmlns:xml="http://www.w3.org/XML/1998/namespace" xml:space="preserve" version="1.1"  viewBox="0 0 25.4 50.799999" id="svg52267">
    <desc >
        <referenceFile >dokunmatik tuş takımı123456789.svg</referenceFile>
    </desc>
    <defs  id="defs52264"/>
    <g gorn="0.2"  id="layer1">
        <rect height="50.885258" ry="0.85456115" gorn="0.2.0" width="25.40766" style="paint-order:fill markers stroke" x="-0.011204029" rx="1.1316133" fill-opacity="1" fill="#d83420"  stroke-width="0.265609" y="-0.048976392" id="rect52956"/>
        <rect height="8.4039173" ry="0.85456115" gorn="0.2.1" width="8.4039173" style="paint-order:fill markers stroke" x="2.1240671" rx="1.1316133" fill-opacity="1" fill="#9d3327"  stroke-width="0.232653" y="1.7546641" id="rect53769"/>
        <rect height="8.4039173" ry="0.85456115" gorn="0.2.2" width="8.4039173" style="paint-order:fill markers stroke" x="15.514925" rx="1.1316133" fill-opacity="1" fill="#9d3327"  stroke-width="0.232653" y="1.8470148" id="rect53783"/>
        <rect height="8.4039173" ry="0.85456115" gorn="0.2.3" width="8.4039173" style="paint-order:fill markers stroke" x="2.1240671" rx="1.1316133" fill-opacity="1" fill="#9d3327"  stroke-width="0.232653" y="11.359142" id="rect53785"/>
        <rect height="8.4039173" ry="0.85456115" gorn="0.2.4" width="8.4039173" style="paint-order:fill markers stroke" x="15.561101" rx="1.1316133" fill-opacity="1" fill="#9d3327"  stroke-width="0.232653" y="11.174439" id="rect53787"/>
        <rect height="8.4039173" ry="0.85456115" gorn="0.2.5" width="8.4039173" style="paint-order:fill markers stroke" x="2.1240671" rx="1.1316133" fill-opacity="1" fill="#9d3327"  stroke-width="0.232653" y="21.148319" id="rect53789"/>
        <rect height="8.4039173" ry="0.85456115" gorn="0.2.6" width="8.4039173" style="paint-order:fill markers stroke" x="15.514925" rx="1.1316133" fill-opacity="1" fill="#9d3327"  stroke-width="0.232653" y="21.240671" id="rect53791"/>
        <rect height="8.4039173" ry="0.85456115" gorn="0.2.7" width="8.4039173" style="paint-order:fill markers stroke" x="2.1240671" rx="1.1316133" fill-opacity="1" fill="#9d3327"  stroke-width="0.232653" y="31.3069" id="rect53793"/>
        <rect height="8.4039173" ry="0.85456115" gorn="0.2.8" width="8.4039173" style="paint-order:fill markers stroke" x="15.514926" rx="1.1316133" fill-opacity="1" fill="#9d3327"  stroke-width="0.232653" y="31.122198" id="rect53795"/>
        <rect height="8.4039173" ry="0.85456115" gorn="0.2.9" width="8.4039173" style="paint-order:fill markers stroke" x="2.1240671" rx="1.1316133" fill-opacity="1" fill="#9d3327"  stroke-width="0.232653" y="41.188431" id="rect53797"/>
        <rect height="8.4039173" ry="0.85456115" gorn="0.2.10" width="8.4039173" style="paint-order:fill markers stroke" x="15.514925" rx="1.1316133" fill-opacity="1" fill="#9d3327"  stroke-width="0.232653" y="41.188431" id="rect53799"/>
        <rect height="7.2957091" ry="0.85456115" gorn="0.2.11" width="6.9263062" style="paint-order:fill markers stroke" x="2.8791986" rx="1.1316133" fill-opacity="1" fill="#d9311d"  stroke-width="0.251604" y="2.3358173" id="rect54129"/>
        <rect height="7.2957091" ry="0.85456115" gorn="0.2.12" width="6.9263062" style="paint-order:fill markers stroke" x="16.270058" rx="1.1316133" fill-opacity="1" fill="#d9311d"  stroke-width="0.251604" y="2.3358173" id="rect54131"/>
        <rect height="7.2957091" ry="0.85456115" gorn="0.2.13" width="6.9263062" style="paint-order:fill markers stroke" x="16.270058" rx="1.1316133" fill-opacity="1" fill="#d9311d"  stroke-width="0.251604" y="11.894119" id="rect54133"/>
        <rect height="7.2957091" ry="0.85456115" gorn="0.2.14" width="6.9263062" style="paint-order:fill markers stroke" x="16.270058" rx="1.1316133" fill-opacity="1" fill="#d9311d"  stroke-width="0.251604" y="21.775648" id="rect54135"/>
        <rect height="7.2957091" ry="0.85456115" gorn="0.2.15" width="6.9263062" style="paint-order:fill markers stroke" x="16.270058" rx="1.1316133" fill-opacity="1" fill="#d9311d"  stroke-width="0.251604" y="31.841879" id="rect54137"/>
        <rect height="7.2957091" ry="0.85456115" gorn="0.2.16" width="6.9263062" style="paint-order:fill markers stroke" x="16.270058" rx="1.1316133" fill-opacity="1" fill="#d9311d"  stroke-width="0.251604" y="41.815758" id="rect54141"/>
        <rect height="7.2957091" ry="0.85456115" gorn="0.2.17" width="6.9263062" style="paint-order:fill markers stroke" x="2.9253747" rx="1.1316133" fill-opacity="1" fill="#d9311d"  stroke-width="0.251604" y="11.894119" id="rect54143"/>
        <rect height="7.2957091" ry="0.85456115" gorn="0.2.18" width="6.9263062" style="paint-order:fill markers stroke" x="2.833024" rx="1.1316133" fill-opacity="1" fill="#d9311d"  stroke-width="0.251604" y="21.775648" id="rect54145"/>
        <rect height="7.2957091" ry="0.85456115" gorn="0.2.19" width="6.9263062" style="paint-order:fill markers stroke" x="2.833024" rx="1.1316133" fill-opacity="1" fill="#d9311d"  stroke-width="0.251604" y="31.841879" id="rect54147"/>
        <rect height="7.2957091" ry="0.85456115" gorn="0.2.20" width="6.9263062" style="paint-order:fill markers stroke" x="2.833024" rx="1.1316133" fill-opacity="1" fill="#d9311d"  stroke-width="0.251604" y="41.815758" id="rect54149"/>
        <g transform="translate(-25.537868,-237.60788)" >
            <g >
                <g gorn="0.2.21.0.0"  id="g8921">
                    <ellipse ry="0.58468193" gorn="0.2.21.0.0.0" cx="26.517391" rx="0.59058797" cy="254.12924" fill-opacity="1" fill="#aaaaaa"  stroke-width="0.0628086" id="ellipse8917"/>
                    <ellipse ry="0.40159971" gorn="0.2.21.0.0.1" cx="26.505581" rx="0.40159994" cy="254.11742" fill-opacity="1" fill="#ffffff"  stroke-width="0.042925" id="connector0pin"/>
                </g>
            </g>
        </g>
        <g transform="translate(-25.537868,-235.0611)" >
            <g >
                <g gorn="0.2.22.0.0"  id="g54187">
                    <ellipse ry="0.58468193" gorn="0.2.22.0.0.0" cx="26.517391" rx="0.59058797" cy="254.12924" fill-opacity="1" fill="#aaaaaa"  stroke-width="0.0628086" id="ellipse54183"/>
                    <ellipse ry="0.40159971" gorn="0.2.22.0.0.1" cx="26.505581" rx="0.40159994" cy="254.11742" fill-opacity="1" fill="#ffffff"  stroke-width="0.042925" id="connector1pin"/>
                </g>
            </g>
        </g>
        <g transform="translate(-25.537868,-232.38373)" >
            <g >
                <g gorn="0.2.23.0.0"  id="g54193">
                    <ellipse ry="0.58468193" gorn="0.2.23.0.0.0" cx="26.517391" rx="0.59058797" cy="254.12924" fill-opacity="1" fill="#aaaaaa"  stroke-width="0.0628086" id="ellipse54189"/>
                    <ellipse ry="0.40159971" gorn="0.2.23.0.0.1" cx="26.505581" rx="0.40159994" cy="254.11742" fill-opacity="1" fill="#ffffff"  stroke-width="0.042925" id="connector2pin"/>
                </g>
            </g>
        </g>
        <g transform="translate(-25.537868,-229.77165)" >
            <g >
                <g gorn="0.2.24.0.0"  id="g54199">
                    <ellipse ry="0.58468193" gorn="0.2.24.0.0.0" cx="26.517391" rx="0.59058797" cy="254.12924" fill-opacity="1" fill="#aaaaaa"  stroke-width="0.0628086" id="ellipse54195"/>
                    <ellipse ry="0.40159971" gorn="0.2.24.0.0.1" cx="26.505581" rx="0.40159994" cy="254.11742" fill-opacity="1" fill="#ffffff"  stroke-width="0.042925" id="connector3pin"/>
                </g>
            </g>
        </g>
        <g transform="translate(-25.537868,-227.29019)" >
            <g >
                <g gorn="0.2.25.0.0"  id="g54205">
                    <ellipse ry="0.58468193" gorn="0.2.25.0.0.0" cx="26.517391" rx="0.59058797" cy="254.12924" fill-opacity="1" fill="#aaaaaa"  stroke-width="0.0628086" id="ellipse54201"/>
                    <ellipse ry="0.40159971" gorn="0.2.25.0.0.1" cx="26.505581" rx="0.40159994" cy="254.11742" fill-opacity="1" fill="#ffffff"  stroke-width="0.042925" id="connector4pin"/>
                </g>
            </g>
        </g>
        <g transform="translate(-25.499615,-224.53562)" >
            <g >
                <g gorn="0.2.26.0.0"  id="g54211">
                    <ellipse ry="0.58468193" gorn="0.2.26.0.0.0" cx="26.517391" rx="0.59058797" cy="254.12924" fill-opacity="1" fill="#aaaaaa"  stroke-width="0.0628086" id="ellipse54207"/>
                    <ellipse ry="0.40159971" gorn="0.2.26.0.0.1" cx="26.505581" rx="0.40159994" cy="254.11742" fill-opacity="1" fill="#ffffff"  stroke-width="0.042925" id="connector5pin"/>
                </g>
            </g>
        </g>
        <g transform="translate(-25.499615,-222.03175)" >
            <g >
                <g gorn="0.2.27.0.0"  id="g54217">
                    <ellipse ry="0.58468193" gorn="0.2.27.0.0.0" cx="26.517391" rx="0.59058797" cy="254.12924" fill-opacity="1" fill="#aaaaaa"  stroke-width="0.0628086" id="ellipse54213"/>
                    <ellipse ry="0.40159971" gorn="0.2.27.0.0.1" cx="26.505581" rx="0.40159994" cy="254.11742" fill-opacity="1" fill="#ffffff"  stroke-width="0.042925" id="connector6pin"/>
                </g>
            </g>
        </g>
        <g transform="translate(-25.407264,-219.64987)" >
            <g >
                <g gorn="0.2.28.0.0"  id="g54223">
                    <g transform="translate(-0.09235075,0.27705226)" >
                        <g >
                            <g gorn="0.2.28.0.0.0.0.0"  id="g54231">
                                <ellipse ry="0.58468193" gorn="0.2.28.0.0.0.0.0.0" cx="26.517391" rx="0.59058797" cy="254.12924" fill-opacity="1" fill="#aaaaaa"  stroke-width="0.0628086" id="ellipse54219"/>
                                <g gorn="0.2.28.0.0.0.0.0.1"  id="g54226">
                                    <ellipse ry="0.40159971" gorn="0.2.28.0.0.0.0.0.1.0" cx="26.505581" rx="0.40159994" cy="254.11742" fill-opacity="1" fill="#ffffff"  stroke-width="0.042925" id="connector7pin"/>
                                </g>
                            </g>
                        </g>
                    </g>
                </g>
            </g>
        </g>
        <g transform="translate(-1.9639041,-237.60788)" >
            <g >
                <g gorn="0.2.29.0.0"  id="g54237">
                    <ellipse ry="0.58468193" gorn="0.2.29.0.0.0" cx="26.517391" rx="0.59058797" cy="254.12924" fill-opacity="1" fill="#aaaaaa"  stroke-width="0.0628086" id="ellipse54233"/>
                    <ellipse ry="0.40159971" gorn="0.2.29.0.0.1" cx="26.505581" rx="0.40159994" cy="254.11742" fill-opacity="1" fill="#ffffff"  stroke-width="0.042925" id="connector15pin"/>
                </g>
            </g>
        </g>
        <g transform="translate(-1.9639041,-235.0611)" >
            <g >
                <g gorn="0.2.30.0.0"  id="g54243">
                    <ellipse ry="0.58468193" gorn="0.2.30.0.0.0" cx="26.517391" rx="0.59058797" cy="254.12924" fill-opacity="1" fill="#aaaaaa"  stroke-width="0.0628086" id="ellipse54239"/>
                    <ellipse ry="0.40159971" gorn="0.2.30.0.0.1" cx="26.505581" rx="0.40159994" cy="254.11742" fill-opacity="1" fill="#ffffff"  stroke-width="0.042925" id="connector14pin"/>
                </g>
            </g>
        </g>
        <g transform="translate(-1.8986023,-232.38373)" >
            <g >
                <g gorn="0.2.31.0.0"  id="g54249">
                    <ellipse ry="0.58468193" gorn="0.2.31.0.0.0" cx="26.517391" rx="0.59058797" cy="254.12924" fill-opacity="1" fill="#aaaaaa"  stroke-width="0.0628086" id="ellipse54245"/>
                    <ellipse ry="0.40159971" gorn="0.2.31.0.0.1" cx="26.505581" rx="0.40159994" cy="254.11742" fill-opacity="1" fill="#ffffff"  stroke-width="0.042925" id="connector13pin"/>
                </g>
            </g>
        </g>
        <g transform="translate(-1.8333004,-227.29019)" >
            <g >
                <g gorn="0.2.32.0.0"  id="g54255">
                    <ellipse ry="0.58468193" gorn="0.2.32.0.0.0" cx="26.517391" rx="0.59058797" cy="254.12924" fill-opacity="1" fill="#aaaaaa"  stroke-width="0.0628086" id="ellipse54251"/>
                    <ellipse ry="0.40159971" gorn="0.2.32.0.0.1" cx="26.505581" rx="0.40159994" cy="254.11742" fill-opacity="1" fill="#ffffff"  stroke-width="0.042925" id="connector11pin"/>
                </g>
            </g>
        </g>
        <g transform="translate(-1.8986023,-229.77165)" >
            <g >
                <g gorn="0.2.33.0.0"  id="g54261">
                    <ellipse ry="0.58468193" gorn="0.2.33.0.0.0" cx="26.517391" rx="0.59058797" cy="254.12924" fill-opacity="1" fill="#aaaaaa"  stroke-width="0.0628086" id="ellipse54257"/>
                    <ellipse ry="0.40159971" gorn="0.2.33.0.0.1" cx="26.505581" rx="0.40159994" cy="254.11742" fill-opacity="1" fill="#ffffff"  stroke-width="0.042925" id="connector12pin"/>
                </g>
            </g>
        </g>
        <g transform="translate(0,0.04733559)" >
            <g >
                <g gorn="0.2.34.0.0"  id="g306">
                    <g transform="translate(-1.9256511,-224.53562)" >
                        <g >
                            <g gorn="0.2.34.0.0.0.0.0"  id="g54267">
                                <ellipse ry="0.58468193" gorn="0.2.34.0.0.0.0.0.0" cx="26.517391" rx="0.59058797" cy="254.12924" fill-opacity="1" fill="#aaaaaa"  stroke-width="0.0628086" id="ellipse54263"/>
                                <ellipse ry="0.40159971" gorn="0.2.34.0.0.0.0.0.1" cx="26.505581" rx="0.40159994" cy="254.11742" fill-opacity="1" fill="#ffffff"  stroke-width="0.042925" id="connector10pin"/>
                            </g>
                        </g>
                    </g>
                    <g transform="translate(-1.990953,-222.03175)" >
                        <g >
                            <g gorn="0.2.34.0.0.1.0.0"  id="g54273">
                                <ellipse ry="0.58468193" gorn="0.2.34.0.0.1.0.0.0" cx="26.517391" rx="0.59058797" cy="254.12924" fill-opacity="1" fill="#aaaaaa"  stroke-width="0.0628086" id="ellipse54269"/>
                                <ellipse ry="0.40159971" gorn="0.2.34.0.0.1.0.0.1" cx="26.505581" rx="0.40159994" cy="254.11742" fill-opacity="1" fill="#ffffff"  stroke-width="0.042925" id="connector9pin"/>
                            </g>
                        </g>
                    </g>
                    <g transform="translate(-1.8333001,-219.64987)" >
                        <g >
                            <g gorn="0.2.34.0.0.2.0.0"  id="g54283">
                                <g transform="translate(-0.09235075,0.27705226)" >
                                    <g >
                                        <g gorn="0.2.34.0.0.2.0.0.0.0.0"  id="g54281">
                                            <ellipse ry="0.58468193" gorn="0.2.34.0.0.2.0.0.0.0.0.0" cx="26.517391" rx="0.59058797" cy="254.12924" fill-opacity="1" fill="#aaaaaa"  stroke-width="0.0628086" id="ellipse54275"/>
                                            <g gorn="0.2.34.0.0.2.0.0.0.0.0.1"  id="g54279">
                                                <ellipse ry="0.40159971" gorn="0.2.34.0.0.2.0.0.0.0.0.1.0" cx="26.505581" rx="0.40159994" cy="254.11742" fill-opacity="1" fill="#ffffff"  stroke-width="0.042925" id="connector8pin"/>
                                            </g>
                                        </g>
                                    </g>
                                </g>
                            </g>
                        </g>
                    </g>
                </g>
            </g>
        </g>
        <g transform="matrix(0,1,1,0,-42.883053,-4.8787835)" >
            <g >
                <g gorn="0.2.35.0.0"  id="g5045">
                    <path gorn="0.2.35.0.0.0" style="stroke-miterlimit:4;stroke-dasharray:none;" stroke="#000000" fill-opacity="1" fill="#f0ab3d"  stroke-width="0" stroke-opacity="1" id="path5037" d="m 12.257548,43.256554 h 1.124939 V 44.2074 h -1.124939 z"/>
                    <path gorn="0.2.35.0.0.1" style="stroke-miterlimit:4;stroke-dasharray:none;" stroke="#000000" fill-opacity="1" fill="#f0ab3d"  stroke-width="0" stroke-opacity="1" id="path5039" d="m 13.74537,43.256554 h 1.124938 V 44.2074 H 13.74537 Z"/>
                    <path gorn="0.2.35.0.0.2" style="stroke-miterlimit:4;stroke-dasharray:none;" stroke="#000000" fill-opacity="1" fill="#8c8c8c"  stroke-width="0" stroke-opacity="1" id="path5041" d="m 12.46329,43.377476 h 2.155002 v 0.679759 H 12.46329 Z"/>
                    <path gorn="0.2.35.0.0.3" style="stroke-miterlimit:4;stroke-dasharray:none;" stroke="#000000" fill-opacity="1" fill="#ffffff"  stroke-width="0" stroke-opacity="1" id="path5043" d="m 12.90046,43.377476 h 1.244651 v 0.679759 H 12.90046 Z"/>
                </g>
            </g>
        </g>
        <g transform="matrix(0.9999956,0.00296599,-0.00389315,0.99999242,0,0)" >
            <g >
                <rect height="0.47584558" gorn="0.2.36.0.0" width="0.52104717" x="0.64930815" fill-opacity="1" fill="#000000"  stroke-width="0.142707" y="10.620742" id="rect8300-8-2-8"/>
            </g>
        </g>
        <g transform="scale(0.99694845,1.0030609)" >
            <g >
                <g gorn="0.2.37.0.0" font-size="1.99124" style="font-style:normal;font-weight:normal;line-height:1.25;font-family:Droid Sans;letter-spacing:0px;word-spacing:0px;" xmlns:xml="http://www.w3.org/XML/1998/namespace" stroke="none" fill-opacity="1" xml:space="preserve" fill="#000000"  stroke-width="0.368951" id="text11737-6-5-3-1-21-35-3">
                    <text gorn="0.2.37.0.0.0" font-size="1.99124" x="2.7144928" fill="#ffffff"  stroke-width="0.368951" y="40.861195" id="tspan11735-1-6-1-1-81-8-9">Dokunmatik Tuş Takımı</text>
                </g>
            </g>
        </g>
        <g gorn="0.2.38" font-size="1.19474" style="font-style:normal;font-weight:normal;line-height:1.25;font-family:Droid Sans;letter-spacing:0px;word-spacing:0px;" xmlns:xml="http://www.w3.org/XML/1998/namespace" stroke="none" fill-opacity="1" xml:space="preserve" fill="#000000"  stroke-width="0.264583" id="text11737-6-5-3-1-0-7-8-9">
            <text gorn="0.2.38.0" font-size="1.19474" x="0.47016996" style="font-style:normal;font-variant:normal;font-weight:bold;font-stretch:normal;font-family:Droid Sans;-inkscape-font-specification:'Droid Sans Bold';" fill="#ffffff"  stroke-width="0.264583" y="7.0051889" id="tspan11735-1-6-1-1-1-6-7-0">GÜÇ</text>
        </g>
        <g transform="scale(1.0201259,0.98027114)" >
            <g >
                <g gorn="0.2.39.0.0" font-size="2.72969" style="font-style:normal;font-weight:normal;line-height:1.25;font-family:Droid Sans;letter-spacing:0px;word-spacing:0px;" xmlns:xml="http://www.w3.org/XML/1998/namespace" stroke="none" fill-opacity="1" xml:space="preserve" fill="#000000"  stroke-width="0.453382" id="text54579">
                    <text gorn="0.2.39.0.0.0" font-size="2.72969" x="16.343821" fill="#ffffff"  stroke-width="0.453382" y="15.72236" id="tspan54577">3</text>
                </g>
            </g>
        </g>
        <g transform="scale(1.0201259,0.98027114)" >
            <g >
                <g gorn="0.2.40.0.0" font-size="2.72969" style="font-style:normal;font-weight:normal;line-height:1.25;font-family:Droid Sans;letter-spacing:0px;word-spacing:0px;" xmlns:xml="http://www.w3.org/XML/1998/namespace" stroke="none" fill-opacity="1" xml:space="preserve" fill="#000000"  stroke-width="0.453382" id="text54583">
                    <text gorn="0.2.40.0.0.0" font-size="2.72969" x="16.343821" fill="#ffffff"  stroke-width="0.453382" y="6.4898381" id="tspan54581">1</text>
                </g>
            </g>
        </g>
        <g transform="scale(1.0201259,0.98027114)" >
            <g >
                <g gorn="0.2.41.0.0" font-size="2.72969" style="font-style:normal;font-weight:normal;line-height:1.25;font-family:Droid Sans;letter-spacing:0px;word-spacing:0px;" xmlns:xml="http://www.w3.org/XML/1998/namespace" stroke="none" fill-opacity="1" xml:space="preserve" fill="#000000"  stroke-width="0.453382" id="text54587">
                    <text gorn="0.2.41.0.0.0" font-size="2.72969" x="2.7645085" fill="#ffffff"  stroke-width="0.453382" y="6.4898381" id="tspan54585">0</text>
                </g>
            </g>
        </g>
        <g transform="scale(1.0201259,0.98027114)" >
            <g >
                <g gorn="0.2.42.0.0" font-size="2.72969" style="font-style:normal;font-weight:normal;line-height:1.25;font-family:Droid Sans;letter-spacing:0px;word-spacing:0px;" xmlns:xml="http://www.w3.org/XML/1998/namespace" stroke="none" fill-opacity="1" xml:space="preserve" fill="#000000"  stroke-width="0.453382" id="text54591">
                    <text gorn="0.2.42.0.0.0" font-size="2.72969" x="2.7645085" fill="#ffffff"  stroke-width="0.453382" y="16.146299" id="tspan54589">2</text>
                </g>
            </g>
        </g>
        <g transform="scale(1.0201259,0.98027114)" >
            <g >
                <g gorn="0.2.43.0.0" font-size="2.72969" style="font-style:normal;font-weight:normal;line-height:1.25;font-family:Droid Sans;letter-spacing:0px;word-spacing:0px;" xmlns:xml="http://www.w3.org/XML/1998/namespace" stroke="none" fill-opacity="1" xml:space="preserve" fill="#000000"  stroke-width="0.453382" id="text54595">
                    <text gorn="0.2.43.0.0.0" font-size="2.72969" x="2.7645085" fill="#ffffff"  stroke-width="0.453382" y="26.226706" id="tspan54593">4</text>
                </g>
            </g>
        </g>
        <g transform="scale(1.0201259,0.98027114)" >
            <g >
                <g gorn="0.2.44.0.0" font-size="2.72969" style="font-style:normal;font-weight:normal;line-height:1.25;font-family:Droid Sans;letter-spacing:0px;word-spacing:0px;" xmlns:xml="http://www.w3.org/XML/1998/namespace" stroke="none" fill-opacity="1" xml:space="preserve" fill="#000000"  stroke-width="0.453382" id="text54599">
                    <text gorn="0.2.44.0.0.0" font-size="2.72969" x="16.434353" fill="#ffffff"  stroke-width="0.453382" y="26.226706" id="tspan54597">5</text>
                </g>
            </g>
        </g>
        <g transform="scale(1.0201259,0.98027115)" >
            <g >
                <g gorn="0.2.45.0.0" font-size="2.72969" style="font-style:normal;font-weight:normal;line-height:1.25;font-family:Droid Sans;letter-spacing:0px;word-spacing:0px;" xmlns:xml="http://www.w3.org/XML/1998/namespace" stroke="none" fill-opacity="1" xml:space="preserve" fill="#000000"  stroke-width="0.453382" id="text54603">
                    <text gorn="0.2.45.0.0.0" font-size="2.72969" x="2.8097727" fill="#ffffff"  stroke-width="0.453382" y="38.285507" id="tspan54601">6</text>
                </g>
            </g>
        </g>
        <g transform="scale(1.0201259,0.98027114)" >
            <g >
                <g gorn="0.2.46.0.0" font-size="2.72969" style="font-style:normal;font-weight:normal;line-height:1.25;font-family:Droid Sans;letter-spacing:0px;word-spacing:0px;" xmlns:xml="http://www.w3.org/XML/1998/namespace" stroke="none" fill-opacity="1" xml:space="preserve" fill="#000000"  stroke-width="0.453382" id="text54607">
                    <text gorn="0.2.46.0.0.0" font-size="2.72969" x="16.389088" fill="#ffffff"  stroke-width="0.453382" y="36.589737" id="tspan54605">7</text>
                </g>
            </g>
        </g>
        <g transform="scale(1.0201259,0.98027114)" >
            <g >
                <g gorn="0.2.47.0.0" font-size="2.72969" style="font-style:normal;font-weight:normal;line-height:1.25;font-family:Droid Sans;letter-spacing:0px;word-spacing:0px;" xmlns:xml="http://www.w3.org/XML/1998/namespace" stroke="none" fill-opacity="1" xml:space="preserve" fill="#000000"  stroke-width="0.453382" id="text54611">
                    <text gorn="0.2.47.0.0.0" font-size="2.72969" x="2.7645085" fill="#ffffff"  stroke-width="0.453382" y="46.387516" id="tspan54609">8</text>
                </g>
            </g>
        </g>
        <g transform="scale(1.0201259,0.98027114)" >
            <g >
                <g gorn="0.2.48.0.0" font-size="2.72969" style="font-style:normal;font-weight:normal;line-height:1.25;font-family:Droid Sans;letter-spacing:0px;word-spacing:0px;" xmlns:xml="http://www.w3.org/XML/1998/namespace" stroke="none" fill-opacity="1" xml:space="preserve" fill="#000000"  stroke-width="0.453382" id="text54615">
                    <text gorn="0.2.48.0.0.0" font-size="2.72969" x="16.343821" fill="#ffffff"  stroke-width="0.453382" y="46.387516" id="tspan54613">9</text>
                </g>
            </g>
        </g>
        <ellipse ry="1.3344948" gorn="0.2.49" rx="1.4251096" cx="1.7958007" cy="1.5998976" fill-opacity="1" fill="#ffffff"  stroke-width="0.291268" id="path7858-8-0"/>
        <ellipse ry="1.3344948" gorn="0.2.50" rx="1.4251096" cx="23.641792" cy="49.03825" fill-opacity="1" fill="#ffffff"  stroke-width="0.291268" id="path7858-8-0-1"/>
        <g transform="translate(0.12324821,6.8220144)" >
            <g >
                <g gorn="0.2.51.0.0"  id="g7369">
                    <g transform="translate(-0.13060368,0.88157488)" >
                        <g >
                            <g gorn="0.2.51.0.0.0.0.0"  id="g3317">
                                <g transform="matrix(0.02292774,0,0,0.02292774,10.829897,-0.33845521)" >
                                    <g >
                                        <path gorn="0.2.51.0.0.0.0.0.0.0.0" style="fill-rule:nonzero;" stroke="#ffffff" fill-opacity="1" fill="#ffffff"  stroke-width="0.264583" stroke-opacity="1" clip-path="url(#clipath_lpe_path-effect20916-5)" id="path4534-2-0" d="m -265.60347,87.160124 c -0.0573,12.203245 -0.17188,36.609496 -0.20768,49.600406 -0.0358,12.99092 0.007,14.56641 0.0788,15.56904 0.0716,1.00263 0.1719,1.43229 0.32696,1.91377 0.15506,0.48148 0.36486,1.01469 0.5204,1.40791 0.15554,0.39321 0.25682,0.6464 0.3733,0.90974 0.11649,0.26333 0.24815,0.53677 0.38995,0.83048 0.14179,0.29371 0.2937,0.60766 0.4507,0.9039 0.157,0.29625 0.31903,0.57475 0.5064,0.88871 0.18737,0.31397 0.40005,0.66338 0.67353,1.04316 0.27347,0.37978 0.60769,0.78995 0.84471,1.09466 0.23703,0.30472 0.37686,0.50394 0.55466,0.68498 0.17779,0.18104 0.39282,0.34347 0.55503,0.45557 0.16222,0.1121 0.26979,0.17264 0.36503,0.27771 0.0952,0.10507 0.178,0.25437 0.29076,0.36572 0.11276,0.11134 0.2553,0.18483 0.40255,0.28999 0.14724,0.10516 0.29915,0.24188 0.48779,0.39758 0.18864,0.1557 0.41398,0.3304 0.66212,0.5203 0.24814,0.18991 0.51905,0.39499 0.71274,0.53549 0.19368,0.1405 0.31016,0.21647 0.59769,0.38091 0.28753,0.16444 0.74605,0.41735 1.19734,0.65122 0.45128,0.23388 0.89529,0.44872 1.28559,0.60624 0.3903,0.15752 0.72688,0.25777 1.07422,0.37237 0.34734,0.1146 0.7054,0.2435 1.05632,0.34732 0.35092,0.10382 0.69465,0.1826 1.05043,0.23287 0.35578,0.0503 0.72361,0.0721 1.28265,0.10093 0.55904,0.0288 1.30922,0.0646 1.97395,0.10026 0.66472,0.0356 1.24392,0.0711 1.85221,0.0924 0.6083,0.0213 1.24565,0.0284 6.54396,0.003 5.29831,-0.0255 15.25717,-0.0836 21.15836,-0.13299 5.90119,-0.0493 7.7444,-0.0899 9.24332,-0.18101 1.49891,-0.0912 2.65347,-0.23296 4.06124,-0.47604 1.40777,-0.24307 3.06871,-0.58742 4.67903,-0.99254 1.61032,-0.40512 3.16998,-0.87099 4.77019,-1.40777 1.6002,-0.53678 3.24086,-1.14443 4.98285,-1.95467 1.74199,-0.81023 3.58521,-1.82299 5.29681,-2.85604 1.7116,-1.03304 3.29151,-2.08631 5.05375,-3.48397 1.76224,-1.39765 3.70674,-3.13961 5.38796,-4.80057 1.68121,-1.66096 3.09908,-3.24087 4.42583,-4.94234 1.32675,-1.70147 2.56231,-3.52442 3.65106,-5.33732 1.08876,-1.8129 2.0306,-3.61555 2.76995,-5.32717 0.73935,-1.71162 1.27611,-3.33204 1.81795,-4.97276 0.54184,-1.64072 1.08872,-3.30162 1.50398,-5.01323 0.41526,-1.71161 0.69884,-3.47383 0.87102,-5.31709 0.17219,-1.84326 0.23296,-3.7675 0.27561,-5.27681 0.0427,-1.50932 0.0672,-2.60358 0.0171,-4.22079 -0.0501,-1.61722 -0.17477,-3.75714 -0.57753,-6.09182 -0.40276,-2.33468 -1.08359,-4.86384 -1.6675,-6.887577 -0.58391,-2.023736 -1.07088,-3.541953 -1.70106,-5.060196 -0.63018,-1.518244 -1.40361,-3.036447 -2.22001,-4.526039 -0.8164,-1.489592 -1.67577,-2.950522 -2.22002,-3.831384 -0.54425,-0.880863 -0.77341,-1.181639 -1.0026,-1.518228 -0.22919,-0.336589 -0.45834,-0.708973 -0.76627,-1.152993 -0.30793,-0.44402 -0.69465,-0.959633 -1.01692,-1.389325 -0.32227,-0.429692 -0.58007,-0.773444 -1.00259,-1.296239 -0.42252,-0.522794 -1.00976,-1.224608 -1.61131,-1.890638 -0.60156,-0.66603 -1.21743,-1.296221 -1.83878,-1.892441 -0.62135,-0.596219 -1.24816,-1.158405 -1.80211,-1.657255 -0.55395,-0.49885 -1.03501,-0.934338 -1.76928,-1.54456 -0.73428,-0.610223 -1.72172,-1.39511 -2.41294,-1.919247 -0.69123,-0.524138 -1.0862,-0.787455 -1.86605,-1.29386 -0.77985,-0.506406 -1.94453,-1.255853 -2.81047,-1.792643 -0.86594,-0.53679 -1.43307,-0.860864 -2.00023,-1.169769 -0.56716,-0.308906 -1.13431,-0.602604 -2.02051,-1.017861 -0.8862,-0.415258 -2.09137,-0.952022 -3.12443,-1.372348 -1.03306,-0.420327 -1.8939,-0.724145 -2.51677,-0.941897 -0.62287,-0.217752 -1.00771,-0.349413 -1.53943,-0.511475 -0.53172,-0.162061 -1.21027,-0.35449 -1.79263,-0.521602 -0.58236,-0.167113 -1.06848,-0.308898 -1.63564,-0.455761 -0.56717,-0.146863 -1.21534,-0.298776 -1.70147,-0.410179 -0.48613,-0.111404 -0.81023,-0.182297 -1.21535,-0.258264 -0.40512,-0.07597 -0.89127,-0.156996 -1.64074,-0.263347 -0.74947,-0.106352 -1.76222,-0.23801 -2.85308,-0.355718 -1.09086,-0.117707 -2.25971,-0.22144 -8.90313,-0.25067 -6.64343,-0.02923 -18.76088,0.01607 -25.21361,0.0602 -6.45272,0.04413 -7.24047,0.0871 -8.08643,0.195738 -0.84595,0.108639 -1.75001,0.282964 -2.48052,0.479645 -0.73052,0.196681 -1.28737,0.415721 -1.82956,0.657987 -0.54219,0.242265 -1.06968,0.507753 -1.56383,0.776561 -0.49415,0.268809 -0.95494,0.540942 -1.37872,0.827407 -0.42378,0.286464 -0.81049,0.587241 -1.15425,0.866548 -0.34376,0.279308 -0.64453,0.537119 -1.06707,0.916689 -0.42254,0.37957 -0.96679,0.880847 -1.4538,1.446646 -0.48701,0.565798 -0.91669,1.195993 -1.33922,1.833381 -0.42254,0.637389 -0.83789,1.281885 -1.21745,1.969413 -0.37957,0.687528 -0.72332,1.41799 -0.93816,1.969476 -0.21484,0.551486 -0.30077,0.923862 -0.4082,1.317736 -0.10743,0.393874 -0.23634,0.809203 -0.3151,1.124357 -0.0788,0.315154 -0.10739,0.529961 -0.1217,0.637285 -0.0143,0.107325 -0.0144,0.107625 -0.0717,12.310869 z"/>
                                    </g>
                                </g>
                                <g transform="matrix(0.02292774,0,0,0.02292774,14.092611,-5.0905251)" >
                                    <g >
                                        <path gorn="0.2.51.0.0.0.0.0.1.0.0" style="fill-rule:nonzero;" stroke="#ffffff" fill-opacity="1" fill="#ffffff"  stroke-width="0.264583" stroke-opacity="1" id="path5552-1-3" d="m -269.96356,267.13774 c 10.01185,-0.043 30.0353,-0.1289 40.19026,-0.1432 10.15497,-0.0143 10.44143,0.043 10.84963,0.10386 0.40821,0.0609 0.93815,0.12531 1.4799,0.22368 0.54176,0.0984 1.09526,0.23058 1.53317,0.33967 0.43791,0.10909 0.7601,0.19501 0.97038,0.26145 0.21029,0.0664 0.30837,0.11321 0.42908,0.16526 0.12071,0.0521 0.26393,0.10934 0.4,0.16664 0.13608,0.0573 0.26497,0.11459 0.41369,0.18071 0.14873,0.0661 0.31728,0.14106 0.45693,0.21271 0.13966,0.0716 0.25039,0.13993 0.36662,0.21346 0.11624,0.0735 0.238,0.15231 0.35557,0.21674 0.11758,0.0644 0.23089,0.11455 0.40278,0.20767 0.17188,0.0931 0.40225,0.22918 0.57832,0.3402 0.17607,0.11102 0.29781,0.19696 0.4876,0.31869 0.18978,0.12173 0.44758,0.27928 0.64095,0.40462 0.19336,0.12535 0.32226,0.21844 0.46907,0.32228 0.14681,0.10383 0.31153,0.21841 0.46967,0.34927 0.15815,0.13085 0.30976,0.27791 0.44225,0.40683 0.13249,0.12891 0.24584,0.23966 0.49981,0.46017 0.25396,0.22051 0.6485,0.55079 1.0078,0.89826 0.35931,0.34747 0.68339,0.71206 0.95175,1.05136 0.26837,0.3393 0.48105,0.65326 0.68109,0.9343 0.20003,0.28105 0.3874,0.52918 0.58993,0.84315 0.20254,0.31397 0.42029,0.69377 0.56965,0.97482 0.14937,0.28105 0.23039,0.46334 0.35699,0.74186 0.1266,0.27852 0.29877,0.65324 0.44308,0.99759 0.14431,0.34436 0.26078,0.6583 0.37724,1.01278 0.11646,0.35448 0.23292,0.74946 0.32661,1.0533 0.0937,0.30385 0.16458,0.51651 0.23039,0.77983 0.0658,0.26332 0.12657,0.57728 0.18732,1.04822 0.0608,0.47094 0.12152,1.09886 0.16456,1.7597 0.043,0.66084 0.0684,1.35459 0.0684,1.85083 -10e-6,0.49625 -0.0253,0.79502 -0.0557,1.10898 -0.0304,0.31397 -0.0658,0.64311 -0.10888,1.06089 -0.043,0.41778 -0.0937,0.92416 -0.16712,1.36976 -0.0734,0.4456 -0.16965,0.83046 -0.28106,1.26089 -0.11141,0.43044 -0.238,0.90644 -0.39752,1.33937 -0.15952,0.43293 -0.35194,0.82285 -0.52918,1.16972 -0.17724,0.34688 -0.33928,0.65071 -0.51398,0.95707 -0.17471,0.30636 -0.36207,0.61525 -0.61954,1.05285 -0.25747,0.4376 -0.58502,1.00387 -1.36618,1.86227 -0.78115,0.85839 -2.01539,2.00844 -2.67462,2.60363 -0.65922,0.59519 -0.74255,0.63462 -0.84495,0.69822 -0.1024,0.0636 -0.2238,0.15134 -0.3378,0.23408 -0.114,0.0827 -0.22061,0.1605 -0.3549,0.24115 -0.13429,0.0806 -0.29633,0.16419 -0.4913,0.26927 -0.19498,0.10508 -0.42284,0.23168 -0.63299,0.34435 -0.21015,0.11267 -0.40257,0.21142 -0.57349,0.30131 -0.17092,0.0899 -0.32029,0.1709 -0.47599,0.24433 -0.1557,0.0734 -0.31774,0.13925 -0.50383,0.20762 -0.1861,0.0684 -0.39624,0.13925 -0.79503,0.27472 -0.39879,0.13546 -0.98619,0.33548 -1.6141,0.50639 -0.6279,0.17092 -1.29634,0.3127 -1.92424,0.39374 -0.6279,0.0811 -1.2153,0.10131 -1.94512,0.11385 -0.72982,0.0125 -1.60202,0.0173 -4.69107,0.0173 -3.08905,0 -8.39469,-0.005 -11.21975,-0.002 -2.82506,0.003 -3.1694,0.0128 -3.43274,0.033 -0.26334,0.0202 -0.44565,0.0506 -0.45066,0.0861 -0.005,0.0355 0.16715,0.076 0.42035,0.14184 0.25319,0.0658 0.58741,0.15698 0.896,0.24369 0.3086,0.0867 0.59156,0.16895 1.01188,0.31582 0.42031,0.14687 0.97794,0.35833 1.4623,0.55076 0.48435,0.19244 0.89539,0.36584 1.13846,0.4779 0.24307,0.11206 0.31813,0.16268 0.47215,0.25828 0.15403,0.0956 0.38696,0.23615 0.66547,0.42799 0.27851,0.19183 0.60259,0.43489 0.9672,0.70328 0.36461,0.26839 0.76972,0.56209 1.06402,0.79981 0.29431,0.23773 0.47783,0.41941 0.73103,0.67768 0.25319,0.25826 0.57605,0.59309 0.87167,0.92256 0.29561,0.32947 0.56399,0.65355 0.83238,0.99284 0.26838,0.3393 0.53677,0.69377 0.78235,1.06345 0.24558,0.36968 0.46838,0.75453 0.64054,1.07862 0.17215,0.32409 0.29368,0.58741 0.48106,0.96721 0.18738,0.3798 0.44056,0.87605 0.62157,1.29129 0.18101,0.41525 0.28988,0.74946 0.42406,1.27738 0.13418,0.52791 0.29369,1.24949 0.41649,1.81414 0.12281,0.56464 0.20889,0.97226 0.2595,1.38496 0.0506,0.4127 0.0658,0.83045 0.081,1.28369 0.0152,0.45324 0.0303,0.94189 0.0227,1.36851 -0.008,0.42662 -0.038,0.79122 -0.0633,1.16089 -0.0253,0.36967 -0.0456,0.74438 -0.0912,1.06844 -0.0456,0.32407 -0.1165,0.59753 -0.17726,0.87099 -0.0608,0.27347 -0.1114,0.54691 -0.16964,0.80516 -0.0582,0.25825 -0.12406,0.50129 -0.20003,0.71902 -0.076,0.21773 -0.16205,0.41016 -0.34688,0.88112 -0.18484,0.47096 -0.46842,1.22041 -0.78238,1.85843 -0.31395,0.63801 -0.6583,1.16465 -1.03302,1.68116 -0.37473,0.51651 -0.77983,1.02289 -1.23559,1.60018 -0.45576,0.5773 -0.96214,1.22546 -1.56978,1.80272 -0.60764,0.57726 -1.31657,1.08364 -1.89385,1.47356 -0.57728,0.38992 -1.02289,0.66336 -1.40773,0.87605 -0.38485,0.21268 -0.70893,0.36459 -1.02289,0.50638 -0.31396,0.14179 -0.61779,0.27345 -0.94694,0.40512 -0.32915,0.13166 -0.68361,0.26332 -0.99248,0.34941 -0.30887,0.0861 -0.57219,0.12661 -0.83554,0.18231 -0.26334,0.0557 -0.52665,0.12659 -0.77984,0.19242 -0.25319,0.0658 -0.49627,0.1266 -0.67349,0.16712 -0.17722,0.0405 -0.28864,0.0608 -0.20251,0.0861 0.0861,0.0254 0.36972,0.0557 0.6938,0.081 0.32408,0.0253 0.68868,0.0456 1.2204,0.0658 0.53172,0.0203 1.23052,0.0405 1.82806,0.0456 0.59755,0.005 1.09379,-0.005 1.55969,-0.005 0.46589,10e-6 0.90138,0.0101 3.46128,0.0135 2.55991,0.003 7.24405,-9e-5 9.77237,-0.002 2.52831,-0.002 2.9007,-0.002 3.21583,0.0341 0.31513,0.0358 0.57294,0.10746 0.90237,0.18623 0.32942,0.0788 0.73046,0.1647 1.13151,0.27214 0.40105,0.10744 0.80208,0.23635 1.22461,0.36525 0.42253,0.1289 0.86654,0.25781 1.23893,0.41182 0.3724,0.15402 0.67317,0.33305 1.00261,0.50491 0.32943,0.17186 0.6875,0.33658 0.96678,0.51209 0.27927,0.17551 0.47979,0.3617 0.84529,0.64216 0.3655,0.28045 0.89593,0.6552 1.37129,1.01983 0.47537,0.36463 0.89566,0.71909 1.28051,1.07358 0.38486,0.3545 0.73426,0.70896 1.07099,1.10903 0.33673,0.40007 0.66082,0.84569 0.99504,1.30145 0.33422,0.45576 0.67856,0.92163 1.01276,1.45841 0.33419,0.53679 0.65828,1.14445 0.91144,1.742 0.25316,0.59755 0.43546,1.18495 0.62789,1.82301 0.19242,0.63806 0.39498,1.32674 0.56712,2.18761 0.17215,0.86086 0.31394,1.89388 0.38482,2.75474 0.0709,0.86085 0.0709,1.54953 -4e-5,2.33949 -0.0709,0.78995 -0.2127,1.68118 -0.38489,2.43062 -0.17218,0.74944 -0.37473,1.35709 -0.65832,2.17746 -0.28358,0.82036 -0.64817,1.85338 -1.11405,2.73445 -0.46587,0.88107 -1.03302,1.61026 -1.66094,2.33946 -0.62792,0.72919 -1.3166,1.45838 -2.39615,2.35556 -1.07954,0.89718 -2.54992,1.96233 -3.75775,2.6811 -1.20783,0.71878 -2.15312,1.09117 -2.98381,1.33467 -0.8307,0.2435 -1.54683,0.35808 -2.54943,0.45835 -1.00261,0.10027 -2.29165,0.18621 -3.4518,0.20055 -1.16014,0.0143 -2.19138,-0.043 -12.06006,-0.0716 -9.86868,-0.0286 -28.57404,-0.0286 -38.07729,-0.043 -9.50324,-0.0143 -9.80402,-0.0429 -10.24933,-0.12335 -0.44531,-0.0804 -1.03513,-0.21264 -1.52211,-0.34869 -0.48699,-0.13605 -0.87109,-0.27595 -1.39258,-0.50344 -0.52148,-0.22749 -1.18033,-0.54258 -1.91081,-0.923 -0.73048,-0.38042 -1.53252,-0.82615 -2.16992,-1.23433 -0.63739,-0.40819 -1.11004,-0.77884 -1.45379,-1.04931 -0.34375,-0.27048 -0.55859,-0.44076 -0.84446,-0.70746 -0.28586,-0.2667 -0.6427,-0.62982 -0.96139,-0.96362 -0.31869,-0.33381 -0.59921,-0.63827 -0.876,-0.97651 -0.27679,-0.33825 -0.54978,-0.71026 -0.76359,-1.01278 -0.21381,-0.30253 -0.36838,-0.53552 -0.52447,-0.78914 -0.15608,-0.25362 -0.31363,-0.52784 -0.62027,-1.15168 -0.30665,-0.62385 -0.76234,-1.59724 -1.06619,-2.38781 -0.30384,-0.79056 -0.45575,-1.39821 -0.58149,-1.94339 -0.12574,-0.54517 -0.22528,-1.02781 -0.29953,-1.61587 -0.0743,-0.58806 -0.12317,-1.28143 -0.12406,-2.38713 -8.9e-4,-1.1057 0.0463,-2.62361 0.0648,-15.2577 0.0185,-12.63409 0.008,-36.38279 0.0854,-48.38763 0.077,-12.00483 0.24124,-12.26393 0.3598,-12.55457 0.11857,-0.29064 0.19146,-0.61288 0.28877,-0.90923 0.0973,-0.29634 0.21906,-0.56668 0.35334,-0.89521 0.13428,-0.32852 0.28109,-0.71522 0.46908,-1.11987 0.188,-0.40466 0.41715,-0.82717 0.93819,-1.61366 0.52105,-0.78649 1.3339,-1.93682 1.94386,-2.68127 0.60996,-0.74444 1.01691,-1.08285 1.40269,-1.41916 0.38578,-0.33632 0.75037,-0.67052 1.12629,-0.98363 0.37593,-0.31311 0.76313,-0.60507 1.20878,-0.9033 0.44564,-0.29822 0.94967,-0.60266 1.58659,-0.91484 0.63691,-0.31218 1.40659,-0.63206 2.10038,-0.88316 0.6938,-0.25111 1.31156,-0.4334 1.97139,-0.58531 0.65983,-0.15192 1.36161,-0.27345 1.79206,-0.33687 0.43045,-0.0634 0.58952,-0.0688 0.7483,-0.0888 0.15879,-0.0201 0.31736,-0.0549 0.39911,-0.0594 0.0817,-0.005 0.0868,0.0208 0.0893,0.0333 0.003,0.0125 0.003,0.0125 10.01441,-0.0305 z"/>
                                    </g>
                                </g>
                                <g transform="matrix(0.02292774,0,0,0.02292774,14.092611,-5.0905251)" >
                                    <g >
                                        <path gorn="0.2.51.0.0.0.0.0.2.0.0" style="fill-rule:evenodd;" stroke="#ffffff" fill-opacity="1" fill="#ffffff"  stroke-width="0.264583" stroke-opacity="1" id="path5573-7-3" d="m -161.68772,278.25656 c 6.99862,6.69303 20.9956,20.07883 28.0329,26.9051 7.0373,6.82627 7.11583,7.09547 7.14269,2.40051 0.0268,-4.69496 0.002,-14.35244 0.001,-19.42834 -0.001,-5.07591 0.0201,-5.57002 0.0523,-5.94602 0.0322,-0.376 0.0752,-0.63382 0.14323,-0.97042 0.068,-0.33661 0.16112,-0.75194 0.25063,-1.13151 0.0895,-0.37958 0.17545,-0.7233 0.30436,-1.1029 0.12891,-0.3796 0.30078,-0.79494 0.47266,-1.1781 0.17188,-0.38315 0.34375,-0.73406 0.64096,-1.27119 0.29721,-0.53714 0.71972,-1.26043 1.03842,-1.75817 0.31869,-0.49775 0.53353,-0.76988 0.79494,-1.07068 0.26141,-0.30081 0.56933,-0.63021 0.88444,-0.97038 0.31511,-0.34018 0.63738,-0.69109 1.01337,-1.05275 0.37599,-0.36167 0.80567,-0.73407 1.25328,-1.09573 0.44761,-0.36167 0.91308,-0.71256 1.37145,-1.01693 0.45836,-0.30438 0.90952,-0.56218 1.33923,-0.78777 0.42971,-0.2256 0.8379,-0.41896 1.27477,-0.60874 0.43686,-0.18978 0.90235,-0.37598 1.34637,-0.54069 0.44402,-0.16471 0.86655,-0.30794 1.26404,-0.41177 0.39749,-0.10383 0.76988,-0.16828 1.08702,-0.20912 0.31714,-0.0408 0.57899,-0.0581 0.89221,-0.092 0.31322,-0.034 0.67782,-0.0846 1.09814,-0.13015 0.42032,-0.0456 0.89631,-0.0861 1.41285,-0.0962 0.51654,-0.0101 1.07356,0.0102 1.69644,0.0709 0.62288,0.0608 1.31157,0.16206 1.85847,0.25322 0.54691,0.0912 0.95202,0.17218 1.34195,0.26841 0.38993,0.0962 0.76465,0.20764 1.12672,0.31398 0.36208,0.10634 0.71148,0.20761 1.26852,0.46592 0.55704,0.2583 1.321679,0.67354 1.914161,0.99003 0.592481,0.3165 1.01277,0.53424 1.427998,0.828 0.415228,0.29376 0.825397,0.66342 1.207726,0.9951 0.382329,0.33168 0.736802,0.62538 1.101391,0.97988 0.36459,0.35449 0.739311,0.76972 1.020343,1.11156 0.281031,0.34183 0.468387,0.61021 0.67222,0.88999 0.203832,0.27978 0.424108,0.57095 0.654497,0.92797 0.23039,0.35702 0.470919,0.77984 0.682402,1.14172 0.211484,0.36189 0.393901,0.66282 0.557588,0.95276 0.163688,0.28995 0.308643,0.56886 0.455002,0.90886 0.146358,0.34 0.294141,0.74103 0.427674,1.10985 0.133533,0.36881 0.252811,0.70538 0.368674,1.16774 0.115863,0.46236 0.228343,1.05043 0.311917,1.61619 0.08357,0.56576 0.138257,1.10915 0.162003,1.70312 0.02375,0.59396 0.01659,1.23846 0.04273,13.42703 0.02614,12.18857 0.08558,35.9194 0.114722,47.86837 0.02914,11.94898 0.02797,12.11398 0.01979,12.37499 -0.0082,0.26102 -0.02337,0.61798 -0.04237,0.88638 -0.019,0.2684 -0.04179,0.44816 -0.08326,0.73479 -0.04147,0.28663 -0.101625,0.68011 -0.218108,1.19157 -0.116483,0.51145 -0.289263,1.14083 -0.498511,1.80394 -0.209249,0.66311 -0.454952,1.35994 -0.728198,2.00195 -0.273245,0.64202 -0.574018,1.22924 -0.939249,1.83078 -0.365231,0.60155 -0.794906,1.21742 -1.238913,1.79749 -0.444006,0.58007 -0.902329,1.12432 -1.3893,1.63278 -0.486971,0.50845 -1.002585,0.9811 -1.647095,1.47523 -0.64451,0.49413 -1.417937,1.00974 -2.119752,1.43942 -0.701815,0.42969 -1.332017,0.77344 -2.040977,1.10287 -0.70896,0.32942 -1.49672,0.64452 -2.16986,0.84505 -0.67314,0.20053 -1.23171,0.28647 -2.02665,0.40105 -0.79493,0.11459 -1.82616,0.25781 -2.77145,0.30081 -0.94529,0.043 -1.80465,-0.0143 -2.67118,-0.15034 -0.86653,-0.13604 -1.74021,-0.35088 -2.6354,-0.63016 -0.89518,-0.27927 -1.81184,-0.62301 -2.73567,-1.08132 -0.92384,-0.4583 -1.85482,-1.03121 -2.93622,-1.86192 -1.08141,-0.83071 -2.31316,-1.91923 -9.38165,-8.62964 -7.0685,-6.7104 -19.97318,-19.04218 -26.46505,-25.25473 -6.49187,-6.21254 -6.57066,-6.30566 -6.60658,-6.24837 -0.0359,0.0573 -0.0288,0.26497 -0.0252,0.58724 0.004,0.32227 0.004,0.7591 0.004,5.2709 0,4.51181 0,13.09823 -0.007,17.57771 -0.007,4.47948 -0.0215,4.85188 -0.0645,5.29588 -0.043,0.44399 -0.1146,0.95962 -0.30081,1.72588 -0.18621,0.76626 -0.48699,1.78316 -0.78778,2.62104 -0.30079,0.83788 -0.60156,1.49671 -1.0026,2.21284 -0.40103,0.71612 -0.90233,1.48955 -1.43227,2.20568 -0.52994,0.71613 -1.08851,1.37497 -1.83329,2.06962 -0.74478,0.69465 -1.67574,1.42509 -2.52793,1.99084 -0.8522,0.56575 -1.62563,0.96678 -2.36324,1.30337 -0.73762,0.33659 -1.43943,0.60871 -2.26299,0.88801 -0.82356,0.27931 -1.76885,0.56577 -2.58523,0.74482 -0.81638,0.17905 -1.50387,0.25066 -2.19135,0.25785 -0.68748,0.007 -1.37497,-0.0501 -2.29164,-0.16468 -0.91668,-0.11458 -2.06248,-0.28646 -2.87888,-0.45115 -0.8164,-0.16469 -1.30337,-0.32224 -1.84049,-0.50127 -0.53712,-0.17903 -1.12434,-0.37955 -1.66684,-0.64447 -0.5425,-0.26493 -1.04019,-0.59434 -1.66325,-1.01687 -0.62306,-0.42253 -1.37141,-0.93815 -1.98706,-1.41097 -0.61564,-0.47283 -1.09851,-0.90286 -1.52227,-1.31285 -0.42376,-0.40998 -0.78835,-0.79989 -1.09474,-1.15942 -0.30639,-0.35953 -0.55451,-0.68868 -0.77481,-1.00517 -0.22029,-0.31649 -0.41271,-0.62031 -0.59757,-0.94694 -0.18485,-0.32662 -0.36208,-0.67602 -0.67054,-1.32097 -0.30847,-0.64495 -0.74813,-1.5854 -1.0235,-2.24005 -0.27536,-0.65465 -0.38636,-1.02346 -0.48484,-1.36901 -0.0985,-0.34555 -0.1844,-0.66777 -0.25783,-1.03303 -0.0734,-0.36525 -0.1343,-0.77345 -0.15759,-3.53246 -0.0233,-2.75901 -0.009,-7.86862 -0.0233,-19.51154 -0.0143,-11.64292 -0.0573,-29.81834 -0.0931,-39.73697 -0.0358,-9.91864 -0.0644,-11.58007 0.0645,-13.24157 0.1289,-1.6615 0.41535,-3.32293 0.80207,-4.65503 0.38672,-1.33209 0.87369,-2.33467 1.6185,-3.53784 0.74481,-1.20317 1.7474,-2.60679 2.86463,-3.78132 1.11723,-1.17452 2.34898,-2.11982 3.60858,-2.86637 1.25961,-0.74654 2.54689,-1.29428 3.58272,-1.64327 1.03582,-0.34899 1.82003,-0.49922 2.57675,-0.63004 0.75672,-0.13082 1.4859,-0.24222 2.40505,-0.26499 0.91915,-0.0228 2.02809,0.0431 3.08143,0.20007 1.05335,0.15702 2.0509,0.40514 2.94469,0.72675 0.89379,0.3216 1.68374,0.71658 2.35219,1.07108 0.66845,0.35449 1.21534,0.66845 1.57205,0.8817 0.35672,0.21326 0.52326,0.3258 0.76793,0.50551 0.24468,0.17971 0.56748,0.42657 0.74228,0.56435 0.17481,0.13778 0.20166,0.16643 0.21494,0.1806 0.0133,0.0142 0.0133,0.0142 7.01191,6.70719 z"/>
                                    </g>
                                </g>
                                <g transform="matrix(0.02292774,0,0,0.02292774,14.092611,-5.0905251)" >
                                    <g >
                                        <path gorn="0.2.51.0.0.0.0.0.3.0.0" style="fill-rule:nonzero;" stroke="#ffffff" fill-opacity="1" fill="#ffffff"  stroke-width="0.264583" stroke-opacity="1" id="path5596-3-0" d="m -55.921993,267.00909 c 9.003776,0.0127 27.010693,0.038 36.903262,0.11397 9.8925688,0.076 11.6699686,0.20257 12.8409397,0.34066 1.1709711,0.13809 1.7354393,0.28761 2.2826721,0.45846 0.5472328,0.17085 1.0771527,0.36298 1.5266661,0.55514 0.4495134,0.19216 0.8185769,0.38429 1.3679206,0.67625 0.54934376,0.29195 1.27891353,0.68371 1.99289309,1.15222 0.71397951,0.4685 1.41230161,1.01363 2.01927941,1.5512 0.6069779,0.53757 1.1225996,1.06751 1.5021475,1.48289 0.3795479,0.41538 0.6230258,0.71615 0.8808277,1.05991 0.257802,0.34376 0.5299279,0.73046 0.7734008,1.12436 0.2434728,0.39389 0.4583062,0.79492 0.7537186,1.36606 0.2954123,0.57114 0.6713627,1.3123 0.9792875,2.0786 0.3079248,0.76631 0.5478284,1.55763 0.7196796,2.25765 0.1718512,0.70003 0.2756885,1.30874 0.3544512,1.96759 0.078763,0.65886 0.1324746,1.36783 0.1555524,2.00371 0.023078,0.63588 0.015545,1.19864 -0.050594,1.90553 -0.066139,0.70689 -0.1908422,1.55783 -0.3821173,2.40627 -0.1912751,0.84844 -0.4490788,1.69433 -0.7410405,2.45553 -0.2919616,0.7612 -0.6180532,1.43769 -0.9015461,1.99881 -0.2834929,0.56112 -0.5243635,1.00684 -0.7720492,1.39652 -0.2476857,0.38967 -0.5021517,0.72328 -0.8310998,1.13778 -0.328948,0.4145 -0.7323174,0.90983 -1.1936101,1.37951 -0.4612926,0.46968 -0.9804815,0.91369 -1.6124791,1.42215 -0.6319977,0.50846 -1.3767814,1.08137 -2.15018939,1.56834 -0.77340801,0.48696 -1.57546601,0.888 -2.29897841,1.21909 -0.7235124,0.3311 -1.3684519,0.59223 -1.9479747,0.786 -0.5795228,0.19378 -1.0936424,0.32018 -1.6975764,0.40113 -0.6039341,0.0809 -1.2976518,0.11639 -2.0800311,0.11892 -0.7823793,0.003 -1.6533593,-0.0279 -5.1222104,-0.0228 -3.468851,0.005 -9.535291,0.0456 -12.595558,0.0623 -3.060267,0.0167 -3.114243,0.01 -3.055284,0.0348 0.05896,0.0251 0.230817,0.0824 0.427756,0.13791 0.196939,0.0555 0.418935,0.10919 0.696448,0.17903 0.277513,0.0698 0.61051,0.15577 0.896971,0.2238 0.286461,0.068 0.526357,0.11816 0.759106,0.1916 0.232749,0.0734 0.458345,0.17013 0.682142,0.25963 0.223797,0.0895 0.4458,0.17186 0.662435,0.27574 0.216636,0.10387 0.427889,0.2292 0.617665,0.32046 0.189776,0.0913 0.358085,0.14857 0.606943,0.27931 0.248858,0.13073 0.578279,0.33483 0.866527,0.52641 0.288248,0.19159 0.535322,0.37062 0.875013,0.59533 0.339691,0.22471 0.771961,0.4951 1.16582,0.81741 0.393858,0.32231 0.749322,0.69644 1.070296,1.0124 0.320974,0.31596 0.607429,0.57376 0.936837,0.95335 0.329408,0.3796 0.701786,0.88088 1.031219,1.31773 0.329433,0.43685 0.615894,0.80925 0.837868,1.14586 0.221974,0.3366 0.379524,0.63738 0.558553,0.98828 0.179029,0.35091 0.379557,0.75196 0.5729,1.18165 0.193344,0.42969 0.379536,0.88802 0.508412,1.2819 0.128877,0.39388 0.20049,0.72328 0.307914,1.2031 0.107424,0.47982 0.250651,1.11003 0.358059,1.69012 0.107409,0.58008 0.179023,1.11001 0.229134,1.68292 0.05011,0.5729 0.07874,1.18877 0.07156,1.77601 -0.0072,0.58724 -0.05015,1.14581 -0.128939,1.74736 -0.07879,0.60156 -0.19337,1.24608 -0.358092,1.87626 -0.164723,0.63018 -0.379559,1.24605 -0.57292,1.76883 -0.19336,0.52278 -0.365235,0.95247 -0.594405,1.43944 -0.229171,0.48697 -0.515621,1.03123 -0.82356,1.554 -0.307939,0.52277 -0.637361,1.02407 -1.031237,1.53968 -0.393875,0.51561 -0.852203,1.04555 -1.346336,1.57549 -0.494133,0.52993 -1.024064,1.05987 -1.489544,1.47523 -0.46548,0.41535 -0.866516,0.71612 -1.363329,1.03569 -0.496812,0.31958 -1.089392,0.65794 -1.784053,1.00169 -0.69466,0.34376 -1.491351,0.69288 -2.25314,0.98292 -0.761789,0.29005 -1.488649,0.521 -1.995339,0.69108 -0.506691,0.17009 -0.793142,0.27929 -0.336527,0.33213 0.456614,0.0528 1.656105,0.0492 3.33013,0.051 1.674026,0.002 3.822377,0.009 6.661948,-0.0233 2.839572,-0.0322 6.370033,-0.10385 8.6438601,-0.0752 2.2738275,0.0287 3.2907074,0.15757 4.4401606,0.45124 1.1494532,0.29366 2.4313323,0.752 3.80275736,1.4682 1.37142507,0.7162 2.83233094,1.69014 3.99246254,2.70712 1.1601316,1.01698 2.0194853,2.07685 2.7785809,3.19406 0.7590955,1.11722 1.4179385,2.29167 1.9335214,3.52346 0.5155828,1.23178 0.8879656,2.5208 1.0741204,3.60933 0.1861547,1.08852 0.1861547,1.97654 0.2004771,2.76431 0.014322,0.78776 0.042956,1.47525 -0.028691,2.33461 -0.071647,0.85937 -0.2435124,1.89058 -0.5299857,2.87884 -0.2864734,0.98826 -0.6874991,1.93353 -1.1315155,2.90749 -0.4440165,0.97397 -0.9309827,1.97655 -1.6184622,2.92181 -0.6874796,0.94527 -1.5754912,1.83328 -2.3847343,2.60671 -0.809243,0.77343 -1.539685,1.43226 -2.5046678,2.06067 -0.96498271,0.62842 -2.164474,1.22637 -3.1742419,1.68471 -1.0097679,0.45834 -1.8297492,0.77702 -2.5700148,0.95428 -0.7402657,0.17726 -1.4008655,0.21307 -1.8808603,0.25141 -0.4799949,0.0383 -0.7792465,0.0792 -1.4403227,0.0997 -0.6610761,0.0205 -1.6839661,0.0205 -11.7028961,0.0251 -10.01893,0.005 -29.033126,0.0138 -38.912799,-0.0388 -9.879673,-0.0527 -10.624449,-0.16724 -11.319108,-0.3033 -0.694659,-0.13606 -1.339182,-0.2936 -1.976554,-0.47979 -0.637373,-0.18618 -1.267568,-0.40102 -1.926431,-0.66597 -0.658863,-0.26496 -1.34635,-0.58006 -2.026705,-0.97391 -0.680355,-0.39385 -1.353519,-0.8665 -2.041031,-1.38928 -0.687512,-0.52278 -1.389321,-1.09568 -1.976593,-1.67574 -0.587272,-0.58006 -1.059913,-1.16728 -1.539747,-1.80466 -0.479833,-0.63737 -0.966803,-1.32486 -1.367508,-1.94914 -0.400704,-0.62428 -0.715069,-1.1853 -1.030224,-2.00173 -0.315155,-0.81643 -0.630964,-1.88814 -0.839037,-2.82508 -0.208073,-0.93694 -0.308333,-1.73903 -0.401429,-2.44085 -0.0931,-0.70182 -0.179034,-1.30338 -0.171902,-2.29886 0.0071,-0.99548 0.107391,-2.38478 0.128884,-14.58812 0.02149,-12.20334 -0.0358,-35.21981 0.150378,-47.53041 0.186177,-12.3106 0.615857,-13.91474 1.210264,-15.3829 0.594407,-1.46816 1.353515,-2.80018 1.969417,-3.75984 0.615902,-0.95967 1.088542,-1.54689 1.511089,-2.01241 0.422546,-0.46552 0.794941,-0.80926 1.224666,-1.13155 0.429725,-0.32229 0.916695,-0.62307 1.425141,-0.98114 0.508446,-0.35806 1.038383,-0.77341 1.625669,-1.1315 0.587286,-0.35809 1.231807,-0.65886 1.840569,-0.88802 0.608762,-0.22917 1.181668,-0.38673 1.761755,-0.53712 0.580086,-0.1504 1.167314,-0.29363 1.761719,-0.44402 0.594406,-0.15039 1.195952,-0.30794 1.783241,-0.38669 0.587288,-0.0787 1.160194,-0.0787 1.632843,-0.0931 0.47265,-0.0143 0.845037,-0.043 1.215933,-0.0808 0.370896,-0.0379 0.740308,-0.085 0.924896,-0.10852 0.184587,-0.0235 0.184685,-0.0232 9.188461,-0.0105 z"/>
                                    </g>
                                </g>
                                <g transform="matrix(0.02292774,0,0,0.02292774,14.092611,-5.0905251)" >
                                    <g >
                                        <path gorn="0.2.51.0.0.0.0.0.4.0.0" style="fill-rule:nonzero;" stroke="#ffffff" fill-opacity="1" fill="#ffffff"  stroke-width="0.264583" stroke-opacity="1" id="path5621-2-7" d="m 41.346388,269.90372 c 0.545189,0.43864 1.635276,1.31568 2.831596,2.52471 1.19632,1.20903 2.498932,2.75001 6.53301,7.4907 4.034078,4.74069 10.799322,12.68073 14.2124,16.6812 3.413078,4.00047 3.473884,4.06127 3.615537,3.98518 0.141652,-0.0761 0.364474,-0.28879 1.124066,-1.0737 0.759593,-0.78491 2.05593,-2.14201 6.066606,-6.80594 4.010676,-4.66394 10.735435,-12.6344 14.219419,-16.74125 3.483985,-4.10684 3.727046,-4.3499 4.192961,-4.71453 0.465914,-0.36462 1.154591,-0.85075 1.81293,-1.25587 0.65834,-0.40512 1.286254,-0.72921 1.995226,-1.06343 0.708971,-0.33422 1.49893,-0.67856 2.487921,-0.97053 0.989,-0.29197 2.17687,-0.53155 3.36905,-0.64244 1.19217,-0.11088 2.38842,-0.0931 3.3947,-0.0287 1.00627,0.0644 1.8224,0.17526 2.57843,0.33857 0.75603,0.1633 1.45186,0.37894 2.06967,0.62215 0.61781,0.24321 1.15753,0.5139 1.82852,0.87302 0.67098,0.35912 1.47314,0.80661 2.26818,1.36839 0.79503,0.56179 1.58288,1.23773 2.32875,1.98084 0.74586,0.74312 1.44973,1.55333 2.00167,2.32307 0.55194,0.76975 0.95199,1.49894 1.18239,1.92177 0.2304,0.42283 0.29119,0.53931 0.514,1.0356 0.22281,0.49629 0.60766,1.37229 0.89121,2.21544 0.28355,0.84315 0.46584,1.65333 0.60526,2.73272 0.13941,1.07939 0.23598,2.42785 0.24861,3.41152 0.0126,0.98367 -0.0586,1.60244 -0.21835,2.37645 -0.15971,0.77402 -0.40784,1.70322 -0.77498,2.70459 -0.36714,1.00137 -0.85327,2.0749 -1.34953,2.97625 -0.49626,0.90135 -1.00264,1.63054 -3.68658,4.94558 -2.68395,3.31503 -7.54513,9.21551 -12.84414,15.22757 -5.299001,6.01206 -11.035141,12.13491 -14.071636,15.47937 -3.036495,3.34446 -3.373085,3.91022 -3.62732,4.46527 -0.254235,0.55506 -0.426107,1.09931 -0.569331,1.71523 -0.143224,0.61592 -0.257807,1.30342 -0.24346,4.25401 0.01435,2.9506 0.157574,8.16403 0.243505,11.47264 0.08593,3.30862 0.114564,4.71224 -0.01438,6.08721 -0.12894,1.37497 -0.415393,2.7213 -0.859417,4.06764 -0.444023,1.34633 -1.045565,2.69264 -1.647131,3.82414 -0.601566,1.1315 -1.203117,2.04814 -2.105441,3.03639 -0.902323,0.98825 -2.105429,2.04812 -3.208263,2.83587 -1.102835,0.78775 -2.105416,1.30337 -3.036386,1.70441 -0.930971,0.40105 -1.790326,0.6875 -2.599555,0.90592 -0.80923,0.21843 -1.568309,0.36882 -2.456322,0.45476 -0.888012,0.0859 -1.904923,0.10742 -2.914568,0.0764 -1.009645,-0.031 -2.011999,-0.11466 -2.857528,-0.24252 -0.845529,-0.12787 -1.534206,-0.30004 -2.190523,-0.49567 -0.656316,-0.19564 -1.280233,-0.41476 -1.847406,-0.66793 -0.567173,-0.25317 -1.077544,-0.54043 -1.520208,-0.81014 -0.442663,-0.26971 -0.817588,-0.52187 -1.248043,-0.85608 -0.430455,-0.33421 -0.916371,-0.75046 -1.422409,-1.1829 -0.506038,-0.43243 -1.032149,-0.881 -1.584506,-1.44789 -0.552357,-0.56689 -1.130857,-1.25209 -1.629609,-1.93792 -0.498752,-0.68582 -0.917672,-1.37225 -1.288339,-2.06648 -0.370667,-0.69423 -0.69301,-1.3962 -0.99924,-2.37229 -0.30623,-0.97609 -0.59624,-2.22618 -0.736739,-6.78866 -0.140499,-4.56248 -0.131399,-12.43695 -0.136971,-16.50085 -0.0056,-4.0639 -0.02584,-4.3171 -0.07139,-4.59053 -0.04555,-0.27344 -0.116447,-0.56715 -0.344274,-1.04823 -0.227828,-0.48108 -0.612679,-1.1495 -1.351981,-2.02053 -0.739302,-0.87103 -1.83308,-1.94455 -7.024565,-7.80336 -5.191485,-5.85881 -14.480272,-16.5025 -19.597447,-22.55492 -5.117176,-6.05242 -6.062464,-7.51332 -6.75003,-9.10318 -0.687566,-1.58986 -1.117242,-3.30857 -1.274841,-5.08466 -0.157599,-1.77609 -0.04302,-3.60939 0.06439,-4.80538 0.107411,-1.19598 0.207671,-1.75457 0.515612,-2.63549 0.30794,-0.88092 0.823547,-2.08401 1.403636,-3.17259 0.580089,-1.08859 1.224614,-2.06253 1.912136,-2.91478 0.687523,-0.85224 1.417987,-1.5827 2.284571,-2.27739 0.866585,-0.69469 1.869172,-1.35353 2.89329,-1.92646 1.024117,-0.57293 2.06967,-1.0599 3.194083,-1.39648 1.124412,-0.33658 2.327516,-0.52278 3.258516,-0.65884 0.931,-0.13607 1.589837,-0.222 2.464014,-0.20642 0.874176,0.0156 1.963536,0.13262 3.066437,0.34033 1.102902,0.20771 2.219201,0.50602 3.202379,0.84975 0.983179,0.34373 1.83317,0.73279 2.258018,0.92725 0.424847,0.19446 0.424947,0.19446 0.970135,0.6331 z"/>
                                    </g>
                                </g>
                                <g transform="matrix(0.02292774,0,0,0.02292774,14.092611,-5.0905251)" >
                                    <g >
                                        <path gorn="0.2.51.0.0.0.0.0.5.0.0" style="fill-rule:nonzero;" stroke="#ffffff" fill-opacity="1" fill="#ffffff"  stroke-width="0.264583" stroke-opacity="1" id="path5648-1-2" d="m 156.02634,267.10475 c 1.53732,0.30534 3.07491,0.61073 4.49038,1.17613 1.41547,0.56541 2.70896,1.39067 3.76186,2.15724 1.0529,0.76657 1.86507,1.47429 2.62331,2.27475 0.75824,0.80047 1.4625,1.69353 2.13478,2.74925 0.67228,1.05572 1.3126,2.274 7.12441,14.05526 5.81181,11.78126 16.79467,34.12459 22.68393,46.05385 5.88925,11.92926 6.68466,13.44396 7.18591,14.80466 0.50126,1.36071 0.70843,2.56727 0.85497,3.58593 0.14655,1.01866 0.23248,1.84937 0.23246,2.70873 -3e-5,0.85935 -0.086,1.74737 -0.22921,2.6497 -0.14324,0.90233 -0.34375,1.81898 -0.6517,2.7786 -0.30796,0.95961 -0.72331,1.96219 -1.23894,2.9218 -0.51562,0.95961 -1.13149,1.87626 -1.81182,2.70697 -0.68032,0.83071 -1.4251,1.57548 -2.10543,2.19136 -0.68034,0.61588 -1.29621,1.10284 -2.07679,1.6113 -0.78058,0.50846 -1.72586,1.03839 -2.60671,1.46808 -0.88085,0.4297 -1.69723,0.75911 -2.48499,1.03125 -0.78775,0.27214 -1.54685,0.48698 -2.4635,0.65887 -0.91665,0.17189 -1.99085,0.3008 -3.1653,0.25071 -1.17445,-0.0501 -2.44916,-0.27926 -3.45893,-0.51557 -1.00977,-0.23631 -1.75454,-0.47979 -2.72135,-0.87366 -0.96681,-0.39386 -2.15557,-0.93812 -3.42319,-1.8261 -1.26762,-0.88798 -2.61395,-2.11973 -4.33989,-3.82417 -1.72594,-1.70444 -3.83137,-3.88148 -5.37825,-5.41404 -1.54687,-1.53257 -2.53514,-2.42057 -3.27276,-3.02217 -0.73762,-0.60159 -1.22458,-0.91669 -1.71872,-1.19602 -0.49415,-0.27932 -0.99543,-0.5228 -1.55403,-0.79494 -0.5586,-0.27214 -1.17448,-0.57291 -1.70444,-0.77347 -0.52996,-0.20056 -0.97396,-0.30082 -1.44662,-0.42256 -0.47265,-0.12173 -0.97394,-0.26495 -1.5612,-0.36525 -0.58726,-0.1003 -1.26043,-0.1576 -1.862,-0.20773 -0.60157,-0.0501 -1.1315,-0.0931 -1.4591,-0.13026 -0.32759,-0.0372 -0.4529,-0.0686 -0.83459,-0.0641 -0.3817,0.005 -1.01975,0.045 -1.62743,0.0906 -0.60767,0.0456 -1.18494,0.0962 -1.83822,0.19242 -0.65327,0.0962 -1.38246,0.238 -2.0104,0.37472 -0.62794,0.13672 -1.15457,0.26837 -1.67618,0.44055 -0.52162,0.17217 -1.03813,0.38485 -1.51923,0.6178 -0.4811,0.23295 -0.92672,0.48614 -1.42803,0.7444 -0.50132,0.25826 -1.05834,0.52157 -1.53438,0.78997 -0.47605,0.2684 -0.87103,0.54184 -1.28122,0.84568 -0.41019,0.30384 -0.83555,0.63806 -1.40778,1.08876 -0.57223,0.45069 -1.29129,1.01785 -1.81291,1.49388 -0.52161,0.47604 -0.84569,0.86088 -1.23648,1.30875 -0.39079,0.44787 -0.84825,0.95872 -1.24327,1.48036 -0.39503,0.52164 -0.72749,1.05389 -1.05577,1.56817 -0.32829,0.51427 -0.65237,1.01052 -1.05746,1.48144 -0.40509,0.47091 -0.89123,0.91653 -1.36218,1.36723 -0.47096,0.45069 -0.9267,0.90644 -1.33687,1.28623 -0.41017,0.37978 -0.77476,0.68361 -1.32618,1.04539 -0.55143,0.36178 -1.28972,0.78152 -2.18164,1.18475 -0.89192,0.40324 -1.93748,0.78994 -3.06181,1.09789 -1.12433,0.30795 -2.32743,0.53711 -3.55202,0.6374 -1.22458,0.10028 -2.47065,0.0716 -3.60216,-0.0286 -1.1315,-0.10024 -2.14842,-0.27211 -3.15102,-0.58001 -1.00261,-0.30789 -1.99087,-0.75189 -2.90754,-1.22453 -0.91668,-0.47264 -1.76172,-0.97394 -2.65692,-1.61845 -0.89521,-0.64452 -1.8405,-1.43226 -2.6283,-2.23433 -0.7878,-0.80206 -1.41798,-1.61844 -1.97661,-2.48498 -0.55863,-0.86654 -1.0456,-1.78319 -1.46816,-2.74283 -0.42255,-0.95964 -0.78062,-1.96223 -0.98835,-2.72852 -0.20772,-0.7663 -0.26502,-1.29624 -0.36428,-2.13799 -0.0993,-0.84174 -0.2405,-1.99524 -0.18963,-3.24049 0.0509,-1.24525 0.29395,-2.58211 0.61558,-3.96321 0.32163,-1.38109 0.72181,-2.8063 1.26627,-4.10642 0.54446,-1.30013 1.23312,-2.47491 1.98505,-3.88913 0.75192,-1.41422 1.56706,-3.06779 2.42026,-4.7656 0.8532,-1.6978 1.74443,-3.43976 2.77805,-5.552 1.03362,-2.11224 2.20954,-4.5946 7.10896,-14.51999 4.89942,-9.9254 13.52186,-27.29286 18.13123,-36.19609 4.60937,-8.90322 5.20527,-9.34149 5.62052,-9.71123 0.41524,-0.36973 0.64983,-0.67093 1.00264,-1.014 0.3528,-0.34308 0.82372,-0.72792 1.3352,-1.11026 0.51149,-0.38235 1.06343,-0.76213 1.53187,-1.04825 0.46844,-0.28612 0.85329,-0.47854 1.35606,-0.71905 0.50277,-0.24051 1.12341,-0.52909 1.75961,-0.7808 0.6362,-0.25171 1.28788,-0.46655 1.89306,-0.60977 0.60519,-0.14321 1.16377,-0.21483 1.74743,-0.29718 0.58366,-0.0824 1.19237,-0.17546 1.80113,-0.21125 0.60876,-0.0358 1.21747,-0.0143 1.71518,-0.0143 0.49771,-10e-6 0.88443,-0.0215 1.45888,0.0213 0.57446,0.0428 1.33653,0.14966 1.44001,0.1549 0.10347,0.005 -0.45199,-0.0913 -1.00711,-0.18772 z"/>
                                    </g>
                                </g>
                                <g transform="matrix(0.02292774,0,0,0.02292774,14.092611,-5.0905251)" >
                                    <g >
                                        <path gorn="0.2.51.0.0.0.0.0.6.0.0" style="fill-rule:nonzero;" stroke="#ffffff" fill-opacity="1" fill="#ffffff"  stroke-width="0.264583" stroke-opacity="1" clip-path="url(#clipath_lpe_path-effect27821-9)" id="path5677-2-3" d="m 239.50388,267.00705 c 7.88675,0.0106 23.65982,0.0319 31.99513,0.14334 8.33531,0.11145 9.23247,0.31298 10.04568,0.48465 0.81321,0.17166 1.5424,0.31345 2.31211,0.45524 0.76971,0.14178 1.57995,0.28358 2.32941,0.48617 0.74946,0.20259 1.43815,0.4659 2.11672,0.68624 0.67857,0.22033 1.34699,0.39771 2.30915,0.78261 0.96216,0.3849 2.21798,0.97722 3.20038,1.47596 0.98241,0.49875 1.69134,0.90384 2.41787,1.31567 0.72653,0.41182 1.4706,0.83034 2.24623,1.34548 0.77563,0.51515 1.58274,1.12681 2.34605,1.79502 0.76331,0.66822 1.48277,1.39289 2.17195,2.01304 0.68919,0.62015 1.34802,1.13576 1.96389,1.76601 0.61586,0.63026 1.18877,1.37503 1.94789,2.37764 0.75911,1.00261 1.70441,2.26301 2.54943,3.62371 0.84503,1.3607 1.58982,2.82162 2.20569,4.12501 0.61588,1.30339 1.10285,2.44921 1.43226,3.29427 0.32942,0.84505 0.50128,1.3893 0.63401,1.85739 0.13272,0.46809 0.22631,0.86001 0.33388,1.26358 0.10757,0.40357 0.2291,0.81881 0.34049,1.29988 0.11139,0.48107 0.21268,1.02797 0.28355,1.55461 0.0709,0.52664 0.11139,1.03303 0.1519,1.44322 0.0405,0.41019 0.081,0.72414 0.11647,1.11912 0.0354,0.39498 0.0659,0.87098 0.13171,1.36726 0.0659,0.49628 0.16712,1.01277 0.21266,1.428 0.0455,0.41523 0.0354,0.72918 0.0253,1.1495 -0.0101,0.42032 -0.0203,0.94695 -0.0203,1.48373 10e-6,0.53679 0.0101,1.08367 0.0101,1.51917 0,0.4355 -0.0101,0.75958 -0.0152,1.13938 -0.005,0.3798 -0.005,0.8153 -0.0304,1.23052 -0.0253,0.41523 -0.076,0.81019 -0.10127,1.13431 -0.0253,0.32411 -0.0253,0.57729 -0.0682,0.88096 -0.0429,0.30367 -0.12871,0.65784 -0.22173,1.12141 -0.093,0.46358 -0.19328,1.03648 -0.32578,1.59864 -0.1325,0.56217 -0.29721,1.11359 -0.44402,1.62923 -0.14681,0.51563 -0.27571,0.99544 -0.40461,1.43586 -0.12891,0.44043 -0.25782,0.84146 -0.40821,1.24965 -0.1504,0.4082 -0.32226,0.82355 -0.46549,1.19596 -0.14323,0.37241 -0.2578,0.70182 -0.43326,1.09927 -0.17547,0.39744 -0.4118,0.86293 -0.598,1.26757 -0.1862,0.40464 -0.32227,0.74838 -0.53136,1.15113 -0.20909,0.40274 -0.4912,0.86453 -0.91585,1.57144 -0.42465,0.70692 -0.99179,1.6589 -1.42728,2.32225 -0.4355,0.66336 -0.73932,1.03806 -1.09886,1.47357 -0.35954,0.4355 -0.77476,0.93176 -1.18494,1.43816 -0.41019,0.50641 -0.8153,1.02292 -1.22546,1.47865 -0.41017,0.45573 -0.82542,0.85071 -1.23053,1.2457 -0.40512,0.39499 -0.80009,0.78996 -1.12418,1.12419 -0.32409,0.33423 -0.57729,0.60768 -0.88618,0.90645 -0.3089,0.29876 -0.6735,0.62284 -0.93682,0.85071 -0.26332,0.22787 -0.42536,0.35952 -0.70387,0.57726 -0.27851,0.21775 -0.67349,0.52159 -1.0077,0.76466 -0.33421,0.24306 -0.60766,0.42536 -0.90644,0.63298 -0.29878,0.20762 -0.62286,0.44056 -0.97732,0.67856 -0.35447,0.238 -0.73933,0.48108 -1.04822,0.66337 -0.30888,0.1823 -0.54183,0.30384 -0.9115,0.51146 -0.36966,0.20761 -0.87606,0.50132 -1.39763,0.7849 -0.52158,0.28358 -1.05834,0.55703 -1.68119,0.84061 -0.62286,0.28358 -1.3318,0.57728 -1.97997,0.81529 -0.64818,0.238 -1.23558,0.4203 -1.80781,0.61273 -0.57224,0.19244 -1.12925,0.39499 -1.66094,0.55198 -0.5317,0.15699 -1.03808,0.26839 -1.48118,0.37473 -0.44311,0.10634 -0.82289,0.20762 -1.46094,0.35954 -0.63805,0.15192 -1.53436,0.35447 -2.32684,0.48614 -0.79248,0.13168 -1.48116,0.19244 -2.13948,0.23297 -0.65832,0.0405 -1.28623,0.0608 -6.31479,0.0912 -5.02856,0.0304 -14.45737,0.0709 -19.37444,0.10127 -4.91708,0.0304 -5.32217,0.0506 -5.52993,0.12675 -0.20776,0.0761 -0.2179,0.20774 -0.22042,0.57742 -0.003,0.36969 0.003,0.97736 -0.0127,2.97764 -0.0152,2.00028 -0.0506,5.39303 -0.0886,7.18563 -0.038,1.79261 -0.0785,1.98503 -0.11901,2.28381 -0.0405,0.29879 -0.081,0.70389 -0.15698,1.12418 -0.076,0.42029 -0.18738,0.85577 -0.32411,1.32671 -0.13673,0.47093 -0.29877,0.97732 -0.46082,1.43306 -0.16205,0.45574 -0.32409,0.86085 -0.64058,1.45837 -0.3165,0.59752 -0.78744,1.38748 -1.19255,2.01033 -0.40511,0.62286 -0.74438,1.07859 -1.16215,1.56978 -0.41776,0.49119 -0.91401,1.01782 -1.38494,1.47356 -0.47094,0.45575 -0.91655,0.84061 -1.48877,1.2761 -0.57222,0.43549 -1.27102,0.92161 -1.82803,1.26594 -0.55701,0.34434 -0.97224,0.54689 -1.45958,0.76179 -0.48734,0.21489 -1.04679,0.44212 -1.54136,0.62736 -0.49456,0.18523 -0.92424,0.32845 -1.47924,0.48242 -0.55501,0.15398 -1.23534,0.31869 -1.87984,0.41182 -0.6445,0.0931 -1.25321,0.11462 -1.84762,0.13612 -0.59441,0.0215 -1.17447,0.043 -1.77603,0.0394 -0.60156,-0.004 -1.2246,-0.0322 -1.92641,-0.13606 -0.70181,-0.10383 -1.48239,-0.28286 -2.26299,-0.49053 -0.78061,-0.20766 -1.5612,-0.44399 -2.19499,-0.68387 -0.63379,-0.23987 -1.12075,-0.48335 -1.57552,-0.74831 -0.45477,-0.26495 -0.87728,-0.55141 -1.19645,-0.755 -0.31917,-0.2036 -0.53499,-0.3243 -0.84039,-0.52136 -0.30541,-0.19706 -0.70039,-0.47051 -1.08019,-0.76926 -0.37981,-0.29876 -0.7444,-0.62284 -1.10397,-0.98743 -0.35956,-0.36459 -0.71403,-0.7697 -0.98748,-1.08619 -0.27346,-0.31649 -0.46589,-0.54437 -0.65074,-0.78996 -0.18485,-0.24559 -0.36208,-0.50891 -0.55199,-0.80262 -0.1899,-0.29371 -0.39246,-0.6178 -0.60008,-0.95962 -0.20762,-0.34181 -0.4203,-0.70133 -0.61276,-1.09632 -0.19246,-0.39499 -0.36463,-0.82541 -0.51656,-1.21534 -0.15192,-0.38993 -0.28357,-0.73932 -0.41126,-1.08303 -0.12769,-0.34371 -0.25139,-0.68168 -0.35264,-1.01539 -0.10126,-0.33371 -0.18004,-0.66314 -0.28388,-1.07851 -0.10384,-0.41537 -0.23273,-0.91666 -0.29723,-1.51825 -0.0645,-0.60159 -0.0645,-1.3034 -0.0609,-2.16279 0.004,-0.85939 0.0108,-1.87629 -0.003,-14.10744 -0.0141,-12.23114 -0.0494,-35.67558 -0.0265,-47.81329 0.0228,-12.13771 0.10386,-12.96818 0.32666,-13.91517 0.2228,-0.947 0.58739,-2.01037 1.01783,-3.0384 0.43044,-1.02803 0.92669,-2.02052 1.51649,-2.88992 0.5898,-0.8694 1.27305,-1.61553 1.91548,-2.27508 0.64244,-0.65954 1.24399,-1.23245 1.92436,-1.7839 0.68036,-0.55145 1.43947,-1.0814 2.19863,-1.50393 0.75916,-0.42253 1.51826,-0.73763 2.26306,-1.03841 0.7448,-0.30078 1.47526,-0.58724 2.29888,-0.80208 0.82361,-0.21484 1.74026,-0.35806 2.43492,-0.47981 0.69466,-0.12175 1.16731,-0.22201 1.59704,-0.25062 0.42973,-0.0286 0.81645,0.0144 1.17559,0.0194 0.35915,0.005 0.69078,-0.0277 0.85648,-0.0441 0.16569,-0.0164 0.16566,-0.0165 8.05241,-0.006 z"/>
                                    </g>
                                </g>
                                <g transform="matrix(0.02292774,0,0,0.02292774,14.092611,-5.0905251)" >
                                    <g >
                                        <path gorn="0.2.51.0.0.0.0.0.7.0.0" style="fill-rule:nonzero;" stroke="#000000" fill-opacity="1" fill="#ce3020"  stroke-width="0.264583" stroke-opacity="1" id="path8068-8-1" d="m -396.14941,334.58119 c 3.67398,-0.008 11.0217,-0.0248 14.70863,-0.0337 3.68692,-0.009 3.71311,-0.0103 3.73101,-0.008 0.0179,0.002 0.0277,0.009 0.0676,0.0567 0.0399,0.0479 0.11016,0.13748 0.45992,0.72213 0.34977,0.58465 0.97904,1.66433 1.38527,2.36592 0.40624,0.7016 0.58943,1.02512 0.89736,1.52597 0.30793,0.50085 0.74056,1.17902 0.96372,1.52887 0.22316,0.34984 0.23674,0.37119 0.17246,0.38177 -0.0643,0.0106 -0.20653,0.0106 -1.27354,0.01 -1.06701,-10e-4 -3.05869,-0.003 -4.68599,-0.002 -1.62729,9.4e-4 -2.89012,0.005 -3.71447,0.003 -0.82435,-0.002 -1.21024,-0.01 -1.45578,-0.0136 -0.24555,-0.004 -0.35081,-0.004 -0.41215,-0.004 -0.0614,0 -0.079,0 -0.0879,0.007 -0.009,0.007 -0.009,0.0205 -0.007,0.0951 0.002,0.0746 0.005,0.21001 -0.004,1.23609 -0.009,1.02608 -0.0292,2.94272 -0.0356,4.50521 -0.006,1.5625 0.001,2.77075 0.005,3.47624 0.004,0.70548 0.004,0.90815 0.006,1.02523 0.002,0.11708 0.006,0.14862 -0.19857,0.27785 -0.20415,0.12923 -0.61618,0.3566 -1.12963,0.66049 -0.51344,0.30388 -1.12828,0.68427 -1.46689,0.89395 -0.33861,0.20968 -0.40098,0.24866 -0.47296,0.24779 -0.072,-8.7e-4 -0.15384,-0.0418 -0.3653,-0.17041 -0.21145,-0.12861 -0.55248,-0.34492 -0.95102,-0.58658 -0.39854,-0.24167 -0.85457,-0.50866 -1.17613,-0.70159 -0.32157,-0.19293 -0.50866,-0.3118 -0.65967,-0.40728 -0.15102,-0.0955 -0.26603,-0.16761 -0.34206,-0.22699 -0.076,-0.0594 -0.1131,-0.1062 -0.13171,-1.79685 -0.0186,-1.69066 -0.0186,-5.02505 -0.0191,-6.69782 -4.8e-4,-1.67277 -0.001,-1.68425 -0.0153,-1.69128 -0.0138,-0.007 -0.0407,-0.01 -1.95686,0.007 -1.9162,0.0162 -5.72157,0.0514 -7.63183,0.0689 -1.91025,0.0176 -1.92555,0.0176 -1.91672,3.5e-4 0.009,-0.0172 0.0419,-0.0517 0.18381,-0.26524 0.14193,-0.21358 0.39273,-0.60632 0.97909,-1.58818 0.58636,-0.98185 1.50825,-2.55279 2.0257,-3.43818 0.51746,-0.88539 0.63046,-1.0852 0.70004,-1.20647 0.0696,-0.12127 0.0958,-0.16401 0.11371,-0.1923 0.0179,-0.0283 0.0276,-0.042 0.0324,-0.0489 0.005,-0.007 0.005,-0.007 3.67895,-0.0153 z"/>
                                    </g>
                                </g>
                                <g transform="matrix(0.02292774,0,0,0.02292774,14.092611,-5.0905251)" >
                                    <g >
                                        <path gorn="0.2.51.0.0.0.0.0.8.0.0" style="fill-rule:nonzero;" stroke="#000000" fill-opacity="1" fill="#ce3020"  stroke-width="0.264583" stroke-opacity="1" clip-path="none" id="path8798-3-6" d="m -387.72729,354.59589 c 0.54006,-0.31918 1.62011,-0.95749 2.18907,-1.29318 0.56896,-0.33569 0.62689,-0.36878 0.689,-0.36728 0.0621,0.001 0.12827,0.0373 0.63953,0.33913 0.51126,0.30181 1.46759,0.86955 2.36195,1.39321 0.89435,0.52365 1.72668,1.00321 2.62517,1.53238 0.89848,0.52917 1.8631,1.10794 2.38378,1.41753 0.52068,0.3096 0.59736,0.34999 0.66786,0.38577 0.0705,0.0358 0.13483,0.067 0.18144,0.0688 0.0466,0.002 0.0759,-0.0254 0.145,-0.12865 0.0692,-0.10324 0.17828,-0.28252 0.58925,-1.00748 0.41098,-0.72496 1.12377,-1.99555 1.80264,-3.20413 0.67887,-1.20858 1.32379,-2.3551 1.8239,-3.24574 0.50012,-0.89063 0.85543,-1.52538 1.04476,-1.86417 0.18933,-0.33879 0.21271,-0.3817 0.22731,-0.41091 0.0146,-0.0292 0.0204,-0.0447 0.0292,0.23886 0.009,0.28359 0.0205,0.86629 0.0405,2.1362 0.0199,1.2699 0.0481,3.22694 0.10359,4.94964 0.0555,1.72269 0.13813,3.21095 0.17947,4.07084 0.0413,0.85989 0.0413,1.0914 -0.12958,1.52678 -0.1709,0.43538 -0.51264,1.07477 -0.94811,1.87679 -0.43546,0.80203 -0.96463,1.76665 -1.59853,2.87184 -0.6339,1.10518 -1.37252,2.35092 -2.11667,3.61873 -0.74414,1.26781 -1.49378,2.55763 -1.91822,3.30731 -0.42444,0.74968 -0.52365,0.9591 -1.88226,1.04449 -1.35861,0.0854 -3.97685,0.0468 -5.30113,0.0234 -1.32429,-0.0234 -1.35461,-0.0317 -1.29412,-0.14886 0.0605,-0.11714 0.21209,-0.34315 0.5249,-0.8668 0.31282,-0.52365 0.78685,-1.34494 1.45322,-2.49897 0.66637,-1.15404 1.52504,-2.64075 2.14927,-3.70763 0.62423,-1.06688 1.014,-1.7139 1.23421,-2.09 0.22021,-0.37609 0.27089,-0.48135 0.27591,-0.55533 0.005,-0.074 -0.0359,-0.11685 -0.20933,-0.22992 -0.17341,-0.11307 -0.47937,-0.29627 -1.51715,-0.90432 -1.03777,-0.60805 -2.80729,-1.64091 -3.85674,-2.24603 -1.04945,-0.60512 -1.37881,-0.78247 -1.70816,-0.96469 -0.32935,-0.18221 -0.65871,-0.3693 -0.88575,-0.49598 -0.22703,-0.12667 -0.35175,-0.19293 -0.42583,-0.2406 -0.0741,-0.0477 -0.0975,-0.077 -0.10828,-0.20754 -0.0108,-0.1306 -0.009,-0.36249 -0.0107,-0.7932 -0.002,-0.4307 -0.008,-1.06014 -0.0107,-1.51519 -0.003,-0.45506 -0.003,-0.73571 -0.004,-0.92506 -0.001,-0.18935 -0.004,-0.28741 -0.006,-0.3613 -0.002,-0.0739 -0.005,-0.12345 -1.2e-4,-0.15445 0.005,-0.031 0.0178,-0.0431 0.0241,-0.0492 0.006,-0.006 0.006,-0.006 0.5464,-0.32511 z"/>
                                    </g>
                                </g>
                                <g transform="matrix(0.02292774,0,0,0.02292774,14.092611,-5.0905251)" >
                                    <g >
                                        <path gorn="0.2.51.0.0.0.0.0.9.0.0" style="fill-rule:nonzero;" stroke="#000000" fill-opacity="1" fill="#ce3020"  stroke-width="0.264583" stroke-opacity="1" id="path8802-7" d="m -392.08695,353.17388 c 0.50379,0.26625 1.51105,0.79856 2.07328,1.09069 0.56223,0.29213 0.67947,0.34411 0.74345,0.49143 0.064,0.14732 0.075,0.38983 0.075,0.95759 -1e-5,0.56777 -0.011,1.46071 -0.011,1.97611 2e-5,0.5154 0.0111,0.6532 0.0193,0.77446 0.008,0.12127 0.0137,0.22601 0.005,0.28444 -0.009,0.0584 -0.0323,0.0708 -0.26936,0.1879 -0.23702,0.11713 -0.68763,0.33899 -1.10863,0.5643 -0.42101,0.22531 -0.81236,0.45406 -1.3057,0.74759 -0.49335,0.29353 -1.08865,0.65181 -1.59578,0.95499 -0.50712,0.30317 -0.92604,0.55121 -1.39733,0.82406 -0.47128,0.27285 -0.99492,0.5705 -1.44969,0.83785 -0.45476,0.26734 -0.84061,0.50437 -1.0859,0.65595 -0.24528,0.15158 -0.35003,0.21774 -0.41577,0.26076 -0.0657,0.043 -0.0925,0.0629 -0.0649,0.15295 0.0276,0.09 0.10949,0.24982 0.95521,1.70888 0.84572,1.45905 2.45524,4.21727 3.33443,5.69837 0.8792,1.48109 1.02803,1.68505 1.11066,1.81184 0.0826,0.12678 0.0992,0.1764 0.0413,0.20377 -0.0578,0.0274 -0.1901,0.0328 -0.52906,-0.0305 -0.33896,-0.0634 -0.88467,-0.19566 -1.35045,-0.34446 -0.46578,-0.1488 -0.85162,-0.31416 -1.29536,-0.50433 -0.44373,-0.19017 -0.94532,-0.40514 -1.35874,-0.61182 -0.41342,-0.20668 -0.73862,-0.40511 -1.06109,-0.59805 -0.32248,-0.19293 -0.64217,-0.38034 -0.89298,-0.54843 -0.25082,-0.1681 -0.43271,-0.31692 -0.59808,-0.45473 -0.16537,-0.1378 -0.31419,-0.26457 -0.48231,-0.39963 -0.16812,-0.13506 -0.35553,-0.27837 -0.52089,-0.4024 -0.16537,-0.12403 -0.30868,-0.22876 -0.51789,-0.43266 -0.20921,-0.2039 -0.48427,-0.50701 -0.75236,-0.78526 -0.2681,-0.27824 -0.52922,-0.53157 -0.75141,-0.77127 -0.22219,-0.23969 -0.40539,-0.46576 -0.683,-0.85174 -0.27762,-0.38597 -0.64964,-0.93187 -0.92661,-1.36191 -0.27696,-0.43003 -0.45886,-0.74422 -0.63803,-1.07771 -0.17916,-0.3335 -0.35554,-0.68626 -0.4906,-0.97014 -0.13506,-0.28389 -0.22875,-0.49884 -0.34727,-0.76894 -0.11851,-0.27011 -0.26182,-0.5953 -0.38035,-0.9095 -0.11854,-0.3142 -0.21225,-0.61737 -0.31422,-0.93432 -0.10197,-0.31695 -0.21221,-0.64767 -0.2839,-0.92053 -0.0717,-0.27287 -0.10475,-0.48784 -0.14334,-0.87645 -0.0386,-0.38862 -0.0827,-0.95086 -0.10202,-1.33121 -0.0193,-0.38035 -0.0139,-0.57879 -0.0221,-0.8847 -0.008,-0.30591 -0.0303,-0.71933 -0.0519,-1.4741 -0.0216,-0.75476 -0.0429,-1.85079 -0.0574,-2.67948 -0.0145,-0.82869 -0.0223,-1.38996 -0.0223,-1.86938 -1e-5,-0.47941 0.008,-0.87698 0.0116,-1.1576 0.004,-0.28063 0.004,-0.44433 -0.004,-0.58854 -0.008,-0.14422 -0.0234,-0.26893 0.58474,0.69773 0.60812,0.96666 1.83975,3.0246 2.62708,4.34982 0.78733,1.32522 1.13032,1.91766 1.37588,2.3425 0.24556,0.42485 0.39366,0.68208 0.52229,0.90425 0.12863,0.22217 0.23776,0.40927 0.31572,0.53786 0.078,0.1286 0.12474,0.19878 0.16088,0.23372 0.0361,0.0349 0.0613,0.0349 0.0739,0.0349 0.0125,0 0.0301,0.0175 0.0691,-0.003 0.039,-0.0205 0.11699,-0.0614 0.29629,-0.15106 0.1793,-0.0896 0.45992,-0.228 0.87015,-0.44433 0.41023,-0.21632 0.95005,-0.5106 1.45284,-0.8 0.5028,-0.28941 0.96857,-0.57394 1.45091,-0.86821 0.48233,-0.29427 0.98124,-0.59829 1.43142,-0.86918 0.45018,-0.27089 0.85161,-0.50863 1.24336,-0.73471 0.39174,-0.22608 0.77367,-0.44043 1.05235,-0.61388 0.27868,-0.17344 0.45394,-0.30586 0.58383,-0.38696 0.12989,-0.0811 0.21394,-0.11062 0.2559,-0.12536 0.042,-0.0147 0.0422,-0.0145 0.54601,0.25176 z"/>
                                    </g>
                                </g>
                                <g transform="matrix(0.02292774,0,0,0.02292774,14.092611,-5.0905251)" >
                                    <g >
                                        <path gorn="0.2.51.0.0.0.0.0.10.0.0" style="fill-rule:nonzero;" stroke="#8c8c8c" fill-opacity="1" fill="#ce3020"  stroke-width="0.264583" stroke-opacity="1" id="path37916-5" d="m 254.86106,301.55006 c 1.47542,-0.0166 4.426,-0.0499 7.53766,-0.0661 3.11166,-0.0162 6.38426,-0.0152 8.47576,-0.0248 2.0915,-0.01 3.0018,-0.0298 3.6306,-0.0234 0.62879,0.006 0.97606,0.0395 1.34263,0.0726 0.36656,0.0331 0.75241,0.0661 1.11897,0.13782 0.36657,0.0717 0.71384,0.18194 1.19339,0.4769 0.47954,0.29496 1.09139,0.7745 1.59295,1.35332 0.50156,0.57883 0.89291,1.2568 1.11331,1.84109 0.22041,0.58428 0.27001,1.07486 0.29206,1.50203 0.022,0.42717 0.0166,0.79097 -0.0274,1.19186 -0.044,0.40089 -0.12637,0.8389 -0.3386,1.3184 -0.21222,0.4795 -0.55426,1.00059 -0.8906,1.40717 -0.33634,0.40657 -0.66707,0.69872 -1.12107,0.99417 -0.454,0.29545 -1.03135,0.59423 -1.72922,0.77093 -0.69787,0.1767 -1.51636,0.23126 -2.42383,0.25858 -0.90747,0.0273 -1.90389,0.0274 -3.50196,0.0274 -1.59807,0 -3.79768,-6e-5 -5.77102,-0.006 -1.97335,-0.006 -3.72031,-0.0169 -5.50867,-0.0142 -1.78836,0.003 -3.61801,0.0192 -4.84342,0.0229 -1.22542,0.004 -1.84653,-0.006 -2.26424,-0.0666 -0.41772,-0.061 -0.63209,-0.17408 -0.88937,-0.37867 -0.25728,-0.20458 -0.5574,-0.50078 -0.74651,-0.75021 -0.1891,-0.24942 -0.26705,-0.4521 -0.32387,-0.85478 -0.0568,-0.40268 -0.0924,-1.00534 -0.10754,-1.59886 -0.0151,-0.59352 -0.01,-1.17787 -0.006,-1.94063 0.004,-0.76275 0.007,-1.70385 0.0646,-2.4808 0.0575,-0.77694 0.16945,-1.38961 0.26006,-1.75053 0.0906,-0.36091 0.15992,-0.46994 0.23173,-0.57599 0.0718,-0.10605 0.1461,-0.20906 0.25338,-0.31679 0.10728,-0.10772 0.24747,-0.22008 0.40306,-0.2956 0.15559,-0.0755 0.32642,-0.11421 0.47698,-0.14864 0.15056,-0.0344 0.28086,-0.0646 0.41409,-0.0766 0.13324,-0.012 0.2694,-0.006 0.37261,-0.001 0.10322,0.005 0.17365,0.008 0.20869,0.01 0.035,0.002 0.035,0.002 1.51044,-0.015 z"/>
                                    </g>
                                </g>
                                <g gorn="0.2.51.0.0.0.0.0.11" style="fill:#ce3020;fill-opacity:1"  id="g7015">
                                    <rect height="0.78961587" gorn="0.2.51.0.0.0.0.0.11.0" width="0.4712888" style="paint-order:fill markers stroke" x="5.5727863" fill-opacity="1" fill="#ce3020"  stroke-width="0.264583" y="1.872754" id="rect6413"/>
                                    <ellipse ry="0.30385742" gorn="0.2.51.0.0.0.0.0.11.1" style="paint-order:fill markers stroke" cx="6.03374" rx="0.2997233" cy="2.2799642" fill-opacity="1" fill="#ce3020"  stroke-width="0.264583" id="path6533"/>
                                    <ellipse ry="0.23151042" gorn="0.2.51.0.0.0.0.0.11.2" style="paint-order:fill markers stroke" cx="5.988265" rx="0.29558918" cy="2.1456053" fill-opacity="1" fill="#ce3020"  stroke-width="0.264583" id="path6537"/>
                                    <ellipse ry="0.19016927" gorn="0.2.51.0.0.0.0.0.11.3" style="paint-order:fill markers stroke" cx="5.9841309" rx="0.23771158" cy="2.0711913" fill-opacity="1" fill="#ce3020"  stroke-width="0.264583" id="path6539"/>
                                    <ellipse ry="0.1984375" gorn="0.2.51.0.0.0.0.0.11.4" style="paint-order:fill markers stroke" cx="5.9696612" rx="0.27285156" cy="2.4556639" fill-opacity="1" fill="#ce3020"  stroke-width="0.264583" id="path6543"/>
                                    <ellipse ry="0.10748698" gorn="0.2.51.0.0.0.0.0.11.5" style="paint-order:fill markers stroke" cx="6.0688801" rx="0.18603516" cy="2.4763346" fill-opacity="1" fill="#ce3020"  stroke-width="0.264583" id="path6547"/>
                                </g>
                            </g>
                        </g>
                    </g>
                </g>
            </g>
        </g>
        <g gorn="0.2.52" font-size="0.896056" style="font-style:normal;font-weight:normal;line-height:1.25;font-family:Droid Sans;letter-spacing:0px;word-spacing:0px;" xmlns:xml="http://www.w3.org/XML/1998/namespace" stroke="none" fill-opacity="1" xml:space="preserve" fill="#000000"  stroke-width="0.264583" id="text6841">
            <text gorn="0.2.52.0" font-size="0.896056" x="1.7139585" fill="#ffffff"  stroke-width="0.264583" y="17.012718" id="tspan6839">3V3</text>
        </g>
        <g gorn="0.2.53" font-size="0.896056" style="font-style:normal;font-weight:normal;line-height:1.25;font-family:Droid Sans;letter-spacing:0px;word-spacing:0px;" xmlns:xml="http://www.w3.org/XML/1998/namespace" stroke="none" fill-opacity="1" xml:space="preserve" fill="#000000"  stroke-width="0.264583" id="text7012">
            <text gorn="0.2.53.0" font-size="0.896056" x="1.7139585" fill="#ffffff"  stroke-width="0.264583" y="19.552364" id="tspan7010">BUT0</text>
        </g>
        <g gorn="0.2.54" font-size="0.896056" style="font-style:normal;font-weight:normal;line-height:1.25;font-family:Droid Sans;letter-spacing:0px;word-spacing:0px;" xmlns:xml="http://www.w3.org/XML/1998/namespace" stroke="none" fill-opacity="1" xml:space="preserve" fill="#000000"  stroke-width="0.264583" id="text7016">
            <text gorn="0.2.54.0" font-size="0.896056" x="1.7139585" fill="#ffffff"  stroke-width="0.264583" y="22.184361" id="tspan7014">BUT2</text>
        </g>
        <g gorn="0.2.55" font-size="0.896056" style="font-style:normal;font-weight:normal;line-height:1.25;font-family:Droid Sans;letter-spacing:0px;word-spacing:0px;" xmlns:xml="http://www.w3.org/XML/1998/namespace" stroke="none" fill-opacity="1" xml:space="preserve" fill="#000000"  stroke-width="0.264583" id="text7020">
            <text gorn="0.2.55.0" font-size="0.896056" x="1.7139585" fill="#ffffff"  stroke-width="0.264583" y="24.862532" id="tspan7018">BUT4</text>
        </g>
        <g gorn="0.2.56" font-size="0.896056" style="font-style:normal;font-weight:normal;line-height:1.25;font-family:Droid Sans;letter-spacing:0px;word-spacing:0px;" xmlns:xml="http://www.w3.org/XML/1998/namespace" stroke="none" fill-opacity="1" xml:space="preserve" fill="#000000"  stroke-width="0.264583" id="text7028">
            <text gorn="0.2.56.0" font-size="0.896056" x="1.7139585" fill="#ffffff"  stroke-width="0.264583" y="30.080349" id="tspan7026">BUT7</text>
        </g>
        <g gorn="0.2.57" font-size="0.896056" style="font-style:normal;font-weight:normal;line-height:1.25;font-family:Droid Sans;letter-spacing:0px;word-spacing:0px;" xmlns:xml="http://www.w3.org/XML/1998/namespace" stroke="none" fill-opacity="1" xml:space="preserve" fill="#000000"  stroke-width="0.264583" id="text7032">
            <text gorn="0.2.57.0" font-size="0.896056" x="1.7139585" fill="#ffffff"  stroke-width="0.264583" y="32.527645" id="tspan7030">BUT8</text>
        </g>
        <g gorn="0.2.58" font-size="0.896056" style="font-style:normal;font-weight:normal;line-height:1.25;font-family:Droid Sans;letter-spacing:0px;word-spacing:0px;" xmlns:xml="http://www.w3.org/XML/1998/namespace" stroke="none" fill-opacity="1" xml:space="preserve" fill="#000000"  stroke-width="0.264583" id="text7036">
            <text gorn="0.2.58.0" font-size="0.896056" x="1.7139585" fill="#ffffff"  stroke-width="0.264583" y="35.205818" id="tspan7034">BUT9</text>
        </g>
        <g gorn="0.2.59" font-size="0.896056" style="font-style:normal;font-weight:normal;line-height:1.25;font-family:Droid Sans;letter-spacing:0px;word-spacing:0px;" xmlns:xml="http://www.w3.org/XML/1998/namespace" stroke="none" fill-opacity="1" xml:space="preserve" fill="#000000"  stroke-width="0.264583" id="text7040">
            <text gorn="0.2.59.0" font-size="0.896056" x="19.907055" fill="#ffffff"  stroke-width="0.264583" y="17.012718" id="tspan7038">GND</text>
        </g>
        <g gorn="0.2.60" font-size="0.896056" style="font-style:normal;font-weight:normal;line-height:1.25;font-family:Droid Sans;letter-spacing:0px;word-spacing:0px;" xmlns:xml="http://www.w3.org/XML/1998/namespace" stroke="none" fill-opacity="1" xml:space="preserve" fill="#000000"  stroke-width="0.264583" id="text7044">
            <text gorn="0.2.60.0" font-size="0.896056" x="19.907055" fill="#ffffff"  stroke-width="0.264583" y="19.460012" id="tspan7042">SDA</text>
        </g>
        <g gorn="0.2.61" font-size="0.896056" style="font-style:normal;font-weight:normal;line-height:1.25;font-family:Droid Sans;letter-spacing:0px;word-spacing:0px;" xmlns:xml="http://www.w3.org/XML/1998/namespace" stroke="none" fill-opacity="1" xml:space="preserve" fill="#000000"  stroke-width="0.264583" id="text7048">
            <text gorn="0.2.61.0" font-size="0.896056" x="19.907055" fill="#ffffff"  stroke-width="0.264583" y="22.092009" id="tspan7046">SCL</text>
        </g>
        <g gorn="0.2.62" font-size="0.896056" style="font-style:normal;font-weight:normal;line-height:1.25;font-family:Droid Sans;letter-spacing:0px;word-spacing:0px;" xmlns:xml="http://www.w3.org/XML/1998/namespace" stroke="none" fill-opacity="1" xml:space="preserve" fill="#000000"  stroke-width="0.264583" id="text7052">
            <text gorn="0.2.62.0" font-size="0.896056" x="19.907055" fill="#ffffff"  stroke-width="0.264583" y="24.908707" id="tspan7050">BUT1</text>
        </g>
        <g gorn="0.2.63" font-size="0.896056" style="font-style:normal;font-weight:normal;line-height:1.25;font-family:Droid Sans;letter-spacing:0px;word-spacing:0px;" xmlns:xml="http://www.w3.org/XML/1998/namespace" stroke="none" fill-opacity="1" xml:space="preserve" fill="#000000"  stroke-width="0.264583" id="text7056">
            <text gorn="0.2.63.0" font-size="0.896056" x="19.907055" fill="#ffffff"  stroke-width="0.264583" y="27.217476" id="tspan7054">BUT3</text>
        </g>
        <g gorn="0.2.64" font-size="0.896056" style="font-style:normal;font-weight:normal;line-height:1.25;font-family:Droid Sans;letter-spacing:0px;word-spacing:0px;" xmlns:xml="http://www.w3.org/XML/1998/namespace" stroke="none" fill-opacity="1" xml:space="preserve" fill="#000000"  stroke-width="0.264583" id="text7060">
            <text gorn="0.2.64.0" font-size="0.896056" x="19.907055" fill="#ffffff"  stroke-width="0.264583" y="30.172699" id="tspan7058">BUT5</text>
        </g>
        <g gorn="0.2.65" font-size="0.896056" style="font-style:normal;font-weight:normal;line-height:1.25;font-family:Droid Sans;letter-spacing:0px;word-spacing:0px;" xmlns:xml="http://www.w3.org/XML/1998/namespace" stroke="none" fill-opacity="1" xml:space="preserve" fill="#000000"  stroke-width="0.264583" id="text7064">
            <text gorn="0.2.65.0" font-size="0.896056" x="19.907055" fill="#ffffff"  stroke-width="0.264583" y="32.758518" id="tspan7062">SBWTCK</text>
        </g>
        <g gorn="0.2.66" font-size="0.896056" style="font-style:normal;font-weight:normal;line-height:1.25;font-family:Droid Sans;letter-spacing:0px;word-spacing:0px;" xmlns:xml="http://www.w3.org/XML/1998/namespace" stroke="none" fill-opacity="1" xml:space="preserve" fill="#000000"  stroke-width="0.264583" id="text7068">
            <text gorn="0.2.66.0" font-size="0.896056" x="19.907055" fill="#ffffff"  stroke-width="0.264583" y="35.205814" id="tspan7066">SBWTDIO</text>
        </g>
        <g gorn="0.2.67" font-size="0.896056" style="font-style:normal;font-weight:normal;line-height:1.25;font-family:Droid Sans;letter-spacing:0px;word-spacing:0px;" xmlns:xml="http://www.w3.org/XML/1998/namespace" stroke="none" fill-opacity="1" xml:space="preserve" fill="#000000"  stroke-width="0.264583" id="text7024">
            <text gorn="0.2.67.0" font-size="0.896056" x="1.7139585" fill="#ffffff"  stroke-width="0.264583" y="27.263651" id="tspan7022">BUT6</text>
        </g>
    </g>
</svg>
