<svg xmlns="http://www.w3.org/2000/svg" viewBox="0 0 86 64">
  <g id="breadboard">
    <rect x="10" y="10" width="66" height="38" rx="6" fill="#b53b2d" stroke="#6f2118" stroke-width="2"/>
    <path d="M43 16c5 7 10 10 10 16 0 6-4 10-10 10s-10-4-10-10c0-4 2-7 5-10-1 4 1 6 4 8 1-5 3-8 1-14z" fill="#ffb347"/>
    <path d="M43 22c2 4 4 6 4 10 0 2-2 4-4 4s-4-2-4-4c0-2 1-4 3-6 0 2 1 3 2 4 0-3 1-5-1-8z" fill="#ffd17e"/>
    <text x="43" y="54" font-size="7" text-anchor="middle" fill="#ffffff" font-family="Arial">FLAME</text>
    <rect id="connector0pin" x="23" y="48" width="4" height="12" fill="#caa24d"/>
    <rect id="connector1pin" x="35" y="48" width="4" height="12" fill="#caa24d"/>
    <rect id="connector2pin" x="47" y="48" width="4" height="12" fill="#caa24d"/>
    <rect id="connector3pin" x="59" y="48" width="4" height="12" fill="#caa24d"/>
  </g>
</svg>
