<?xml version='1.0' encoding='UTF-8' standalone='no'?>
<svg
  xmlns:dc="http://purl.org/dc/elements/1.1/"
  xmlns:cc="http://creativecommons.org/ns#"
  xmlns:rdf="http://www.w3.org/1999/02/22-rdf-syntax-ns#"
  xmlns:svg="http://www.w3.org/2000/svg"
  xmlns="http://www.w3.org/2000/svg"
  enable-background="new 0 -0.355 76.535 76.917"
  id="Layer_1"
  y="0px"
  x="0px"
  width="1.0629896in"
  xml:space="preserve"
  height="1.0682917in"
  viewBox="0 0 1062.9899 1068.292"
  version="1.1"
  gorn="0">
  <metadata
    id="metadata139">
    <rdf:RDF>
      <cc:Work
        rdf:about="">
        <dc:format>image/svg+xml</dc:format>
        <dc:type
          rdf:resource="http://purl.org/dc/dcmitype/StillImage"
        />
        <dc:title/>
      </cc:Work>
    </rdf:RDF>
  </metadata>
  <defs
    id="defs137">
  </defs>
  <g
    id="breadboard">
    <path
      stroke-width="13.88891411"
      fill="#165c7a"
      d="m 0,0 v 1068.292 h 267.70929 c 0,0 0,-39.8055 0,-59.0417 0,-19.23606 19.68063,-19.68051 19.68063,-19.68051 h 488.21009 c 0,0 19.68063,0.41667 19.68063,19.68051 0,19.2639 0,59.0417 0,59.0417 H 1062.9899 V 0 Z m 81.597516,9.8194443 c 38.041804,0 68.694684,30.8194477 68.694684,68.9027837 0,38.097212 -30.68066,68.889162 -68.694684,68.889162 -38.055694,0 -69.097471,-30.79195 -69.097471,-68.903051 C 12.486155,40.652781 43.514044,9.8194443 81.597516,9.8194443 Z M 81.541956,1061.0281 c -38.027916,0 -68.903026,-30.8333 -68.903026,-68.91664 0,-38.09723 30.861221,-68.88889 68.903026,-68.88889 38.041804,0 68.889134,30.79166 68.889134,68.88889 0,38.09724 -30.84733,68.91664 -68.889134,68.91664 z M 381.50136,103.73611 c -13.81949,0 -24.97231,-11.208326 -24.97231,-24.999994 0,-13.791667 11.19449,-25.01389 24.97231,-25.01389 13.8195,0 25.01398,11.236112 25.01398,25.01389 0,13.805554 -11.20837,24.999994 -25.01398,24.999994 z m 100.01425,0 c -13.81949,0 -25.01398,-11.208326 -25.01398,-24.999994 0,-13.791667 11.20837,-25.01389 25.01398,-25.01389 13.77783,0 24.97231,11.236112 24.97231,25.01389 0,13.805554 -11.19448,24.999994 -24.97231,24.999994 z m 100.00038,-0.0139 c -13.77783,0 -24.9862,-11.194446 -24.9862,-24.986114 0,-13.791667 11.20837,-25.000001 24.9862,-25.000001 13.8056,0 25.01398,11.222223 25.01398,25.000001 0,13.805553 -11.20838,24.986114 -25.01398,24.986114 z m 99.98647,0.0139 c -13.79172,0 -24.9862,-11.208326 -24.9862,-24.999994 0,-13.791667 11.19448,-25.01389 24.9862,-25.01389 13.8056,0 25.01397,11.236112 25.01397,25.01389 0,13.805554 -11.19448,24.999994 -25.01397,24.999994 z m 299.93162,957.29199 c -38.09736,0 -68.90302,-30.8333 -68.90302,-68.90276 0,-38.06944 30.80566,-68.90277 68.90302,-68.90277 38.01402,0 68.90302,30.83333 68.90302,68.90277 0,38.06946 -30.889,68.90276 -68.90302,68.90276 z m -0.0556,-913.40282 c -38.05569,0 -68.69469,-30.79194 -68.69469,-68.889164 0,-38.069446 30.639,-68.8888935 68.69469,-68.8888935 38.09742,0 69.09752,30.8055585 69.09752,68.8888935 0,38.097224 -31.0418,68.889164 -69.09752,68.889164 z"
      id="path4"
    />
    <rect
      stroke-width="13.88891411"
      fill="#3e3d40"
      gorn="0.0.0.0.0.0.0.0.1.1"
      height="759.84729"
      width="1047.226"
      x="7.8750277"
      y="153.54211"
      id="rect4903"
    />
    <rect
      stroke-width="13.88891411"
      gorn="0.0.0.0.0.0.0.0.1.2"
      height="590.56952"
      width="1047.226"
      x="7.8750277"
      y="153.54211"
      id="rect4903_1_"
    />
    <rect
      stroke-width="13.88891411"
      fill="#2e2d30"
      opacity="0.8"
      height="511.81952"
      width="968.50348"
      x="47.236279"
      y="192.91656"
      enable-background="new    "
      id="rect8"
    />
    <path
      stroke-width="13.88891411"
      fill="#58585a"
      opacity="0.2"
      d="M 47.23628,704.70866 V 192.91695 H 506.44625 C 621.08557,497.1392 781.50281,704.73643 781.50281,704.73643 H 47.23628 Z"
      enable-background="new    "
      id="path10"
    />
    <path
      stroke-width="15.31530571"
      stroke="#f7bd13"
      fill="none"
      gorn="0.0.0.0.0.0.0.0.1.5"
      d="m 1048.3649,78.736116 c 0,36.958334 -29.9863,66.916944 -66.91693,66.916944 -36.95846,0 -66.94468,-29.95861 -66.94468,-66.916944 0,-36.972225 29.98622,-66.916671 66.94468,-66.916671 36.93063,0 66.91693,29.972225 66.91693,66.916671 z"
      id="path10269"
    />
    <path
      stroke-width="15.31530571"
      stroke="#f7bd13"
      fill="none"
      gorn="0.0.0.0.0.0.0.0.1.6"
      d="m 148.47275,78.736116 c 0,36.958334 -29.97233,66.930824 -66.916901,66.930824 -36.972356,0 -66.944686,-29.95861 -66.944686,-66.930824 0,-36.972225 29.97233,-66.93056 66.944686,-66.93056 36.944571,0 66.916901,29.986114 66.916901,66.93056 z"
      id="path10269_2_"
    />
    <path
      stroke-width="15.31530571"
      stroke="#f7bd13"
      fill="none"
      gorn="0.0.0.0.0.0.0.0.1.7"
      d="m 1048.3649,992.12534 c 0,36.94436 -29.9863,66.91666 -66.91693,66.91666 -36.95846,0 -66.94468,-29.9444 -66.94468,-66.91666 0,-36.97222 29.98622,-66.91667 66.94468,-66.91667 36.93063,0 66.91693,29.97223 66.91693,66.91667 z"
      id="path10269_3_"
    />
    <path
      stroke-width="15.31530571"
      stroke="#f7bd13"
      fill="none"
      gorn="0.0.0.0.0.0.0.0.1.8"
      d="m 148.47275,992.12534 c 0,36.95836 -29.98622,66.91666 -66.916901,66.91666 -36.958467,0 -66.944686,-29.9444 -66.944686,-66.91666 0,-36.97222 29.986219,-66.91667 66.944686,-66.91667 36.930681,0 66.916901,29.97223 66.916901,66.91667 z"
      id="path10269_4_"
    />
    <path
      stroke-width="13.88891411"
      fill="url(#SVGID_1_)"
      d="M 747.40547,949.75034 H 315.59835 c -11.29171,0.56945 -20.31952,9.84723 -20.31952,21.29167 v 77.30559 h 472.44616 v -77.30559 c -0.0139,-11.44444 -9.01393,-20.72222 -20.31952,-21.29167 z"
      id="path24"
    />
    <path
      stroke-width="13.88891411"
      d="m 279.07044,913.38923 v 1.15277 c 19.84729,0 35.88902,16.05556 35.88902,35.87501 v 97.93059 h 433.07101 v -97.93059 c 0,-19.81945 16.05561,-35.87501 35.88902,-35.87501 v -1.15277 z"
      id="path26"
    />
    <rect
      stroke-width="13.88891411"
      fill="#292929"
      height="169.27779"
      width="504.849"
      x="279.07043"
      y="744.11072"
      id="rect28"
    />
    <rect
      stroke-width="13.88891411"
      fill="#1a171b"
      opacity="0.8"
      gorn="0.0.0.0.0.0.0.0.1.14"
      height="37.986111"
      width="1047.226"
      x="7.8750277"
      y="744.09717"
      id="rect4903_2_"
      enable-background="new    "
    />
    <text
      stroke-width="13.88891411"
      fill="#ffffff"
      font-family="DroidSans"
      font-size="34.72228622"
      id="text31"
      x="741.10413"
      y="92.667862"
      transform="scale(1.0000017,0.9999983)">4</text>
    <text
      stroke-width="13.88891411"
      fill="#ffffff"
      font-family="DroidSans"
      font-size="34.72228622"
      id="text45"
      x="302.78946"
      y="92.667862"
      transform="scale(1.0000017,0.9999983)">1</text>
    <text
      stroke-width="13.88891411"
      fill="#ffffff"
      font-family="DroidSans"
      font-size="34.72228622"
      id="text59"
      x="344.57843"
      y="146.21121"
      transform="scale(1.0000017,0.9999983)">VDD</text>
    <text
      stroke-width="13.88891411"
      fill="#ffffff"
      font-family="DroidSans"
      font-size="34.72228622"
      id="text73"
      x="447.47723"
      y="146.21121"
      transform="scale(1.0000017,0.9999983)">GND</text>
    <text
      stroke-width="13.88891411"
      fill="#ffffff"
      font-family="DroidSans"
      font-size="34.72228622"
      id="text87"
      x="551.56903"
      y="146.21121"
      transform="scale(1.0000017,0.9999983)">SCK</text>
    <text
      stroke-width="13.88891411"
      fill="#ffffff"
      font-family="DroidSans"
      font-size="34.72228622"
      id="text101"
      x="649.65948"
      y="146.21121"
      transform="scale(1.0000017,0.9999983)">SDA</text>
    <circle
      stroke-width="20"
      stroke="#f7bd13"
      fill="none"
      gorn="0.0.0.0.0.0.0.0.1.24"
      cy="78.722336"
      cx="381.51526"
      id="connector0pin"
      r="29"
    />
    <circle
      stroke-width="20"
      stroke="#f7bd13"
      fill="none"
      gorn="0.0.0.0.0.0.0.0.1.23"
      cy="78.735901"
      cx="481.51559"
      id="connector1pin"
      r="29"
    />
    <circle
      stroke-width="20"
      stroke="#f7bd13"
      fill="none"
      gorn="0.0.0.0.0.0.0.0.1.22"
      cy="78.735901"
      cx="581.51593"
      id="connector2pin"
      r="29"
    />
    <circle
      stroke-width="20"
      stroke="#f7bd13"
      fill="none"
      gorn="0.0.0.0.0.0.0.0.1.21"
      cy="78.735901"
      cx="681.47467"
      id="connector3pin"
      r="29"
    />
  </g>
</svg>
