<?xml version='1.0' encoding='UTF-8' standalone='no'?>
<svg xmlns="http://www.w3.org/2000/svg"  height="124.66667" id="svg2" gorn="0" version="1.1" xmlns:xml="http://www.w3.org/XML/1998/namespace" xml:space="preserve" viewBox="0 0 124.66667 124.66667" width="124.66667">
    <desc >
        <referenceFile >Camera.svg</referenceFile>
    </desc>
    <metadata  id="metadata8">
        <rdf:RDF xmlns:rdf="http://www.w3.org/1999/02/22-rdf-syntax-ns#">
            <cc:Work xmlns:rdf="http://www.w3.org/1999/02/22-rdf-syntax-ns#" rdf:about="" xmlns:cc="http://creativecommons.org/ns#">
                <dc:format xmlns:dc="http://purl.org/dc/elements/1.1/">image/svg+xml</dc:format>
                <dc:type xmlns:rdf="http://www.w3.org/1999/02/22-rdf-syntax-ns#" xmlns:dc="http://purl.org/dc/elements/1.1/" rdf:resource="http://purl.org/dc/dcmitype/StillImage"/>
            </cc:Work>
        </rdf:RDF>
    </metadata>
    <defs  id="defs6"/>
    <g  transform="matrix(1.3333333,0,0,-1.3333333,0,124.66667)">
        <g >
            <g  id="g10" gorn="0.3.0.0">
                <path stroke="none"  id="path12" gorn="0.3.0.0.0" style="fill-rule:nonzero;" fill="#12344a" d="M 0,0 H 93.5 V 93.5 H 0 Z" fill-opacity="1"/>
                <g  id="g14" gorn="0.3.0.0.1">
                    <g  id="g16" gorn="0.3.0.0.1.0" clip-path="url(#clipPath20)">
                        <g  transform="translate(12,86)">
                            <g >
                                <g  id="g22" gorn="0.3.0.0.1.0.0.0.0">
                                    <path stroke="none"  id="path24" gorn="0.3.0.0.1.0.0.0.0.0" style="fill-rule:nonzero;" fill="#ffffff" d="M 0,0 C 0,-2.485 -2.015,-4.5 -4.5,-4.5 -6.985,-4.5 -9,-2.485 -9,0 -9,2.485 -6.985,4.5 -4.5,4.5 -2.015,4.5 0,2.485 0,0" fill-opacity="1"/>
                                </g>
                            </g>
                        </g>
                        <g  transform="translate(90.5,86)">
                            <g >
                                <g  id="g26" gorn="0.3.0.0.1.0.1.0.0">
                                    <path stroke="none"  id="path28" gorn="0.3.0.0.1.0.1.0.0.0" style="fill-rule:nonzero;" fill="#ffffff" d="M 0,0 C 0,-2.485 -2.015,-4.5 -4.5,-4.5 -6.985,-4.5 -9,-2.485 -9,0 -9,2.485 -6.985,4.5 -4.5,4.5 -2.015,4.5 0,2.485 0,0" fill-opacity="1"/>
                                </g>
                            </g>
                        </g>
                        <g  transform="translate(12,7.5)">
                            <g >
                                <g  id="g30" gorn="0.3.0.0.1.0.2.0.0">
                                    <path stroke="none"  id="path32" gorn="0.3.0.0.1.0.2.0.0.0" style="fill-rule:nonzero;" fill="#ffffff" d="M 0,0 C 0,-2.485 -2.015,-4.5 -4.5,-4.5 -6.985,-4.5 -9,-2.485 -9,0 -9,2.485 -6.985,4.5 -4.5,4.5 -2.015,4.5 0,2.485 0,0" fill-opacity="1"/>
                                </g>
                            </g>
                        </g>
                        <g  transform="translate(90.5,7.5)">
                            <g >
                                <g  id="g34" gorn="0.3.0.0.1.0.3.0.0">
                                    <path stroke="none"  id="path36" gorn="0.3.0.0.1.0.3.0.0.0" style="fill-rule:nonzero;" fill="#ffffff" d="M 0,0 C 0,-2.485 -2.015,-4.5 -4.5,-4.5 -6.985,-4.5 -9,-2.485 -9,0 -9,2.485 -6.985,4.5 -4.5,4.5 -2.015,4.5 0,2.485 0,0" fill-opacity="1"/>
                                </g>
                            </g>
                        </g>
                        <g  transform="translate(55.1667,55.75)">
                            <g >
                                <g  id="g38" gorn="0.3.0.0.1.0.4.0.0">
                                    <path stroke="#232a2c"  id="path40" gorn="0.3.0.0.1.0.4.0.0.0" style="stroke-linecap:butt;stroke-linejoin:miter;stroke-miterlimit:10;stroke-dasharray:none;" fill="none" d="m 0,0 c 0,-4.648 -3.768,-8.417 -8.417,-8.417 -4.648,0 -8.416,3.769 -8.416,8.417 0,4.648 3.768,8.417 8.416,8.417 C -3.768,8.417 0,4.648 0,0 Z" stroke-width="1" stroke-opacity="1"/>
                                </g>
                            </g>
                        </g>
                        <g  transform="translate(68.6619,34.1172)">
                            <g >
                                <g  id="g42" gorn="0.3.0.0.1.0.5.0.0">
                                    <path stroke="none"  id="path44" gorn="0.3.0.0.1.0.5.0.0.0" style="fill-rule:nonzero;" fill="#384249" d="m 0,0 h -43.164 c -1.566,0 -2.835,1.269 -2.835,2.835 v 41.713 c 0,1.566 1.269,2.835 2.835,2.835 H 0 c 1.566,0 2.835,-1.269 2.835,-2.835 V 2.835 C 2.835,1.269 1.566,0 0,0" fill-opacity="1"/>
                                </g>
                            </g>
                        </g>
                        <g  transform="translate(24.5382,58.6172)">
                            <g >
                                <g  id="g46" gorn="0.3.0.0.1.0.6.0.0">
                                    <path stroke="none"  id="path48" gorn="0.3.0.0.1.0.6.0.0.0" style="fill-rule:nonzero;" fill="#384249" d="m 0,0 c 0,-3.337 -2.705,-6.042 -6.042,-6.042 -3.336,0 -6.041,2.705 -6.041,6.042 0,3.337 2.705,6.042 6.041,6.042 C -2.705,6.042 0,3.337 0,0" fill-opacity="1"/>
                                </g>
                            </g>
                        </g>
                        <g  transform="translate(79.5382,58.6172)">
                            <g >
                                <g  id="g50" gorn="0.3.0.0.1.0.7.0.0">
                                    <path stroke="none"  id="path52" gorn="0.3.0.0.1.0.7.0.0.0" style="fill-rule:nonzero;" fill="#384249" d="m 0,0 c 0,-3.337 -2.705,-6.042 -6.042,-6.042 -3.336,0 -6.041,2.705 -6.041,6.042 0,3.337 2.705,6.042 6.041,6.042 C -2.705,6.042 0,3.337 0,0" fill-opacity="1"/>
                                </g>
                            </g>
                        </g>
                        <path stroke="none"  id="path54" gorn="0.3.0.0.1.0.8" style="fill-rule:nonzero;" fill="#384249" d="m 73.497,52.576 h -6.62 v 12.083 h 6.62 z" fill-opacity="1"/>
                        <path stroke="none"  id="path56" gorn="0.3.0.0.1.0.9" style="fill-rule:nonzero;" fill="#384249" d="m 24.307,52.576 h -6.62 v 12.083 h 6.62 z" fill-opacity="1"/>
                        <g  transform="translate(68.1124,57.6172)">
                            <g >
                                <g  id="g58" gorn="0.3.0.0.1.0.10.0.0">
                                    <path stroke="none"  id="path60" gorn="0.3.0.0.1.0.10.0.0.0" style="fill-rule:nonzero;" fill="#384249" d="m 0,0 c 0,-11.798 -9.564,-21.362 -21.362,-21.362 -11.799,0 -21.363,9.564 -21.363,21.362 0,11.798 9.564,21.362 21.363,21.362 C -9.564,21.362 0,11.798 0,0" fill-opacity="1"/>
                                </g>
                            </g>
                        </g>
                        <g  transform="translate(68.1124,57.6172)">
                            <g >
                                <g  id="g62" gorn="0.3.0.0.1.0.11.0.0">
                                    <path stroke="#31393d"  id="path64" gorn="0.3.0.0.1.0.11.0.0.0" style="stroke-linecap:butt;stroke-linejoin:miter;stroke-miterlimit:10;stroke-dasharray:none;" fill="none" d="m 0,0 c 0,-11.798 -9.564,-21.362 -21.362,-21.362 -11.799,0 -21.363,9.564 -21.363,21.362 0,11.798 9.564,21.362 21.363,21.362 C -9.564,21.362 0,11.798 0,0 Z" stroke-width="2.83500004" stroke-opacity="1"/>
                                </g>
                            </g>
                        </g>
                        <g  transform="translate(58.5266,57.6172)">
                            <g >
                                <g  id="g66" gorn="0.3.0.0.1.0.12.0.0">
                                    <path stroke="none"  id="path68" gorn="0.3.0.0.1.0.12.0.0.0" style="fill-rule:nonzero;" fill="#151b24" d="m 0,0 c 0,-6.504 -5.273,-11.777 -11.777,-11.777 -6.504,0 -11.776,5.273 -11.776,11.777 0,6.504 5.272,11.777 11.776,11.777 C -5.273,11.777 0,6.504 0,0" fill-opacity="1"/>
                                </g>
                            </g>
                        </g>
                        <g  transform="translate(49.308,57.6172)">
                            <g >
                                <g  id="g70" gorn="0.3.0.0.1.0.13.0.0">
                                    <path stroke="none"  id="path72" gorn="0.3.0.0.1.0.13.0.0.0" style="fill-rule:nonzero;" fill="#151c34" d="m 0,0 c 0,-1.413 -1.145,-2.558 -2.558,-2.558 -1.413,0 -2.558,1.145 -2.558,2.558 0,1.413 1.145,2.558 2.558,2.558 C -1.145,2.558 0,1.413 0,0" fill-opacity="1"/>
                                </g>
                            </g>
                        </g>
                        <g  transform="translate(49.308,57.6172)">
                            <g >
                                <g  id="g74" gorn="0.3.0.0.1.0.14.0.0">
                                    <path stroke="#222323"  id="path76" gorn="0.3.0.0.1.0.14.0.0.0" style="stroke-linecap:butt;stroke-linejoin:miter;stroke-miterlimit:10;stroke-dasharray:none;" fill="none" d="m 0,0 c 0,-1.413 -1.145,-2.558 -2.558,-2.558 -1.413,0 -2.558,1.145 -2.558,2.558 0,1.413 1.145,2.558 2.558,2.558 C -1.145,2.558 0,1.413 0,0 Z" stroke-width="1" stroke-opacity="1"/>
                                </g>
                            </g>
                        </g>
                        <path stroke="none"  id="path78" gorn="0.3.0.0.1.0.15" style="fill-rule:nonzero;" fill="#a0ad9e" d="m 9.25,34.333 h -3.5 v 4 h 3.5 z" fill-opacity="1"/>
                        <path stroke="none"  id="path80" gorn="0.3.0.0.1.0.16" style="fill-rule:nonzero;" fill="#a0ad9e" d="m 9.25,28.271 h -3.5 v 4 h 3.5 z" fill-opacity="1"/>
                        <path stroke="none"  id="path82" gorn="0.3.0.0.1.0.17" style="fill-rule:nonzero;" fill="#a0ad9e" d="m 9.25,21.333 h -3.5 v 4 h 3.5 z" fill-opacity="1"/>
                        <path stroke="none"  id="path84" gorn="0.3.0.0.1.0.18" style="fill-rule:nonzero;" fill="#a0ad9e" d="m 9.25,15.271 h -3.5 v 4 h 3.5 z" fill-opacity="1"/>
                        <g  transform="translate(21.9965,20.4236)">
                            <g >
                                <g  id="g86" gorn="0.3.0.0.1.0.19.0.0">
                                    <path stroke="none"  id="connector9pin" gorn="0.3.0.0.1.0.19.0.0.0" style="fill-rule:nonzero;" fill="#a0ad9e" d="m 0,0 c 0,-1.105 -0.895,-2 -2,-2 -1.105,0 -2,0.895 -2,2 0,1.105 0.895,2 2,2 1.105,0 2,-0.895 2,-2" fill-opacity="1"/>
                                </g>
                            </g>
                        </g>
                        <g  transform="translate(28.7673,20.4236)">
                            <g >
                                <g  id="g90" gorn="0.3.0.0.1.0.20.0.0">
                                    <path stroke="none"  id="connector10pin" gorn="0.3.0.0.1.0.20.0.0.0" style="fill-rule:nonzero;" fill="#a0ad9e" d="m 0,0 c 0,-1.105 -0.895,-2 -2,-2 -1.105,0 -2,0.895 -2,2 0,1.105 0.895,2 2,2 1.105,0 2,-0.895 2,-2" fill-opacity="1"/>
                                </g>
                            </g>
                        </g>
                        <g  transform="translate(35.5382,20.4236)">
                            <g >
                                <g  id="g94" gorn="0.3.0.0.1.0.21.0.0">
                                    <path stroke="none"  id="connector11pin" gorn="0.3.0.0.1.0.21.0.0.0" style="fill-rule:nonzero;" fill="#a0ad9e" d="m 0,0 c 0,-1.105 -0.895,-2 -2,-2 -1.105,0 -2,0.895 -2,2 0,1.105 0.895,2 2,2 1.105,0 2,-0.895 2,-2" fill-opacity="1"/>
                                </g>
                            </g>
                        </g>
                        <g  transform="translate(42.309,20.4236)">
                            <g >
                                <g  id="g98" gorn="0.3.0.0.1.0.22.0.0">
                                    <path stroke="none"  id="connector12pin" gorn="0.3.0.0.1.0.22.0.0.0" style="fill-rule:nonzero;" fill="#a0ad9e" d="m 0,0 c 0,-1.105 -0.895,-2 -2,-2 -1.105,0 -2,0.895 -2,2 0,1.105 0.895,2 2,2 1.105,0 2,-0.895 2,-2" fill-opacity="1"/>
                                </g>
                            </g>
                        </g>
                        <g  transform="translate(49.0798,20.4236)">
                            <g >
                                <g  id="g102" gorn="0.3.0.0.1.0.23.0.0">
                                    <path stroke="none"  id="connector13pin" gorn="0.3.0.0.1.0.23.0.0.0" style="fill-rule:nonzero;" fill="#a0ad9e" d="m 0,0 c 0,-1.105 -0.895,-2 -2,-2 -1.105,0 -2,0.895 -2,2 0,1.105 0.895,2 2,2 1.105,0 2,-0.895 2,-2" fill-opacity="1"/>
                                </g>
                            </g>
                        </g>
                        <g  transform="translate(55.8507,20.4236)">
                            <g >
                                <g  id="g106" gorn="0.3.0.0.1.0.24.0.0">
                                    <path stroke="none"  id="connector14pin" gorn="0.3.0.0.1.0.24.0.0.0" style="fill-rule:nonzero;" fill="#a0ad9e" d="m 0,0 c 0,-1.105 -0.895,-2 -2,-2 -1.105,0 -2,0.895 -2,2 0,1.105 0.895,2 2,2 1.105,0 2,-0.895 2,-2" fill-opacity="1"/>
                                </g>
                            </g>
                        </g>
                        <g  transform="translate(62.6215,20.4236)">
                            <g >
                                <g  id="g110" gorn="0.3.0.0.1.0.25.0.0">
                                    <path stroke="none"  id="connector15pin" gorn="0.3.0.0.1.0.25.0.0.0" style="fill-rule:nonzero;" fill="#a0ad9e" d="m 0,0 c 0,-1.105 -0.895,-2 -2,-2 -1.105,0 -2,0.895 -2,2 0,1.105 0.895,2 2,2 1.105,0 2,-0.895 2,-2" fill-opacity="1"/>
                                </g>
                            </g>
                        </g>
                        <g  transform="translate(69.3923,20.4236)">
                            <g >
                                <g  id="g114" gorn="0.3.0.0.1.0.26.0.0">
                                    <path stroke="none"  id="connector16pin" gorn="0.3.0.0.1.0.26.0.0.0" style="fill-rule:nonzero;" fill="#a0ad9e" d="m 0,0 c 0,-1.105 -0.895,-2 -2,-2 -1.105,0 -2,0.895 -2,2 0,1.105 0.895,2 2,2 1.105,0 2,-0.895 2,-2" fill-opacity="1"/>
                                </g>
                            </g>
                        </g>
                        <g  transform="translate(76.1632,20.4236)">
                            <g >
                                <g  id="g118" gorn="0.3.0.0.1.0.27.0.0">
                                    <path stroke="none"  id="connector17pin" gorn="0.3.0.0.1.0.27.0.0.0" style="fill-rule:nonzero;" fill="#a0ad9e" d="m 0,0 c 0,-1.105 -0.895,-2 -2,-2 -1.105,0 -2,0.895 -2,2 0,1.105 0.895,2 2,2 1.105,0 2,-0.895 2,-2" fill-opacity="1"/>
                                </g>
                            </g>
                        </g>
                        <g  transform="translate(21.9965,14.1181)">
                            <g >
                                <g  id="g122" gorn="0.3.0.0.1.0.28.0.0">
                                    <path stroke="none"  id="connector0pin" gorn="0.3.0.0.1.0.28.0.0.0" style="fill-rule:nonzero;" fill="#a0ad9e" d="m 0,0 c 0,-1.105 -0.895,-2 -2,-2 -1.105,0 -2,0.895 -2,2 0,1.105 0.895,2 2,2 1.105,0 2,-0.895 2,-2" fill-opacity="1"/>
                                </g>
                            </g>
                        </g>
                        <g  transform="translate(28.7673,14.1181)">
                            <g >
                                <g  id="g126" gorn="0.3.0.0.1.0.29.0.0">
                                    <path stroke="none"  id="connector1pin" gorn="0.3.0.0.1.0.29.0.0.0" style="fill-rule:nonzero;" fill="#a0ad9e" d="m 0,0 c 0,-1.105 -0.895,-2 -2,-2 -1.105,0 -2,0.895 -2,2 0,1.105 0.895,2 2,2 1.105,0 2,-0.895 2,-2" fill-opacity="1"/>
                                </g>
                            </g>
                        </g>
                        <g  transform="translate(35.5382,14.1181)">
                            <g >
                                <g  id="g130" gorn="0.3.0.0.1.0.30.0.0">
                                    <path stroke="none"  id="connector2pin" gorn="0.3.0.0.1.0.30.0.0.0" style="fill-rule:nonzero;" fill="#a0ad9e" d="m 0,0 c 0,-1.105 -0.895,-2 -2,-2 -1.105,0 -2,0.895 -2,2 0,1.105 0.895,2 2,2 1.105,0 2,-0.895 2,-2" fill-opacity="1"/>
                                </g>
                            </g>
                        </g>
                        <g  transform="translate(42.309,14.1181)">
                            <g >
                                <g  id="g134" gorn="0.3.0.0.1.0.31.0.0">
                                    <path stroke="none"  id="connector3pin" gorn="0.3.0.0.1.0.31.0.0.0" style="fill-rule:nonzero;" fill="#a0ad9e" d="m 0,0 c 0,-1.105 -0.895,-2 -2,-2 -1.105,0 -2,0.895 -2,2 0,1.105 0.895,2 2,2 1.105,0 2,-0.895 2,-2" fill-opacity="1"/>
                                </g>
                            </g>
                        </g>
                        <g  transform="translate(49.0798,14.1181)">
                            <g >
                                <g  id="g138" gorn="0.3.0.0.1.0.32.0.0">
                                    <path stroke="none"  id="connector4pin" gorn="0.3.0.0.1.0.32.0.0.0" style="fill-rule:nonzero;" fill="#a0ad9e" d="m 0,0 c 0,-1.105 -0.895,-2 -2,-2 -1.105,0 -2,0.895 -2,2 0,1.105 0.895,2 2,2 1.105,0 2,-0.895 2,-2" fill-opacity="1"/>
                                </g>
                            </g>
                        </g>
                        <g  transform="translate(55.8507,14.1181)">
                            <g >
                                <g  id="g142" gorn="0.3.0.0.1.0.33.0.0">
                                    <path stroke="none"  id="connector5pin" gorn="0.3.0.0.1.0.33.0.0.0" style="fill-rule:nonzero;" fill="#a0ad9e" d="m 0,0 c 0,-1.105 -0.895,-2 -2,-2 -1.105,0 -2,0.895 -2,2 0,1.105 0.895,2 2,2 1.105,0 2,-0.895 2,-2" fill-opacity="1"/>
                                </g>
                            </g>
                        </g>
                        <g  transform="translate(62.6215,14.1181)">
                            <g >
                                <g  id="g146" gorn="0.3.0.0.1.0.34.0.0">
                                    <path stroke="none"  id="connector6pin" gorn="0.3.0.0.1.0.34.0.0.0" style="fill-rule:nonzero;" fill="#a0ad9e" d="m 0,0 c 0,-1.105 -0.895,-2 -2,-2 -1.105,0 -2,0.895 -2,2 0,1.105 0.895,2 2,2 1.105,0 2,-0.895 2,-2" fill-opacity="1"/>
                                </g>
                            </g>
                        </g>
                        <g  transform="translate(69.3923,14.1181)">
                            <g >
                                <g  id="g150" gorn="0.3.0.0.1.0.35.0.0">
                                    <path stroke="none"  id="connector7pin" gorn="0.3.0.0.1.0.35.0.0.0" style="fill-rule:nonzero;" fill="#a0ad9e" d="m 0,0 c 0,-1.105 -0.895,-2 -2,-2 -1.105,0 -2,0.895 -2,2 0,1.105 0.895,2 2,2 1.105,0 2,-0.895 2,-2" fill-opacity="1"/>
                                </g>
                            </g>
                        </g>
                        <g  transform="translate(76.1632,14.1181)">
                            <g >
                                <g  id="g154" gorn="0.3.0.0.1.0.36.0.0">
                                    <path stroke="none"  id="connector8pin" gorn="0.3.0.0.1.0.36.0.0.0" style="fill-rule:nonzero;" fill="#a0ad9e" d="m 0,0 c 0,-1.105 -0.895,-2 -2,-2 -1.105,0 -2,0.895 -2,2 0,1.105 0.895,2 2,2 1.105,0 2,-0.895 2,-2" fill-opacity="1"/>
                                </g>
                            </g>
                        </g>
                        <g  transform="translate(19.5482,7.3465)">
                            <g >
                                <g  id="g158" gorn="0.3.0.0.1.0.37.0.0">
                                    <path stroke="none"  id="path160" gorn="0.3.0.0.1.0.37.0.0.0" style="fill-rule:nonzero;" fill="#ffffff" d="M 0,0 C 0.125,0 0.231,-0.041 0.317,-0.121 0.403,-0.201 0.458,-0.31 0.481,-0.445 H 0.49 c 0.02,0.166 0.072,0.292 0.155,0.379 0.083,0.086 0.195,0.129 0.335,0.129 0.189,0 0.335,-0.065 0.439,-0.197 0.104,-0.131 0.156,-0.32 0.156,-0.566 0,-0.21 -0.038,-0.393 -0.115,-0.55 H 1.323 c 0.041,0.08 0.073,0.168 0.095,0.267 0.024,0.098 0.035,0.191 0.035,0.277 0,0.208 -0.041,0.364 -0.123,0.469 -0.083,0.104 -0.2,0.156 -0.35,0.156 -0.134,0 -0.237,-0.053 -0.309,-0.16 C 0.599,-0.348 0.563,-0.505 0.563,-0.712 V -0.935 H 0.43 v 0.226 c 0,0.171 -0.039,0.307 -0.119,0.407 -0.08,0.101 -0.188,0.151 -0.325,0.151 -0.112,0 -0.203,-0.041 -0.271,-0.122 -0.068,-0.082 -0.101,-0.188 -0.101,-0.32 0,-0.103 0.014,-0.197 0.042,-0.281 0.028,-0.085 0.076,-0.18 0.145,-0.285 l -0.093,-0.07 c -0.065,0.081 -0.118,0.177 -0.156,0.29 -0.038,0.113 -0.057,0.227 -0.057,0.343 0,0.19 0.044,0.337 0.132,0.441 C -0.285,-0.052 -0.161,0 0,0" fill-opacity="1"/>
                                </g>
                            </g>
                        </g>
                        <g  transform="translate(19.0721,9.1268)">
                            <g >
                                <g  id="g162" gorn="0.3.0.0.1.0.38.0.0">
                                    <path stroke="none"  id="path164" gorn="0.3.0.0.1.0.38.0.0.0" style="fill-rule:nonzero;" fill="#ffffff" d="M 0,0 V 0.157 L 2.023,-0.616 V -0.743 L 0,-1.512 v 0.154 l 1.377,0.519 c 0.207,0.079 0.364,0.132 0.468,0.16 -0.069,0.018 -0.177,0.056 -0.323,0.111 z" fill-opacity="1"/>
                                </g>
                            </g>
                        </g>
                        <g  transform="translate(19.5482,10.6658)">
                            <g >
                                <g  id="g166" gorn="0.3.0.0.1.0.39.0.0">
                                    <path stroke="none"  id="path168" gorn="0.3.0.0.1.0.39.0.0.0" style="fill-rule:nonzero;" fill="#ffffff" d="M 0,0 C 0.125,0 0.231,-0.041 0.317,-0.121 0.403,-0.201 0.458,-0.31 0.481,-0.445 H 0.49 c 0.02,0.166 0.072,0.292 0.155,0.379 0.083,0.086 0.195,0.129 0.335,0.129 0.189,0 0.335,-0.065 0.439,-0.197 0.104,-0.131 0.156,-0.32 0.156,-0.566 0,-0.21 -0.038,-0.393 -0.115,-0.55 H 1.323 c 0.041,0.08 0.073,0.168 0.095,0.267 0.024,0.098 0.035,0.191 0.035,0.277 0,0.208 -0.041,0.364 -0.123,0.469 -0.083,0.104 -0.2,0.156 -0.35,0.156 -0.134,0 -0.237,-0.053 -0.309,-0.16 C 0.599,-0.348 0.563,-0.505 0.563,-0.712 V -0.935 H 0.43 v 0.226 c 0,0.171 -0.039,0.307 -0.119,0.407 -0.08,0.101 -0.188,0.151 -0.325,0.151 -0.112,0 -0.203,-0.041 -0.271,-0.122 -0.068,-0.082 -0.101,-0.188 -0.101,-0.32 0,-0.103 0.014,-0.197 0.042,-0.281 0.028,-0.085 0.076,-0.18 0.145,-0.285 l -0.093,-0.07 c -0.065,0.081 -0.118,0.177 -0.156,0.29 -0.038,0.113 -0.057,0.227 -0.057,0.343 0,0.19 0.044,0.337 0.132,0.441 C -0.285,-0.052 -0.161,0 0,0" fill-opacity="1"/>
                                </g>
                            </g>
                        </g>
                        <g  transform="translate(27.3202,6.056)">
                            <g >
                                <g  id="g170" gorn="0.3.0.0.1.0.40.0.0">
                                    <path stroke="none"  id="path172" gorn="0.3.0.0.1.0.40.0.0.0" style="fill-rule:nonzero;" fill="#ffffff" d="M 0,0 C 0.169,0 0.303,-0.063 0.401,-0.19 0.5,-0.316 0.55,-0.485 0.55,-0.695 0.55,-0.947 0.522,-1.14 0.468,-1.275 H 0.327 c 0.062,0.149 0.092,0.338 0.092,0.569 0,0.169 -0.038,0.304 -0.114,0.403 -0.076,0.099 -0.176,0.149 -0.299,0.149 -0.077,0 -0.14,-0.016 -0.191,-0.05 -0.05,-0.032 -0.096,-0.086 -0.137,-0.16 -0.042,-0.074 -0.087,-0.184 -0.135,-0.328 -0.071,-0.211 -0.147,-0.356 -0.23,-0.437 -0.083,-0.08 -0.193,-0.121 -0.33,-0.121 -0.151,0 -0.275,0.061 -0.37,0.182 -0.096,0.121 -0.144,0.276 -0.144,0.466 0,0.194 0.036,0.376 0.108,0.547 l 0.122,-0.052 c -0.07,-0.172 -0.105,-0.335 -0.105,-0.492 0,-0.152 0.034,-0.274 0.104,-0.364 0.069,-0.09 0.163,-0.136 0.282,-0.136 0.075,0 0.136,0.015 0.184,0.042 0.048,0.028 0.091,0.074 0.129,0.137 0.039,0.063 0.085,0.17 0.138,0.324 0.055,0.161 0.108,0.282 0.159,0.363 0.051,0.081 0.109,0.14 0.174,0.177 C -0.171,-0.019 -0.092,0 0,0" fill-opacity="1"/>
                                </g>
                            </g>
                        </g>
                        <path stroke="none"  id="path174" gorn="0.3.0.0.1.0.41" style="fill-rule:nonzero;" fill="#ffffff" d="m 27.842,6.493 h -2.023 v 0.144 h 2.023 z" fill-opacity="1"/>
                        <g  transform="translate(26.8275,7.2674)">
                            <g >
                                <g  id="g176" gorn="0.3.0.0.1.0.42.0.0">
                                    <path stroke="none"  id="path178" gorn="0.3.0.0.1.0.42.0.0.0" style="fill-rule:nonzero;" fill="#ffffff" d="M 0,0 C 0.29,0 0.514,0.066 0.672,0.198 0.831,0.33 0.91,0.519 0.91,0.765 0.91,1.014 0.831,1.204 0.674,1.335 0.517,1.466 0.292,1.532 0,1.532 -0.292,1.532 -0.515,1.466 -0.67,1.335 -0.826,1.204 -0.904,1.015 -0.904,0.768 -0.904,0.522 -0.825,0.333 -0.668,0.2 -0.512,0.066 -0.289,0 0,0 m 0,1.688 c 0.321,0 0.575,-0.082 0.762,-0.245 0.187,-0.164 0.28,-0.39 0.28,-0.678 0,-0.287 -0.093,-0.513 -0.28,-0.676 -0.187,-0.164 -0.442,-0.246 -0.764,-0.246 -0.323,0 -0.576,0.083 -0.761,0.248 -0.185,0.165 -0.278,0.391 -0.278,0.677 0,0.288 0.093,0.513 0.279,0.676 0.186,0.163 0.44,0.244 0.762,0.244" fill-opacity="1"/>
                                </g>
                            </g>
                        </g>
                        <g  transform="translate(25.9169,10.3114)">
                            <g >
                                <g  id="g180" gorn="0.3.0.0.1.0.43.0.0">
                                    <path stroke="none"  id="path182" gorn="0.3.0.0.1.0.43.0.0.0" style="fill-rule:nonzero;" fill="#ffffff" d="m 0,0 c 0,-0.259 0.081,-0.463 0.244,-0.611 0.162,-0.149 0.384,-0.223 0.667,-0.223 0.289,0 0.513,0.069 0.672,0.21 0.16,0.14 0.24,0.34 0.24,0.601 0,0.173 -0.022,0.333 -0.065,0.478 H 1.882 C 1.93,0.318 1.953,0.147 1.953,-0.057 c 0,-0.29 -0.092,-0.518 -0.275,-0.684 -0.184,-0.167 -0.441,-0.25 -0.77,-0.25 -0.206,0 -0.387,0.039 -0.544,0.119 -0.157,0.08 -0.278,0.194 -0.364,0.343 -0.084,0.149 -0.127,0.323 -0.127,0.52 0,0.202 0.037,0.382 0.11,0.541 L 0.111,0.474 C 0.037,0.324 0,0.166 0,0" fill-opacity="1"/>
                                </g>
                            </g>
                        </g>
                        <g  transform="translate(32.5653,3.7943)">
                            <g >
                                <g  id="g184" gorn="0.3.0.0.1.0.44.0.0">
                                    <path stroke="none"  id="path186" gorn="0.3.0.0.1.0.44.0.0.0" style="fill-rule:nonzero;" fill="#ffffff" d="M 0,0 V 0.157 L 2.023,-0.616 V -0.743 L 0,-1.512 v 0.154 l 1.377,0.519 c 0.207,0.079 0.364,0.132 0.468,0.16 -0.069,0.018 -0.177,0.056 -0.323,0.111 z" fill-opacity="1"/>
                                </g>
                            </g>
                        </g>
                        <g  transform="translate(34.0668,5.3826)">
                            <g >
                                <g  id="g188" gorn="0.3.0.0.1.0.45.0.0">
                                    <path stroke="none"  id="path190" gorn="0.3.0.0.1.0.45.0.0.0" style="fill-rule:nonzero;" fill="#ffffff" d="M 0,0 C 0.169,0 0.303,-0.063 0.401,-0.19 0.5,-0.316 0.55,-0.485 0.55,-0.695 0.55,-0.947 0.522,-1.14 0.468,-1.275 H 0.327 c 0.062,0.149 0.092,0.338 0.092,0.569 0,0.169 -0.038,0.304 -0.114,0.403 -0.076,0.099 -0.176,0.149 -0.299,0.149 -0.077,0 -0.14,-0.016 -0.191,-0.05 -0.05,-0.032 -0.096,-0.086 -0.137,-0.16 -0.042,-0.074 -0.087,-0.184 -0.135,-0.328 -0.071,-0.211 -0.147,-0.356 -0.23,-0.437 -0.083,-0.08 -0.193,-0.121 -0.33,-0.121 -0.151,0 -0.275,0.061 -0.37,0.182 -0.096,0.121 -0.144,0.276 -0.144,0.466 0,0.194 0.036,0.376 0.108,0.547 l 0.122,-0.052 c -0.07,-0.172 -0.105,-0.335 -0.105,-0.492 0,-0.152 0.034,-0.274 0.104,-0.364 0.069,-0.09 0.163,-0.136 0.282,-0.136 0.075,0 0.136,0.015 0.184,0.042 0.048,0.028 0.091,0.074 0.129,0.137 0.039,0.063 0.085,0.17 0.138,0.324 0.055,0.161 0.108,0.282 0.159,0.363 0.051,0.081 0.109,0.14 0.174,0.177 C -0.171,-0.019 -0.092,0 0,0" fill-opacity="1"/>
                                </g>
                            </g>
                        </g>
                        <g  transform="translate(33.6722,6.2933)">
                            <g >
                                <g  id="g192" gorn="0.3.0.0.1.0.46.0.0">
                                    <path stroke="none"  id="path194" gorn="0.3.0.0.1.0.46.0.0.0" style="fill-rule:nonzero;" fill="#ffffff" d="M 0,0 -1.107,0.604 V 0.76 L 0.134,0.072 H 0.917 V -0.076 H 0.146 l -1.253,-0.691 v 0.165 z" fill-opacity="1"/>
                                </g>
                            </g>
                        </g>
                        <g  transform="translate(34.5887,8.846)">
                            <g >
                                <g  id="g196" gorn="0.3.0.0.1.0.47.0.0">
                                    <path stroke="none"  id="path198" gorn="0.3.0.0.1.0.47.0.0.0" style="fill-rule:nonzero;" fill="#ffffff" d="m 0,0 v -0.146 l -1.796,-1.222 v -0.011 c 0.213,0.011 0.375,0.017 0.484,0.017 H 0 V -1.5 h -2.023 v 0.143 l 1.793,1.221 v 0.009 C -0.396,-0.136 -0.554,-0.14 -0.703,-0.14 h -1.32 V 0 Z" fill-opacity="1"/>
                                </g>
                            </g>
                        </g>
                        <g  transform="translate(32.6634,10.3114)">
                            <g >
                                <g  id="g200" gorn="0.3.0.0.1.0.48.0.0">
                                    <path stroke="none"  id="path202" gorn="0.3.0.0.1.0.48.0.0.0" style="fill-rule:nonzero;" fill="#ffffff" d="m 0,0 c 0,-0.259 0.081,-0.463 0.244,-0.611 0.162,-0.149 0.384,-0.223 0.667,-0.223 0.289,0 0.513,0.069 0.672,0.21 0.16,0.14 0.24,0.34 0.24,0.601 0,0.173 -0.022,0.333 -0.065,0.478 H 1.882 C 1.93,0.318 1.953,0.147 1.953,-0.057 c 0,-0.29 -0.092,-0.518 -0.275,-0.684 -0.184,-0.167 -0.441,-0.25 -0.77,-0.25 -0.206,0 -0.387,0.039 -0.544,0.119 -0.157,0.08 -0.278,0.194 -0.364,0.343 -0.084,0.149 -0.127,0.323 -0.127,0.52 0,0.202 0.037,0.382 0.11,0.541 L 0.111,0.474 C 0.037,0.324 0,0.166 0,0" fill-opacity="1"/>
                                </g>
                            </g>
                        </g>
                        <g  transform="translate(40.3768,4.7186)">
                            <g >
                                <g  id="g204" gorn="0.3.0.0.1.0.49.0.0">
                                    <path stroke="none"  id="path206" gorn="0.3.0.0.1.0.49.0.0.0" style="fill-rule:nonzero;" fill="#ffffff" d="M 0,0 V 0.284 C 0,0.517 -0.038,0.685 -0.113,0.788 -0.188,0.892 -0.31,0.943 -0.479,0.943 -0.635,0.943 -0.75,0.895 -0.825,0.796 -0.9,0.699 -0.938,0.547 -0.938,0.342 V 0 Z m -0.484,1.099 c 0.195,0 0.345,-0.068 0.45,-0.203 C 0.07,0.76 0.122,0.568 0.122,0.319 V 0 h 0.836 v -0.144 h -2.023 v 0.506 c 0,0.491 0.193,0.737 0.581,0.737" fill-opacity="1"/>
                                </g>
                            </g>
                        </g>
                        <g  transform="translate(39.4095,7.1473)">
                            <g >
                                <g  id="g208" gorn="0.3.0.0.1.0.50.0.0">
                                    <path stroke="none"  id="path210" gorn="0.3.0.0.1.0.50.0.0.0" style="fill-rule:nonzero;" fill="#ffffff" d="m 0,0 c 0,-0.259 0.081,-0.463 0.244,-0.611 0.162,-0.149 0.384,-0.223 0.667,-0.223 0.289,0 0.513,0.069 0.672,0.21 0.16,0.14 0.24,0.34 0.24,0.601 0,0.173 -0.022,0.333 -0.065,0.478 H 1.882 C 1.93,0.318 1.953,0.147 1.953,-0.057 c 0,-0.29 -0.092,-0.518 -0.275,-0.684 -0.184,-0.167 -0.441,-0.25 -0.77,-0.25 -0.206,0 -0.387,0.039 -0.544,0.119 -0.157,0.08 -0.278,0.194 -0.364,0.343 -0.084,0.149 -0.127,0.323 -0.127,0.52 0,0.202 0.037,0.382 0.11,0.541 L 0.111,0.474 C 0.037,0.324 0,0.166 0,0" fill-opacity="1"/>
                                </g>
                            </g>
                        </g>
                        <g  transform="translate(41.3348,8.0623)">
                            <g >
                                <g  id="g212" gorn="0.3.0.0.1.0.51.0.0">
                                    <path stroke="none"  id="path214" gorn="0.3.0.0.1.0.51.0.0.0" style="fill-rule:nonzero;" fill="#ffffff" d="m 0,0 h -2.023 v 0.144 h 1.89 V 1.128 H 0 Z" fill-opacity="1"/>
                                </g>
                            </g>
                        </g>
                        <g  transform="translate(41.3348,10.9339)">
                            <g >
                                <g  id="g216" gorn="0.3.0.0.1.0.52.0.0">
                                    <path stroke="none"  id="path218" gorn="0.3.0.0.1.0.52.0.0.0" style="fill-rule:nonzero;" fill="#ffffff" d="m 0,0 v -0.177 l -1.068,-0.792 0.237,-0.275 H 0 v -0.144 h -2.023 v 0.144 h 1.051 l -0.224,0.229 -0.827,0.809 v 0.183 l 0.855,-0.845 z" fill-opacity="1"/>
                                </g>
                            </g>
                        </g>
                        <g  transform="translate(47.056,8.9442)">
                            <g >
                                <g  id="g220" gorn="0.3.0.0.1.0.53.0.0">
                                    <path stroke="none"  id="path222" gorn="0.3.0.0.1.0.53.0.0.0" style="fill-rule:nonzero;" fill="#ffffff" d="m 0,0 c -0.29,0 -0.508,-0.075 -0.654,-0.225 -0.146,-0.15 -0.22,-0.371 -0.22,-0.662 v -0.38 h 1.775 v 0.342 C 0.901,-0.308 0.601,0 0,0 m -0.006,0.157 c 0.34,0 0.596,-0.091 0.771,-0.273 0.173,-0.181 0.26,-0.448 0.26,-0.801 V -1.41 h -2.023 v 0.557 c 0,0.33 0.084,0.58 0.253,0.752 0.169,0.172 0.415,0.258 0.739,0.258" fill-opacity="1"/>
                                </g>
                            </g>
                        </g>
                        <g  transform="translate(48.0814,9.7547)">
                            <g >
                                <g  id="g224" gorn="0.3.0.0.1.0.54.0.0">
                                    <path stroke="none"  id="path226" gorn="0.3.0.0.1.0.54.0.0.0" style="fill-rule:nonzero;" fill="#ffffff" d="m 0,0 -1.891,0.85 v -1.168 h -0.132 v 1.336 h 0.101 L 0,0.165 Z" fill-opacity="1"/>
                                </g>
                            </g>
                        </g>
                        <g  transform="translate(53.8026,8.9442)">
                            <g >
                                <g  id="g228" gorn="0.3.0.0.1.0.55.0.0">
                                    <path stroke="none"  id="path230" gorn="0.3.0.0.1.0.55.0.0.0" style="fill-rule:nonzero;" fill="#ffffff" d="m 0,0 c -0.29,0 -0.508,-0.075 -0.654,-0.225 -0.146,-0.15 -0.22,-0.371 -0.22,-0.662 v -0.38 h 1.775 v 0.342 C 0.901,-0.308 0.601,0 0,0 m -0.006,0.157 c 0.34,0 0.596,-0.091 0.771,-0.273 0.173,-0.181 0.26,-0.448 0.26,-0.801 V -1.41 h -2.023 v 0.557 c 0,0.33 0.084,0.58 0.253,0.752 0.169,0.172 0.415,0.258 0.739,0.258" fill-opacity="1"/>
                                </g>
                            </g>
                        </g>
                        <g  transform="translate(53.6112,10.0413)">
                            <g >
                                <g  id="g232" gorn="0.3.0.0.1.0.56.0.0">
                                    <path stroke="none"  id="path234" gorn="0.3.0.0.1.0.56.0.0.0" style="fill-rule:nonzero;" fill="#ffffff" d="M 0,0 C 0,0.22 0.052,0.394 0.157,0.52 0.261,0.646 0.404,0.71 0.587,0.71 0.794,0.71 0.956,0.644 1.071,0.512 1.187,0.38 1.245,0.199 1.245,-0.033 1.245,-0.135 1.234,-0.232 1.215,-0.325 1.195,-0.417 1.167,-0.494 1.129,-0.557 H 0.987 c 0.051,0.102 0.086,0.193 0.106,0.272 0.02,0.079 0.03,0.163 0.03,0.252 0,0.181 -0.047,0.326 -0.141,0.435 C 0.889,0.511 0.762,0.566 0.602,0.566 0.452,0.566 0.333,0.513 0.248,0.406 0.162,0.3 0.119,0.156 0.119,-0.027 c 0,-0.122 0.018,-0.25 0.054,-0.384 L 0.119,-0.496 -0.807,-0.414 V 0.58 h 0.133 V -0.281 L 0.041,-0.345 C 0.014,-0.198 0,-0.083 0,0" fill-opacity="1"/>
                                </g>
                            </g>
                        </g>
                        <g  transform="translate(60.5487,8.9442)">
                            <g >
                                <g  id="g236" gorn="0.3.0.0.1.0.57.0.0">
                                    <path stroke="none"  id="path238" gorn="0.3.0.0.1.0.57.0.0.0" style="fill-rule:nonzero;" fill="#ffffff" d="m 0,0 c -0.29,0 -0.508,-0.075 -0.654,-0.225 -0.146,-0.15 -0.22,-0.371 -0.22,-0.662 v -0.38 h 1.775 v 0.342 C 0.901,-0.308 0.601,0 0,0 m -0.006,0.157 c 0.34,0 0.596,-0.091 0.771,-0.273 0.173,-0.181 0.26,-0.448 0.26,-0.801 V -1.41 h -2.023 v 0.557 c 0,0.33 0.084,0.58 0.253,0.752 0.169,0.172 0.415,0.258 0.739,0.258" fill-opacity="1"/>
                                </g>
                            </g>
                        </g>
                        <g  transform="translate(60.0267,10.6654)">
                            <g >
                                <g  id="g240" gorn="0.3.0.0.1.0.58.0.0">
                                    <path stroke="none"  id="path242" gorn="0.3.0.0.1.0.58.0.0.0" style="fill-rule:nonzero;" fill="#ffffff" d="M 0,0 C 0.125,0 0.231,-0.041 0.317,-0.121 0.403,-0.201 0.458,-0.31 0.481,-0.445 H 0.49 c 0.02,0.166 0.072,0.292 0.155,0.379 0.083,0.086 0.195,0.129 0.335,0.129 0.189,0 0.335,-0.065 0.439,-0.197 0.104,-0.131 0.156,-0.32 0.156,-0.566 0,-0.21 -0.038,-0.393 -0.115,-0.55 H 1.323 c 0.041,0.08 0.073,0.168 0.095,0.267 0.024,0.098 0.035,0.191 0.035,0.277 0,0.208 -0.041,0.364 -0.123,0.469 -0.083,0.104 -0.2,0.156 -0.35,0.156 -0.134,0 -0.237,-0.053 -0.309,-0.16 C 0.599,-0.348 0.563,-0.505 0.563,-0.712 V -0.935 H 0.43 v 0.226 c 0,0.171 -0.039,0.307 -0.119,0.407 -0.08,0.101 -0.188,0.151 -0.325,0.151 -0.112,0 -0.203,-0.041 -0.271,-0.122 -0.068,-0.082 -0.101,-0.188 -0.101,-0.32 0,-0.103 0.014,-0.197 0.042,-0.281 0.028,-0.085 0.076,-0.18 0.145,-0.285 l -0.093,-0.07 c -0.065,0.081 -0.118,0.177 -0.156,0.29 -0.038,0.113 -0.057,0.227 -0.057,0.343 0,0.19 0.044,0.337 0.132,0.441 C -0.285,-0.052 -0.161,0 0,0" fill-opacity="1"/>
                                </g>
                            </g>
                        </g>
                        <g  transform="translate(67.2953,8.9442)">
                            <g >
                                <g  id="g244" gorn="0.3.0.0.1.0.59.0.0">
                                    <path stroke="none"  id="path246" gorn="0.3.0.0.1.0.59.0.0.0" style="fill-rule:nonzero;" fill="#ffffff" d="m 0,0 c -0.29,0 -0.508,-0.075 -0.654,-0.225 -0.146,-0.15 -0.22,-0.371 -0.22,-0.662 v -0.38 h 1.775 v 0.342 C 0.901,-0.308 0.601,0 0,0 m -0.006,0.157 c 0.34,0 0.596,-0.091 0.771,-0.273 0.173,-0.181 0.26,-0.448 0.26,-0.801 V -1.41 h -2.023 v 0.557 c 0,0.33 0.084,0.58 0.253,0.752 0.169,0.172 0.415,0.258 0.739,0.258" fill-opacity="1"/>
                                </g>
                            </g>
                        </g>
                        <g  transform="translate(68.3207,10.2459)">
                            <g >
                                <g  id="g248" gorn="0.3.0.0.1.0.60.0.0">
                                    <path stroke="none"  id="path250" gorn="0.3.0.0.1.0.60.0.0.0" style="fill-rule:nonzero;" fill="#ffffff" d="m 0,0 v -0.138 h -1.474 c -0.134,0 -0.273,0.005 -0.417,0.016 0.014,-0.014 0.028,-0.028 0.04,-0.043 0.014,-0.015 0.125,-0.161 0.337,-0.437 l -0.098,-0.08 -0.411,0.56 V 0 Z" fill-opacity="1"/>
                                </g>
                            </g>
                        </g>
                        <g  transform="translate(74.0638,3.3704)">
                            <g >
                                <g  id="g252" gorn="0.3.0.0.1.0.61.0.0">
                                    <path stroke="none"  id="path254" gorn="0.3.0.0.1.0.61.0.0.0" style="fill-rule:nonzero;" fill="#ffffff" d="M 0,0 V 0.394 C 0,0.568 -0.038,0.703 -0.114,0.799 -0.19,0.896 -0.303,0.943 -0.451,0.943 -0.605,0.943 -0.717,0.896 -0.788,0.802 -0.858,0.708 -0.893,0.555 -0.893,0.342 V 0 Z M 0.122,0 H 1.003 V -0.144 H -1.02 v 0.492 c 0,0.256 0.046,0.444 0.139,0.567 0.093,0.123 0.232,0.184 0.419,0.184 0.135,0 0.25,-0.037 0.343,-0.11 0.093,-0.073 0.16,-0.184 0.201,-0.332 l 0.921,0.56 V 1.045 L 0.122,0.513 Z" fill-opacity="1"/>
                                </g>
                            </g>
                        </g>
                        <g  transform="translate(75.0672,6.0731)">
                            <g >
                                <g  id="g256" gorn="0.3.0.0.1.0.62.0.0">
                                    <path stroke="none"  id="path258" gorn="0.3.0.0.1.0.62.0.0.0" style="fill-rule:nonzero;" fill="#ffffff" d="M 0,0 V -1.128 H -2.023 V 0 h 0.129 v -0.984 h 0.766 v 0.929 h 0.13 v -0.929 h 0.868 l 0,0.984 z" fill-opacity="1"/>
                                </g>
                            </g>
                        </g>
                        <g  transform="translate(74.5453,7.6795)">
                            <g >
                                <g  id="g260" gorn="0.3.0.0.1.0.63.0.0">
                                    <path stroke="none"  id="path262" gorn="0.3.0.0.1.0.63.0.0.0" style="fill-rule:nonzero;" fill="#ffffff" d="M 0,0 C 0.169,0 0.303,-0.063 0.401,-0.19 0.5,-0.316 0.55,-0.485 0.55,-0.695 0.55,-0.947 0.522,-1.14 0.468,-1.275 H 0.327 c 0.062,0.149 0.092,0.338 0.092,0.569 0,0.169 -0.038,0.304 -0.114,0.403 -0.076,0.099 -0.176,0.149 -0.299,0.149 -0.077,0 -0.14,-0.016 -0.191,-0.05 -0.05,-0.032 -0.096,-0.086 -0.137,-0.16 -0.042,-0.074 -0.087,-0.184 -0.135,-0.328 -0.071,-0.211 -0.147,-0.356 -0.23,-0.437 -0.083,-0.08 -0.193,-0.121 -0.33,-0.121 -0.151,0 -0.275,0.061 -0.37,0.182 -0.096,0.121 -0.144,0.276 -0.144,0.466 0,0.194 0.036,0.376 0.108,0.547 l 0.122,-0.052 c -0.07,-0.172 -0.105,-0.335 -0.105,-0.492 0,-0.152 0.034,-0.274 0.104,-0.364 0.069,-0.09 0.163,-0.136 0.282,-0.136 0.075,0 0.136,0.015 0.184,0.042 0.048,0.028 0.091,0.074 0.129,0.137 0.039,0.063 0.085,0.17 0.138,0.324 0.055,0.161 0.108,0.282 0.159,0.363 0.051,0.081 0.109,0.14 0.174,0.177 C -0.171,-0.019 -0.092,0 0,0" fill-opacity="1"/>
                                </g>
                            </g>
                        </g>
                        <g  transform="translate(75.0672,9.244)">
                            <g >
                                <g  id="g264" gorn="0.3.0.0.1.0.64.0.0">
                                    <path stroke="none"  id="path266" gorn="0.3.0.0.1.0.64.0.0.0" style="fill-rule:nonzero;" fill="#ffffff" d="M 0,0 V -1.128 H -2.023 V 0 h 0.129 v -0.984 h 0.766 v 0.929 h 0.13 v -0.929 h 0.868 l 0,0.984 z" fill-opacity="1"/>
                                </g>
                            </g>
                        </g>
                        <g  transform="translate(75.0672,10.2489)">
                            <g >
                                <g  id="g268" gorn="0.3.0.0.1.0.65.0.0">
                                    <path stroke="none"  id="path270" gorn="0.3.0.0.1.0.65.0.0.0" style="fill-rule:nonzero;" fill="#ffffff" d="m 0,0 v -0.146 h -1.891 v -0.67 H -2.023 V 0.67 h 0.132 V 0 Z" fill-opacity="1"/>
                                </g>
                            </g>
                        </g>
                        <g  transform="translate(20.076,24.763)">
                            <g >
                                <g  id="g272" gorn="0.3.0.0.1.0.66.0.0">
                                    <path stroke="none"  id="path274" gorn="0.3.0.0.1.0.66.0.0.0" style="fill-rule:nonzero;" fill="#ffffff" d="M 0,0 V 0.761 H 0.923 C 1.006,0.562 1.048,0.337 1.048,0.087 c 0,-0.325 -0.09,-0.575 -0.271,-0.749 -0.18,-0.173 -0.436,-0.26 -0.766,-0.26 -0.206,0 -0.388,0.043 -0.548,0.13 -0.159,0.085 -0.281,0.209 -0.368,0.369 -0.087,0.161 -0.13,0.345 -0.13,0.553 0,0.225 0.04,0.427 0.121,0.605 L -0.786,0.678 C -0.867,0.499 -0.908,0.313 -0.908,0.122 c 0,-0.272 0.082,-0.488 0.247,-0.648 0.165,-0.16 0.387,-0.239 0.666,-0.239 0.305,0 0.534,0.076 0.688,0.227 0.153,0.152 0.23,0.374 0.23,0.668 0,0.19 -0.026,0.351 -0.079,0.484 H 0.133 V 0 Z" fill-opacity="1"/>
                                </g>
                            </g>
                        </g>
                        <g  transform="translate(21.0961,27.5428)">
                            <g >
                                <g  id="g276" gorn="0.3.0.0.1.0.67.0.0">
                                    <path stroke="none"  id="path278" gorn="0.3.0.0.1.0.67.0.0.0" style="fill-rule:nonzero;" fill="#ffffff" d="m 0,0 v -0.146 l -1.796,-1.222 v -0.011 c 0.213,0.011 0.375,0.017 0.484,0.017 H 0 V -1.5 h -2.023 v 0.143 l 1.793,1.221 v 0.009 C -0.396,-0.136 -0.554,-0.14 -0.703,-0.14 h -1.32 V 0 Z" fill-opacity="1"/>
                                </g>
                            </g>
                        </g>
                        <g  transform="translate(20.0707,29.5379)">
                            <g >
                                <g  id="g280" gorn="0.3.0.0.1.0.68.0.0">
                                    <path stroke="none"  id="path282" gorn="0.3.0.0.1.0.68.0.0.0" style="fill-rule:nonzero;" fill="#ffffff" d="m 0,0 c -0.29,0 -0.508,-0.075 -0.654,-0.225 -0.146,-0.15 -0.22,-0.371 -0.22,-0.662 v -0.38 h 1.775 v 0.342 C 0.901,-0.308 0.601,0 0,0 m -0.006,0.157 c 0.34,0 0.596,-0.091 0.771,-0.273 0.173,-0.181 0.26,-0.448 0.26,-0.801 V -1.41 h -2.023 v 0.557 c 0,0.33 0.084,0.58 0.253,0.752 0.169,0.172 0.415,0.258 0.739,0.258" fill-opacity="1"/>
                                </g>
                            </g>
                        </g>
                        <g  transform="translate(27.3207,25.0907)">
                            <g >
                                <g  id="g284" gorn="0.3.0.0.1.0.69.0.0">
                                    <path stroke="none"  id="path286" gorn="0.3.0.0.1.0.69.0.0.0" style="fill-rule:nonzero;" fill="#ffffff" d="M 0,0 C 0.169,0 0.303,-0.063 0.401,-0.19 0.5,-0.316 0.55,-0.485 0.55,-0.695 0.55,-0.947 0.522,-1.14 0.468,-1.275 H 0.327 c 0.062,0.149 0.092,0.338 0.092,0.569 0,0.169 -0.038,0.304 -0.114,0.403 -0.076,0.099 -0.176,0.149 -0.299,0.149 -0.077,0 -0.14,-0.016 -0.191,-0.05 -0.05,-0.032 -0.096,-0.086 -0.137,-0.16 -0.042,-0.074 -0.087,-0.184 -0.135,-0.328 -0.071,-0.211 -0.147,-0.356 -0.23,-0.437 -0.083,-0.08 -0.193,-0.121 -0.33,-0.121 -0.151,0 -0.275,0.061 -0.37,0.182 -0.096,0.121 -0.144,0.276 -0.144,0.466 0,0.194 0.036,0.376 0.108,0.547 l 0.122,-0.052 c -0.07,-0.172 -0.105,-0.335 -0.105,-0.492 0,-0.152 0.034,-0.274 0.104,-0.364 0.069,-0.09 0.163,-0.136 0.282,-0.136 0.075,0 0.136,0.015 0.184,0.042 0.048,0.028 0.091,0.074 0.129,0.137 0.039,0.063 0.085,0.17 0.138,0.324 0.055,0.161 0.108,0.282 0.159,0.363 0.051,0.081 0.109,0.14 0.174,0.177 C -0.171,-0.019 -0.092,0 0,0" fill-opacity="1"/>
                                </g>
                            </g>
                        </g>
                        <path stroke="none"  id="path288" gorn="0.3.0.0.1.0.70" style="fill-rule:nonzero;" fill="#ffffff" d="M 27.843,25.527 H 25.82 v 0.144 h 2.023 z" fill-opacity="1"/>
                        <g  transform="translate(26.828,26.3021)">
                            <g >
                                <g  id="g290" gorn="0.3.0.0.1.0.71.0.0">
                                    <path stroke="none"  id="path292" gorn="0.3.0.0.1.0.71.0.0.0" style="fill-rule:nonzero;" fill="#ffffff" d="M 0,0 C 0.29,0 0.514,0.066 0.672,0.198 0.831,0.33 0.91,0.519 0.91,0.765 0.91,1.014 0.831,1.204 0.674,1.335 0.517,1.466 0.292,1.532 0,1.532 -0.292,1.532 -0.515,1.466 -0.67,1.335 -0.826,1.204 -0.904,1.015 -0.904,0.768 -0.904,0.522 -0.825,0.333 -0.668,0.2 -0.512,0.066 -0.289,0 0,0 m 0,1.688 c 0.321,0 0.575,-0.082 0.762,-0.245 0.187,-0.164 0.28,-0.39 0.28,-0.678 0,-0.287 -0.093,-0.513 -0.28,-0.676 -0.187,-0.164 -0.442,-0.246 -0.764,-0.246 -0.323,0 -0.576,0.083 -0.761,0.248 -0.185,0.165 -0.278,0.391 -0.278,0.677 0,0.288 0.093,0.513 0.279,0.676 0.186,0.163 0.44,0.244 0.762,0.244" fill-opacity="1"/>
                                </g>
                            </g>
                        </g>
                        <g  transform="translate(26.8172,29.8753)">
                            <g >
                                <g  id="g294" gorn="0.3.0.0.1.0.72.0.0">
                                    <path stroke="none"  id="path296" gorn="0.3.0.0.1.0.72.0.0.0" style="fill-rule:nonzero;" fill="#ffffff" d="m 0,0 c -0.29,0 -0.508,-0.075 -0.654,-0.225 -0.146,-0.15 -0.22,-0.371 -0.22,-0.662 v -0.38 h 1.775 v 0.342 C 0.901,-0.308 0.601,0 0,0 m -0.006,0.157 c 0.34,0 0.596,-0.091 0.771,-0.273 0.173,-0.181 0.26,-0.448 0.26,-0.801 V -1.41 h -2.023 v 0.557 c 0,0.33 0.084,0.58 0.253,0.752 0.169,0.172 0.415,0.258 0.739,0.258" fill-opacity="1"/>
                                </g>
                            </g>
                        </g>
                        <g  transform="translate(34.5892,25.4461)">
                            <g >
                                <g  id="g298" gorn="0.3.0.0.1.0.73.0.0">
                                    <path stroke="none"  id="path300" gorn="0.3.0.0.1.0.73.0.0.0" style="fill-rule:nonzero;" fill="#ffffff" d="M 0,0 V -0.145 H -0.995 V -1.351 H 0 v -0.144 h -2.023 v 0.144 h 0.898 v 1.206 H -2.023 V 0 Z" fill-opacity="1"/>
                                </g>
                            </g>
                        </g>
                        <g  transform="translate(33.5858,26.1746)">
                            <g >
                                <g  id="g302" gorn="0.3.0.0.1.0.74.0.0">
                                    <path stroke="none"  id="path304" gorn="0.3.0.0.1.0.74.0.0.0" style="fill-rule:nonzero;" fill="#ffffff" d="M 0,0 V 0.394 C 0,0.568 -0.038,0.703 -0.114,0.799 -0.19,0.896 -0.303,0.943 -0.451,0.943 -0.605,0.943 -0.717,0.896 -0.788,0.802 -0.858,0.708 -0.893,0.555 -0.893,0.342 V 0 Z M 0.122,0 H 1.003 V -0.144 H -1.02 v 0.492 c 0,0.256 0.046,0.444 0.139,0.567 0.093,0.123 0.232,0.184 0.419,0.184 0.135,0 0.25,-0.037 0.343,-0.11 0.093,-0.073 0.16,-0.184 0.201,-0.332 l 0.921,0.56 V 1.045 L 0.122,0.513 Z" fill-opacity="1"/>
                                </g>
                            </g>
                        </g>
                        <g  transform="translate(34.5892,28.8773)">
                            <g >
                                <g  id="g306" gorn="0.3.0.0.1.0.75.0.0">
                                    <path stroke="none"  id="path308" gorn="0.3.0.0.1.0.75.0.0.0" style="fill-rule:nonzero;" fill="#ffffff" d="M 0,0 V -1.128 H -2.023 V 0 h 0.129 v -0.984 h 0.766 v 0.929 h 0.13 v -0.929 h 0.868 l 0,0.984 z" fill-opacity="1"/>
                                </g>
                            </g>
                        </g>
                        <g  transform="translate(34.5892,29.4881)">
                            <g >
                                <g  id="g310" gorn="0.3.0.0.1.0.76.0.0">
                                    <path stroke="none"  id="path312" gorn="0.3.0.0.1.0.76.0.0.0" style="fill-rule:nonzero;" fill="#ffffff" d="m 0,0 v -0.144 h -2.023 v 1.131 h 0.129 V 0 h 0.859 v 0.932 h 0.131 l 0,-0.932 z" fill-opacity="1"/>
                                </g>
                            </g>
                        </g>
                        <g  transform="translate(41.3353,25.2147)">
                            <g >
                                <g  id="g314" gorn="0.3.0.0.1.0.77.0.0">
                                    <path stroke="none"  id="path316" gorn="0.3.0.0.1.0.77.0.0.0" style="fill-rule:nonzero;" fill="#ffffff" d="M 0,0 V -0.165 L -0.944,-0.775 0,-1.396 v -0.16 l -1.055,0.695 -0.968,-0.631 v 0.162 l 0.866,0.558 -0.866,0.566 v 0.154 l 0.965,-0.64 z" fill-opacity="1"/>
                                </g>
                            </g>
                        </g>
                        <g  transform="translate(39.41,26.388)">
                            <g >
                                <g  id="g318" gorn="0.3.0.0.1.0.78.0.0">
                                    <path stroke="none"  id="path320" gorn="0.3.0.0.1.0.78.0.0.0" style="fill-rule:nonzero;" fill="#ffffff" d="m 0,0 c 0,-0.259 0.081,-0.463 0.244,-0.611 0.162,-0.149 0.384,-0.223 0.667,-0.223 0.289,0 0.513,0.069 0.672,0.21 0.16,0.14 0.24,0.34 0.24,0.601 0,0.173 -0.022,0.333 -0.065,0.478 H 1.882 C 1.93,0.318 1.953,0.147 1.953,-0.057 c 0,-0.29 -0.092,-0.518 -0.275,-0.684 -0.184,-0.167 -0.441,-0.25 -0.77,-0.25 -0.206,0 -0.387,0.039 -0.544,0.119 -0.157,0.08 -0.278,0.194 -0.364,0.343 -0.084,0.149 -0.127,0.323 -0.127,0.52 0,0.202 0.037,0.382 0.11,0.541 L 0.111,0.474 C 0.037,0.324 0,0.166 0,0" fill-opacity="1"/>
                                </g>
                            </g>
                        </g>
                        <g  transform="translate(41.3353,27.3031)">
                            <g >
                                <g  id="g322" gorn="0.3.0.0.1.0.79.0.0">
                                    <path stroke="none"  id="path324" gorn="0.3.0.0.1.0.79.0.0.0" style="fill-rule:nonzero;" fill="#ffffff" d="m 0,0 h -2.023 v 0.144 h 1.89 V 1.128 H 0 Z" fill-opacity="1"/>
                                </g>
                            </g>
                        </g>
                        <g  transform="translate(41.3353,30.1746)">
                            <g >
                                <g  id="g326" gorn="0.3.0.0.1.0.80.0.0">
                                    <path stroke="none"  id="path328" gorn="0.3.0.0.1.0.80.0.0.0" style="fill-rule:nonzero;" fill="#ffffff" d="m 0,0 v -0.177 l -1.068,-0.792 0.237,-0.275 H 0 v -0.144 h -2.023 v 0.144 h 1.051 l -0.224,0.229 -0.827,0.809 v 0.183 l 0.855,-0.845 z" fill-opacity="1"/>
                                </g>
                            </g>
                        </g>
                        <g  transform="translate(47.9877,24.5203)">
                            <g >
                                <g  id="g330" gorn="0.3.0.0.1.0.81.0.0">
                                    <path stroke="none"  id="path332" gorn="0.3.0.0.1.0.81.0.0.0" style="fill-rule:nonzero;" fill="#ffffff" d="m 0,0 c 0,0.154 -0.047,0.274 -0.143,0.36 -0.094,0.085 -0.23,0.128 -0.406,0.128 -0.156,0 -0.276,-0.042 -0.363,-0.127 -0.087,-0.085 -0.13,-0.2 -0.13,-0.345 0,-0.097 0.021,-0.186 0.062,-0.268 0.042,-0.082 0.097,-0.148 0.166,-0.197 0.068,-0.049 0.139,-0.073 0.21,-0.073 0.103,0 0.202,0.023 0.296,0.069 0.095,0.047 0.17,0.11 0.225,0.189 C -0.027,-0.184 0,-0.096 0,0 m -0.768,-0.676 c -0.263,0 -0.484,0.036 -0.664,0.109 -0.179,0.073 -0.312,0.176 -0.399,0.311 -0.087,0.134 -0.13,0.296 -0.13,0.485 0,0.088 0.01,0.169 0.032,0.242 h 0.121 C -1.833,0.403 -1.845,0.32 -1.845,0.223 c 0,-0.233 0.082,-0.413 0.246,-0.543 0.165,-0.129 0.404,-0.202 0.718,-0.218 v 0.018 c -0.091,0.072 -0.159,0.154 -0.205,0.246 -0.046,0.092 -0.07,0.19 -0.07,0.292 0,0.193 0.054,0.344 0.162,0.453 0.108,0.109 0.257,0.163 0.448,0.163 0.206,0 0.369,-0.057 0.489,-0.172 C 0.062,0.348 0.122,0.194 0.122,0 c 0,-0.209 -0.078,-0.374 -0.235,-0.495 -0.156,-0.121 -0.374,-0.181 -0.655,-0.181" fill-opacity="1"/>
                                </g>
                            </g>
                        </g>
                        <g  transform="translate(53.8031,25.3616)">
                            <g >
                                <g  id="g334" gorn="0.3.0.0.1.0.82.0.0">
                                    <path stroke="none"  id="path336" gorn="0.3.0.0.1.0.82.0.0.0" style="fill-rule:nonzero;" fill="#ffffff" d="m 0,0 c -0.29,0 -0.508,-0.075 -0.654,-0.225 -0.146,-0.15 -0.22,-0.371 -0.22,-0.662 v -0.38 h 1.775 v 0.342 C 0.901,-0.308 0.601,0 0,0 m -0.006,0.157 c 0.34,0 0.596,-0.091 0.771,-0.273 0.173,-0.181 0.26,-0.448 0.26,-0.801 V -1.41 h -2.023 v 0.557 c 0,0.33 0.084,0.58 0.253,0.752 0.169,0.172 0.415,0.258 0.739,0.258" fill-opacity="1"/>
                                </g>
                            </g>
                        </g>
                        <g  transform="translate(54.1932,26.8231)">
                            <g >
                                <g  id="g338" gorn="0.3.0.0.1.0.83.0.0">
                                    <path stroke="none"  id="path340" gorn="0.3.0.0.1.0.83.0.0.0" style="fill-rule:nonzero;" fill="#ffffff" d="M 0,0 H -0.579 C -0.857,0 -1.091,0.006 -1.28,0.02 V 0.008 c 0.034,-0.019 0.12,-0.076 0.26,-0.174 L 0,-0.894 Z M 0.119,0.488 V 0.132 H 0.635 V 0 H 0.119 V -1.062 H 0.026 l -1.425,1.024 v 0.17 H 0 v 0.356 z" fill-opacity="1"/>
                                </g>
                            </g>
                        </g>
                        <g  transform="translate(60.5492,25.3616)">
                            <g >
                                <g  id="g342" gorn="0.3.0.0.1.0.84.0.0">
                                    <path stroke="none"  id="path344" gorn="0.3.0.0.1.0.84.0.0.0" style="fill-rule:nonzero;" fill="#ffffff" d="m 0,0 c -0.29,0 -0.508,-0.075 -0.654,-0.225 -0.146,-0.15 -0.22,-0.371 -0.22,-0.662 v -0.38 h 1.775 v 0.342 C 0.901,-0.308 0.601,0 0,0 m -0.006,0.157 c 0.34,0 0.596,-0.091 0.771,-0.273 0.173,-0.181 0.26,-0.448 0.26,-0.801 V -1.41 h -2.023 v 0.557 c 0,0.33 0.084,0.58 0.253,0.752 0.169,0.172 0.415,0.258 0.739,0.258" fill-opacity="1"/>
                                </g>
                            </g>
                        </g>
                        <g  transform="translate(61.5746,27.1517)">
                            <g >
                                <g  id="g346" gorn="0.3.0.0.1.0.85.0.0">
                                    <path stroke="none"  id="path348" gorn="0.3.0.0.1.0.85.0.0.0" style="fill-rule:nonzero;" fill="#ffffff" d="m 0,0 v -1.292 h -0.122 l -0.562,0.549 c -0.157,0.155 -0.276,0.263 -0.359,0.325 -0.083,0.063 -0.163,0.108 -0.239,0.137 -0.075,0.03 -0.155,0.044 -0.238,0.044 -0.121,0 -0.219,-0.04 -0.294,-0.121 -0.076,-0.081 -0.114,-0.186 -0.114,-0.315 0,-0.173 0.061,-0.337 0.184,-0.494 l -0.095,-0.077 c -0.142,0.173 -0.214,0.364 -0.214,0.574 0,0.179 0.048,0.321 0.141,0.424 0.095,0.103 0.225,0.154 0.39,0.154 0.133,0 0.263,-0.034 0.388,-0.103 0.125,-0.07 0.279,-0.196 0.463,-0.379 l 0.533,-0.53 h 0.005 V 0 Z" fill-opacity="1"/>
                                </g>
                            </g>
                        </g>
                        <g  transform="translate(67.2958,25.3616)">
                            <g >
                                <g  id="g350" gorn="0.3.0.0.1.0.86.0.0">
                                    <path stroke="none"  id="path352" gorn="0.3.0.0.1.0.86.0.0.0" style="fill-rule:nonzero;" fill="#ffffff" d="m 0,0 c -0.29,0 -0.508,-0.075 -0.654,-0.225 -0.146,-0.15 -0.22,-0.371 -0.22,-0.662 v -0.38 h 1.775 v 0.342 C 0.901,-0.308 0.601,0 0,0 m -0.006,0.157 c 0.34,0 0.596,-0.091 0.771,-0.273 0.173,-0.181 0.26,-0.448 0.26,-0.801 V -1.41 h -2.023 v 0.557 c 0,0.33 0.084,0.58 0.253,0.752 0.169,0.172 0.415,0.258 0.739,0.258" fill-opacity="1"/>
                                </g>
                            </g>
                        </g>
                        <g  transform="translate(67.3041,26.0155)">
                            <g >
                                <g  id="g354" gorn="0.3.0.0.1.0.87.0.0">
                                    <path stroke="none"  id="path356" gorn="0.3.0.0.1.0.87.0.0.0" style="fill-rule:nonzero;" fill="#ffffff" d="M 0,0 C 0.313,0 0.545,0.042 0.695,0.125 0.845,0.209 0.92,0.336 0.92,0.507 0.92,0.685 0.843,0.814 0.687,0.896 0.533,0.977 0.303,1.018 0,1.018 -0.299,1.018 -0.526,0.977 -0.681,0.896 -0.836,0.814 -0.914,0.685 -0.914,0.507 -0.914,0.329 -0.836,0.2 -0.681,0.12 -0.526,0.04 -0.299,0 0,0 M 0,1.174 C 0.355,1.174 0.618,1.119 0.789,1.009 0.959,0.898 1.045,0.73 1.045,0.507 1.045,0.291 0.957,0.127 0.781,0.016 0.605,-0.097 0.345,-0.152 0,-0.152 c -0.353,0 -0.614,0.054 -0.784,0.162 -0.17,0.109 -0.254,0.275 -0.254,0.497 0,0.217 0.088,0.383 0.264,0.497 0.175,0.114 0.433,0.17 0.774,0.17" fill-opacity="1"/>
                                </g>
                            </g>
                        </g>
                        <g  transform="translate(74.1097,24.095)">
                            <g >
                                <g  id="g358" gorn="0.3.0.0.1.0.88.0.0">
                                    <path stroke="none"  id="path360" gorn="0.3.0.0.1.0.88.0.0.0" style="fill-rule:nonzero;" fill="#ffffff" d="M 0,0 V 0.284 C 0,0.517 -0.038,0.685 -0.113,0.788 -0.188,0.892 -0.31,0.943 -0.479,0.943 -0.635,0.943 -0.75,0.895 -0.825,0.796 -0.9,0.699 -0.938,0.547 -0.938,0.342 V 0 Z m -0.484,1.099 c 0.195,0 0.345,-0.068 0.45,-0.203 C 0.07,0.76 0.122,0.568 0.122,0.319 V 0 h 0.836 v -0.144 h -2.023 v 0.506 c 0,0.491 0.193,0.737 0.581,0.737" fill-opacity="1"/>
                                </g>
                            </g>
                        </g>
                        <g  transform="translate(75.0677,27.2874)">
                            <g >
                                <g  id="g362" gorn="0.3.0.0.1.0.89.0.0">
                                    <path stroke="none"  id="path364" gorn="0.3.0.0.1.0.89.0.0.0" style="fill-rule:nonzero;" fill="#ffffff" d="M 0,0 V -0.119 L -1.561,-0.572 C -1.689,-0.609 -1.795,-0.638 -1.877,-0.657 -1.796,-0.671 -1.704,-0.693 -1.6,-0.721 -1.496,-0.749 -0.962,-0.9 0,-1.176 v -0.121 l -2.023,-0.568 v 0.151 l 1.303,0.361 c 0.053,0.015 0.101,0.028 0.146,0.04 0.045,0.012 0.087,0.023 0.126,0.033 0.039,0.01 0.077,0.019 0.114,0.027 0.036,0.008 0.073,0.015 0.11,0.022 -0.126,0.023 -0.316,0.07 -0.572,0.144 l -1.227,0.353 v 0.159 l 1.408,0.414 c 0.163,0.048 0.294,0.082 0.393,0.103 -0.066,0.012 -0.136,0.028 -0.211,0.047 -0.075,0.02 -0.605,0.165 -1.59,0.436 V 0.57 Z" fill-opacity="1"/>
                                </g>
                            </g>
                        </g>
                        <g  transform="translate(74.0423,29.6322)">
                            <g >
                                <g  id="g366" gorn="0.3.0.0.1.0.90.0.0">
                                    <path stroke="none"  id="path368" gorn="0.3.0.0.1.0.90.0.0.0" style="fill-rule:nonzero;" fill="#ffffff" d="m 0,0 c -0.29,0 -0.508,-0.075 -0.654,-0.225 -0.146,-0.15 -0.22,-0.371 -0.22,-0.662 v -0.38 h 1.775 v 0.342 C 0.901,-0.308 0.601,0 0,0 m -0.006,0.157 c 0.34,0 0.596,-0.091 0.771,-0.273 0.173,-0.181 0.26,-0.448 0.26,-0.801 V -1.41 h -2.023 v 0.557 c 0,0.33 0.084,0.58 0.253,0.752 0.169,0.172 0.415,0.258 0.739,0.258" fill-opacity="1"/>
                                </g>
                            </g>
                        </g>
                        <g  transform="translate(75.0677,31.764)">
                            <g >
                                <g  id="g370" gorn="0.3.0.0.1.0.91.0.0">
                                    <path stroke="none"  id="path372" gorn="0.3.0.0.1.0.91.0.0.0" style="fill-rule:nonzero;" fill="#ffffff" d="m 0,0 v -0.146 l -1.796,-1.222 v -0.011 c 0.213,0.011 0.375,0.017 0.484,0.017 H 0 V -1.5 h -2.023 v 0.143 l 1.793,1.221 v 0.009 C -0.396,-0.136 -0.554,-0.14 -0.703,-0.14 h -1.32 V 0 Z" fill-opacity="1"/>
                                </g>
                            </g>
                        </g>
                        <g  transform="translate(35.0281,87.2625)">
                            <g >
                                <g  id="g374" gorn="0.3.0.0.1.0.92.0.0">
                                    <path stroke="none"  id="path376" gorn="0.3.0.0.1.0.92.0.0.0" style="fill-rule:nonzero;" fill="#ffffff" d="m 0,0 -0.336,1.006 c -0.022,0.069 -0.05,0.169 -0.083,0.301 H -0.428 L -0.458,1.204 -0.521,1.003 -0.863,0 H -1.001 L -1.44,1.504 h 0.149 L -1.045,0.632 C -0.987,0.417 -0.95,0.258 -0.932,0.156 h 0.009 c 0.055,0.217 0.095,0.36 0.121,0.431 l 0.316,0.917 h 0.127 L -0.058,0.59 C 0.01,0.373 0.051,0.229 0.066,0.159 H 0.075 C 0.082,0.219 0.12,0.38 0.187,0.641 L 0.422,1.504 H 0.563 L 0.146,0 Z" fill-opacity="1"/>
                                </g>
                            </g>
                        </g>
                        <g  transform="translate(37.1189,87.2625)">
                            <g >
                                <g  id="g378" gorn="0.3.0.0.1.0.93.0.0">
                                    <path stroke="none"  id="path380" gorn="0.3.0.0.1.0.93.0.0.0" style="fill-rule:nonzero;" fill="#ffffff" d="m 0,0 -0.336,1.006 c -0.022,0.069 -0.05,0.169 -0.083,0.301 H -0.428 L -0.458,1.204 -0.521,1.003 -0.863,0 H -1.001 L -1.44,1.504 h 0.149 L -1.045,0.632 C -0.987,0.417 -0.95,0.258 -0.932,0.156 h 0.009 c 0.055,0.217 0.095,0.36 0.121,0.431 l 0.316,0.917 h 0.127 L -0.058,0.59 C 0.01,0.373 0.051,0.229 0.066,0.159 H 0.075 C 0.082,0.219 0.12,0.38 0.187,0.641 L 0.422,1.504 H 0.563 L 0.146,0 Z" fill-opacity="1"/>
                                </g>
                            </g>
                        </g>
                        <g  transform="translate(39.2097,87.2625)">
                            <g >
                                <g  id="g382" gorn="0.3.0.0.1.0.94.0.0">
                                    <path stroke="none"  id="path384" gorn="0.3.0.0.1.0.94.0.0.0" style="fill-rule:nonzero;" fill="#ffffff" d="m 0,0 -0.336,1.006 c -0.022,0.069 -0.05,0.169 -0.083,0.301 H -0.428 L -0.458,1.204 -0.521,1.003 -0.863,0 H -1.001 L -1.44,1.504 h 0.149 L -1.045,0.632 C -0.987,0.417 -0.95,0.258 -0.932,0.156 h 0.009 c 0.055,0.217 0.095,0.36 0.121,0.431 l 0.316,0.917 h 0.127 L -0.058,0.59 C 0.01,0.373 0.051,0.229 0.066,0.159 H 0.075 C 0.082,0.219 0.12,0.38 0.187,0.641 L 0.422,1.504 H 0.563 L 0.146,0 Z" fill-opacity="1"/>
                                </g>
                            </g>
                        </g>
                        <g  transform="translate(40.0452,87.3705)">
                            <g >
                                <g  id="g386" gorn="0.3.0.0.1.0.95.0.0">
                                    <path stroke="none"  id="path388" gorn="0.3.0.0.1.0.95.0.0.0" style="fill-rule:nonzero;" fill="#ffffff" d="M 0,0 C 0,0.09 0.038,0.136 0.113,0.136 0.19,0.136 0.229,0.09 0.229,0 0.229,-0.09 0.19,-0.136 0.113,-0.136 0.038,-0.136 0,-0.09 0,0" fill-opacity="1"/>
                                </g>
                            </g>
                        </g>
                        <g  transform="translate(41.9358,87.7845)">
                            <g >
                                <g  id="g390" gorn="0.3.0.0.1.0.96.0.0">
                                    <path stroke="none"  id="path392" gorn="0.3.0.0.1.0.96.0.0.0" style="fill-rule:nonzero;" fill="#ffffff" d="M 0,0 C 0,-0.169 -0.063,-0.303 -0.19,-0.401 -0.316,-0.5 -0.485,-0.55 -0.695,-0.55 c -0.252,0 -0.445,0.028 -0.58,0.082 v 0.141 c 0.149,-0.062 0.338,-0.092 0.569,-0.092 0.169,0 0.304,0.038 0.403,0.114 0.099,0.076 0.149,0.176 0.149,0.299 0,0.077 -0.016,0.14 -0.05,0.191 -0.032,0.05 -0.086,0.096 -0.16,0.137 -0.074,0.042 -0.184,0.087 -0.328,0.135 -0.211,0.071 -0.356,0.147 -0.437,0.23 -0.08,0.083 -0.121,0.193 -0.121,0.33 0,0.151 0.061,0.275 0.182,0.37 0.121,0.096 0.276,0.144 0.466,0.144 0.194,0 0.376,-0.036 0.547,-0.108 L -0.107,1.301 c -0.172,0.07 -0.335,0.105 -0.492,0.105 -0.152,0 -0.274,-0.034 -0.364,-0.104 -0.09,-0.069 -0.136,-0.163 -0.136,-0.282 0,-0.075 0.015,-0.136 0.042,-0.184 C -1.029,0.788 -0.983,0.745 -0.92,0.707 -0.857,0.668 -0.75,0.622 -0.596,0.569 -0.435,0.514 -0.314,0.461 -0.233,0.41 -0.152,0.359 -0.093,0.301 -0.056,0.236 -0.019,0.171 0,0.092 0,0" fill-opacity="1"/>
                                </g>
                            </g>
                        </g>
                        <g  transform="translate(42.742,87.3568)">
                            <g >
                                <g  id="g394" gorn="0.3.0.0.1.0.97.0.0">
                                    <path stroke="none"  id="path396" gorn="0.3.0.0.1.0.97.0.0.0" style="fill-rule:nonzero;" fill="#ffffff" d="m 0,0 c 0.088,0 0.166,0.007 0.231,0.022 v -0.111 c -0.067,-0.022 -0.146,-0.033 -0.234,-0.033 -0.135,0 -0.235,0.036 -0.3,0.107 -0.064,0.071 -0.096,0.182 -0.096,0.335 v 0.971 h -0.228 v 0.081 l 0.228,0.062 0.07,0.34 h 0.072 V 1.41 h 0.45 V 1.291 h -0.45 V 0.339 c 0,-0.115 0.021,-0.201 0.062,-0.256 C -0.153,0.027 -0.088,0 0,0" fill-opacity="1"/>
                                </g>
                            </g>
                        </g>
                        <g  transform="translate(43.4265,88.7669)">
                            <g >
                                <g  id="g398" gorn="0.3.0.0.1.0.98.0.0">
                                    <path stroke="none"  id="path400" gorn="0.3.0.0.1.0.98.0.0.0" style="fill-rule:nonzero;" fill="#ffffff" d="m 0,0 v -0.974 c 0,-0.151 0.032,-0.262 0.097,-0.33 0.065,-0.069 0.166,-0.104 0.302,-0.104 0.183,0 0.317,0.046 0.404,0.136 0.086,0.09 0.129,0.238 0.129,0.441 V 0 H 1.07 V -1.504 H 0.952 L 0.926,-1.297 H 0.917 C 0.818,-1.454 0.641,-1.532 0.385,-1.532 c -0.349,0 -0.523,0.183 -0.523,0.55 V 0 Z" fill-opacity="1"/>
                                </g>
                            </g>
                        </g>
                        <g  transform="translate(45.5725,88.6717)">
                            <g >
                                <g  id="g402" gorn="0.3.0.0.1.0.99.0.0">
                                    <path stroke="none"  id="path404" gorn="0.3.0.0.1.0.99.0.0.0" style="fill-rule:nonzero;" fill="#ffffff" d="m 0,0 c -0.167,0 -0.293,-0.058 -0.377,-0.173 -0.085,-0.116 -0.127,-0.283 -0.127,-0.503 0,-0.426 0.169,-0.639 0.507,-0.639 0.173,0 0.3,0.049 0.381,0.148 0.081,0.099 0.121,0.262 0.121,0.489 v 0.023 c 0,0.233 -0.039,0.4 -0.119,0.502 C 0.307,-0.051 0.178,0 0,0 m 0,0.125 c 0.111,0 0.207,-0.021 0.288,-0.06 0.081,-0.04 0.153,-0.107 0.217,-0.204 H 0.514 C 0.508,-0.022 0.505,0.092 0.505,0.203 V 0.745 H 0.644 V -1.409 H 0.552 l -0.035,0.23 H 0.505 C 0.389,-1.351 0.221,-1.437 0.003,-1.437 c -0.212,0 -0.374,0.065 -0.486,0.194 -0.112,0.129 -0.168,0.317 -0.168,0.565 0,0.26 0.056,0.459 0.167,0.596 0.111,0.138 0.272,0.207 0.484,0.207" fill-opacity="1"/>
                                </g>
                            </g>
                        </g>
                        <path stroke="none"  id="path406" gorn="0.3.0.0.1.0.100" style="fill-rule:nonzero;" fill="#ffffff" d="m 46.871,87.263 h -0.14 v 1.504 h 0.14 z m -0.159,1.922 c 0,0.089 0.029,0.133 0.089,0.133 0.029,0 0.052,-0.012 0.068,-0.034 0.017,-0.024 0.025,-0.057 0.025,-0.099 0,-0.042 -0.008,-0.074 -0.025,-0.098 -0.016,-0.024 -0.039,-0.036 -0.068,-0.036 -0.06,0 -0.089,0.045 -0.089,0.134" fill-opacity="1"/>
                        <g  transform="translate(47.4436,88.0169)">
                            <g >
                                <g  id="g408" gorn="0.3.0.0.1.0.101.0.0">
                                    <path stroke="none"  id="path410" gorn="0.3.0.0.1.0.101.0.0.0" style="fill-rule:nonzero;" fill="#ffffff" d="m 0,0 c 0,-0.207 0.046,-0.368 0.139,-0.484 0.092,-0.116 0.224,-0.174 0.393,-0.174 0.17,0 0.301,0.058 0.393,0.174 0.093,0.116 0.139,0.277 0.139,0.484 0,0.208 -0.046,0.369 -0.14,0.483 C 0.83,0.597 0.699,0.655 0.529,0.655 0.36,0.655 0.229,0.598 0.138,0.484 0.046,0.37 0,0.208 0,0 M 1.211,0 C 1.211,-0.246 1.15,-0.437 1.029,-0.575 0.908,-0.713 0.74,-0.782 0.526,-0.782 c -0.134,0 -0.253,0.032 -0.355,0.095 -0.103,0.064 -0.181,0.155 -0.236,0.274 -0.055,0.12 -0.082,0.257 -0.082,0.413 0,0.246 0.061,0.437 0.182,0.574 0.122,0.136 0.288,0.205 0.5,0.205 0.211,0 0.376,-0.069 0.496,-0.208 C 1.151,0.432 1.211,0.242 1.211,0" fill-opacity="1"/>
                                </g>
                            </g>
                        </g>
                        <g  transform="translate(49.259,88.2206)">
                            <g >
                                <g  id="g412" gorn="0.3.0.0.1.0.102.0.0">
                                    <path stroke="none"  id="path414" gorn="0.3.0.0.1.0.102.0.0.0" style="fill-rule:nonzero;" fill="#ffffff" d="M 0,0 H 0.284 C 0.517,0 0.685,0.038 0.788,0.113 0.892,0.188 0.943,0.31 0.943,0.479 0.943,0.635 0.895,0.75 0.796,0.825 0.699,0.9 0.547,0.938 0.342,0.938 H 0 Z M 1.099,0.484 C 1.099,0.289 1.031,0.139 0.896,0.034 0.76,-0.07 0.568,-0.122 0.319,-0.122 H 0 v -0.836 h -0.144 v 2.023 h 0.506 c 0.491,0 0.737,-0.193 0.737,-0.581" fill-opacity="1"/>
                                </g>
                            </g>
                        </g>
                        <path stroke="none"  id="path416" gorn="0.3.0.0.1.0.103" style="fill-rule:nonzero;" fill="#ffffff" d="m 50.911,87.263 h -0.14 v 1.504 h 0.14 z m -0.159,1.922 c 0,0.089 0.029,0.133 0.089,0.133 0.029,0 0.051,-0.012 0.068,-0.034 0.017,-0.024 0.025,-0.057 0.025,-0.099 0,-0.042 -0.008,-0.074 -0.025,-0.098 -0.017,-0.024 -0.039,-0.036 -0.068,-0.036 -0.06,0 -0.089,0.045 -0.089,0.134" fill-opacity="1"/>
                        <g  transform="translate(52.0042,88.6742)">
                            <g >
                                <g  id="g418" gorn="0.3.0.0.1.0.104.0.0">
                                    <path stroke="none"  id="path420" gorn="0.3.0.0.1.0.104.0.0.0" style="fill-rule:nonzero;" fill="#ffffff" d="m 0,0 c -0.148,0 -0.267,-0.047 -0.356,-0.143 -0.089,-0.096 -0.142,-0.233 -0.157,-0.413 h 0.949 c 0,0.174 -0.039,0.31 -0.116,0.409 C 0.243,-0.049 0.136,0 0,0 m 0.041,-1.439 c -0.223,0 -0.397,0.067 -0.522,0.202 -0.124,0.134 -0.187,0.323 -0.187,0.566 0,0.24 0.06,0.432 0.181,0.576 0.12,0.145 0.282,0.217 0.487,0.217 0.181,0 0.323,-0.062 0.428,-0.185 0.104,-0.124 0.156,-0.292 0.156,-0.504 v -0.111 h -1.105 c 0.002,-0.207 0.051,-0.364 0.147,-0.473 0.097,-0.109 0.235,-0.164 0.415,-0.164 0.087,0 0.164,0.006 0.23,0.018 0.067,0.012 0.151,0.038 0.252,0.078 V -1.344 C 0.437,-1.381 0.357,-1.406 0.284,-1.419 0.21,-1.433 0.129,-1.439 0.041,-1.439" fill-opacity="1"/>
                                </g>
                            </g>
                        </g>
                        <g  transform="translate(53.4173,87.3568)">
                            <g >
                                <g  id="g422" gorn="0.3.0.0.1.0.105.0.0">
                                    <path stroke="none"  id="path424" gorn="0.3.0.0.1.0.105.0.0.0" style="fill-rule:nonzero;" fill="#ffffff" d="m 0,0 c 0.088,0 0.166,0.007 0.231,0.022 v -0.111 c -0.067,-0.022 -0.146,-0.033 -0.234,-0.033 -0.135,0 -0.235,0.036 -0.3,0.107 -0.064,0.071 -0.096,0.182 -0.096,0.335 v 0.971 h -0.228 v 0.081 l 0.228,0.062 0.07,0.34 h 0.072 V 1.41 h 0.45 V 1.291 h -0.45 V 0.339 c 0,-0.115 0.021,-0.201 0.062,-0.256 C -0.153,0.027 -0.088,0 0,0" fill-opacity="1"/>
                                </g>
                            </g>
                        </g>
                        <g  transform="translate(54.5593,88.6742)">
                            <g >
                                <g  id="g426" gorn="0.3.0.0.1.0.106.0.0">
                                    <path stroke="none"  id="path428" gorn="0.3.0.0.1.0.106.0.0.0" style="fill-rule:nonzero;" fill="#ffffff" d="m 0,0 c -0.148,0 -0.267,-0.047 -0.356,-0.143 -0.089,-0.096 -0.142,-0.233 -0.157,-0.413 h 0.949 c 0,0.174 -0.039,0.31 -0.116,0.409 C 0.243,-0.049 0.136,0 0,0 m 0.041,-1.439 c -0.223,0 -0.397,0.067 -0.522,0.202 -0.124,0.134 -0.187,0.323 -0.187,0.566 0,0.24 0.06,0.432 0.181,0.576 0.12,0.145 0.282,0.217 0.487,0.217 0.181,0 0.323,-0.062 0.428,-0.185 0.104,-0.124 0.156,-0.292 0.156,-0.504 v -0.111 h -1.105 c 0.002,-0.207 0.051,-0.364 0.147,-0.473 0.097,-0.109 0.235,-0.164 0.415,-0.164 0.087,0 0.164,0.006 0.23,0.018 0.067,0.012 0.151,0.038 0.252,0.078 V -1.344 C 0.437,-1.381 0.357,-1.406 0.284,-1.419 0.21,-1.433 0.129,-1.439 0.041,-1.439" fill-opacity="1"/>
                                </g>
                            </g>
                        </g>
                        <g  transform="translate(56.1716,88.7962)">
                            <g >
                                <g  id="g430" gorn="0.3.0.0.1.0.107.0.0">
                                    <path stroke="none"  id="path432" gorn="0.3.0.0.1.0.107.0.0.0" style="fill-rule:nonzero;" fill="#ffffff" d="M 0,0 C 0.065,0 0.134,-0.006 0.209,-0.02 L 0.182,-0.151 c -0.064,0.016 -0.13,0.024 -0.199,0.024 -0.131,0 -0.238,-0.055 -0.322,-0.164 -0.084,-0.108 -0.126,-0.246 -0.126,-0.412 v -0.831 h -0.139 v 1.505 h 0.118 L -0.472,-0.3 h 0.01 c 0.063,0.11 0.13,0.188 0.202,0.233 C -0.188,-0.022 -0.102,0 0,0" fill-opacity="1"/>
                                </g>
                            </g>
                        </g>
                        <g  transform="translate(57.6438,87.6541)">
                            <g >
                                <g  id="g434" gorn="0.3.0.0.1.0.108.0.0">
                                    <path stroke="none"  id="path436" gorn="0.3.0.0.1.0.108.0.0.0" style="fill-rule:nonzero;" fill="#ffffff" d="m 0,0 c 0,-0.135 -0.052,-0.238 -0.157,-0.311 -0.104,-0.072 -0.253,-0.108 -0.445,-0.108 -0.205,0 -0.367,0.031 -0.488,0.092 v 0.149 c 0.154,-0.076 0.317,-0.114 0.488,-0.114 0.152,0 0.267,0.025 0.346,0.074 0.078,0.05 0.118,0.115 0.118,0.197 0,0.076 -0.031,0.14 -0.094,0.191 -0.063,0.052 -0.165,0.103 -0.309,0.153 -0.153,0.054 -0.261,0.101 -0.323,0.14 -0.062,0.039 -0.109,0.083 -0.14,0.133 -0.032,0.05 -0.048,0.11 -0.048,0.18 0,0.113 0.049,0.202 0.145,0.268 0.096,0.065 0.231,0.098 0.405,0.098 0.165,0 0.322,-0.031 0.471,-0.091 L -0.083,0.926 C -0.234,0.987 -0.374,1.018 -0.502,1.018 -0.628,1.018 -0.727,0.997 -0.8,0.957 -0.874,0.916 -0.911,0.86 -0.911,0.788 -0.911,0.709 -0.882,0.646 -0.825,0.6 -0.768,0.552 -0.657,0.5 -0.491,0.441 -0.353,0.393 -0.252,0.349 -0.189,0.31 -0.126,0.27 -0.079,0.226 -0.047,0.176 -0.016,0.126 0,0.067 0,0" fill-opacity="1"/>
                                </g>
                            </g>
                        </g>
                        <g  transform="translate(58.0105,87.3705)">
                            <g >
                                <g  id="g438" gorn="0.3.0.0.1.0.109.0.0">
                                    <path stroke="none"  id="path440" gorn="0.3.0.0.1.0.109.0.0.0" style="fill-rule:nonzero;" fill="#ffffff" d="M 0,0 C 0,0.09 0.038,0.136 0.113,0.136 0.19,0.136 0.229,0.09 0.229,0 0.229,-0.09 0.19,-0.136 0.113,-0.136 0.038,-0.136 0,-0.09 0,0" fill-opacity="1"/>
                                </g>
                            </g>
                        </g>
                        <g  transform="translate(59.7966,87.2625)">
                            <g >
                                <g  id="g442" gorn="0.3.0.0.1.0.110.0.0">
                                    <path stroke="none"  id="path444" gorn="0.3.0.0.1.0.110.0.0.0" style="fill-rule:nonzero;" fill="#ffffff" d="m 0,0 v 0.976 c 0,0.151 -0.033,0.261 -0.098,0.33 -0.065,0.069 -0.165,0.103 -0.301,0.103 -0.184,0 -0.318,-0.045 -0.404,-0.137 C -0.888,1.182 -0.931,1.034 -0.931,0.831 V 0 H -1.07 v 1.504 h 0.118 l 0.027,-0.206 h 0.008 c 0.101,0.157 0.278,0.236 0.533,0.236 0.348,0 0.522,-0.183 0.522,-0.55 V 0 Z" fill-opacity="1"/>
                                </g>
                            </g>
                        </g>
                        <path stroke="none"  id="path446" gorn="0.3.0.0.1.0.111" style="fill-rule:nonzero;" fill="#ffffff" d="m 60.572,87.263 h -0.14 v 2.154 h 0.14 z" fill-opacity="1"/>
                    </g>
                </g>
            </g>
        </g>
    </g>
</svg>
