<svg xmlns="http://www.w3.org/2000/svg" width="104" height="62" viewBox="0 0 104 62">
  <rect x="8" y="8" width="88" height="34" rx="6" fill="#1f3a4b" stroke="#0e202a" stroke-width="2"/>
  <rect x="18" y="14" width="44" height="16" rx="3" fill="#e7eef2" stroke="#8fa2af" stroke-width="1.2"/>
  <rect x="66" y="13" width="18" height="18" rx="2" fill="#2b7f69" stroke="#9af0d1" stroke-width="1.2"/>
  <path d="M90 42 C96 34, 99 28, 99 18" fill="none" stroke="#d9e7ef" stroke-width="2.4" stroke-linecap="round"/>
  <path d="M86 40 C92 33, 95 27, 95 19" fill="none" stroke="#59d0b0" stroke-width="1.2" stroke-linecap="round"/>
  <text x="52" y="37" text-anchor="middle" font-size="9" font-family="Arial, sans-serif" fill="#f2f7fb">SX1276</text>
  <g fill="#d5b460" stroke="#6b5327" stroke-width="0.8">
    <rect x="10" y="42" width="4" height="10" rx="1"/>
    <rect x="18" y="42" width="4" height="10" rx="1"/>
    <rect x="26" y="42" width="4" height="10" rx="1"/>
    <rect x="34" y="42" width="4" height="10" rx="1"/>
    <rect x="42" y="42" width="4" height="10" rx="1"/>
    <rect x="50" y="42" width="4" height="10" rx="1"/>
    <rect x="58" y="42" width="4" height="10" rx="1"/>
    <rect x="66" y="42" width="4" height="10" rx="1"/>
    <rect x="74" y="42" width="4" height="10" rx="1"/>
    <rect x="82" y="42" width="4" height="10" rx="1"/>
  </g>
</svg>
